M48
;GenerationSoftware,Autodesk,EAGLE,9.6.2*%
;CreationDate,2022-04-18T10:00:48Z*%
FMAT,2
ICI,OFF
METRIC,TZ,000.000
T9C0.254
T8C0.350
T7C0.813
T6C0.900
T5C0.914
T4C1.016
T3C1.118
T2C1.803
T1C2.800
%
G90
M71
T1
X3810Y31242
X91440Y3683
X147320Y31242
X91440Y31242
X147320Y3683
X3810Y3683
T2
X13081Y18201
X13081Y23201
T3
X3081Y26201
X3081Y15201
T4
X44577Y16256
X130810Y5080
X130810Y7580
X72390Y2794
X72390Y5334
X72390Y7874
X44480Y29489
X44480Y32029
X64770Y5334
X44577Y18796
X69850Y5334
X59563Y2794
X59563Y5334
X62230Y5334
X67310Y5334
X64770Y2794
X62230Y2794
X30861Y13589
X30861Y11089
X68580Y24511
X66040Y32131
X66040Y24511
X63500Y32131
X63500Y24511
X60960Y32131
X60960Y24511
X68580Y32131
X74930Y7874
X74930Y5334
X74930Y2794
X55880Y25908
X55880Y28408
X55880Y30908
X55880Y15240
X55880Y17740
X55880Y20240
X73660Y32004
X76200Y32004
X78740Y32004
X81280Y32004
X83820Y32004
X86360Y32004
X69850Y2794
X67310Y2794
X130683Y27940
X130683Y30440
X55880Y4572
X55880Y7072
X55880Y9572
X44196Y3302
X44196Y5802
X130683Y16510
X130683Y19010
T5
X53086Y21030
X53086Y14530
T6
X99400Y6096
X103800Y6096
T7
X106553Y24130
X104013Y24130
X18161Y19177
X21463Y19177
X6477Y11684
X6477Y9684
T8
X17526Y6604
X22860Y12192
X24384Y12446
X26924Y16764
X30988Y21082
X31242Y16510
X42672Y2286
X34544Y2540
X47498Y1270
X49022Y1270
X51816Y9906
X55118Y21844
X55880Y22098
X43434Y20574
X45212Y26924
X45720Y27686
X46228Y33782
X57150Y33782
X54356Y32766
X42926Y33782
X29718Y33782
X95250Y33528
X95504Y32004
X96520Y33528
X94996Y1016
X85598Y1270
X86868Y2032
X87122Y1270
X127254Y1016
X129286Y1016
X129794Y11938
X131826Y11938
X131826Y23368
X129794Y23368
X118364Y27178
X95250Y5080
X77216Y3810
X90170Y23114
X149606Y27940
X150114Y33782
X149606Y7112
X144526Y27940
X144272Y33782
X144526Y1270
X130810Y34036
X140716Y23368
X138684Y23368
X136398Y23368
X134112Y23368
X133858Y11938
X135890Y11938
X138176Y11938
X140208Y11938
X150114Y1016
X144780Y6858
X103124Y33782
X105156Y33782
X762Y34036
X762Y762
X3302Y18542
X75568Y15748
X78593Y17746
X73914Y18542
X78373Y19558
X83559Y11386
X85224Y16390
X83827Y17787
X91133Y17422
X84836Y19568
X82790Y26670
X84582Y20320
X129613Y18034
X128451Y19304
X33782Y21844
X20320Y24892
X29718Y17385
X34798Y12700
X27686Y6350
X43942Y12700
X69342Y25654
X61722Y13208
X70776Y12813
X68416Y19705
X62738Y20320
X70104Y28194
X89916Y24937
X99822Y21336
X99006Y24130
X122682Y12446
X106172Y16002
X113538Y19812
X99456Y17414
X110998Y24130
X118872Y28956
X94234Y13789
X43180Y12700
X83754Y9855
X74422Y28194
X74476Y19177
X88900Y25146
X78089Y26110
X82855Y13716
X77516Y25614
X81286Y14224
X57204Y1470
X88646Y9144
X89408Y15875
X51460Y11709
X82601Y889
X82326Y6701
X105664Y14732
X92583Y11557
X94996Y19812
X86741Y8382
X82042Y24003
X82550Y25400
X101854Y27274
X89692Y27208
X102108Y26518
X88646Y27432
X118782Y16727
X94288Y22938
X125730Y18038
X123952Y17895
X119687Y17908
X93345Y23937
X120904Y15494
X92827Y24498
X119634Y16764
X94101Y23694
X107620Y7188
X85671Y6604
X107442Y13208
X94742Y13208
X91875Y13843
X89662Y16637
X107580Y9282
X95175Y8201
X92583Y8227
X86868Y7620
X107442Y11176
X86280Y7066
X92454Y14417
X91621Y23114
X57410Y11328
X57404Y12497
X36576Y33782
X57651Y23309
X57658Y27432
X57658Y29210
X91186Y22352
X92710Y15240
X58191Y11328
X58191Y12522
X58220Y15748
X58420Y24384
X58420Y27432
X58420Y29210
X73427Y9809
X90526Y19431
X84255Y25296
X90587Y18548
X84675Y24408
X81788Y17018
X80518Y17018
X80264Y11430
X81310Y12984
X89713Y17526
X87884Y17022
X85852Y27686
X85344Y22352
X105504Y17366
X103378Y26670
X86614Y29464
X30734Y15494
X20320Y23876
X29718Y12446
X27432Y8290
X45086Y8999
X49022Y6096
X48768Y15748
X52070Y19812
X51308Y29718
X46482Y16256
X45466Y30988
X101599Y17271
X100127Y31039
X47144Y10639
X123265Y6110
X131826Y9144
X124714Y14990
X132334Y20574
X124968Y26670
X132080Y32258
X92227Y9804
X68326Y9804
X92735Y9119
X68224Y18136
X103352Y19596
X103124Y21165
X100584Y6096
X104140Y21336
X104867Y23622
X105156Y26416
X97042Y27999
X96266Y29972
X97714Y28372
X98806Y30734
X74927Y19795
X69088Y13566
X71099Y16023
X70825Y18136
X75462Y20330
X70561Y21285
X121131Y13235
X120650Y1778
X119126Y377
X121666Y12700
X120421Y2540
X132342Y25916
X131064Y25908
X133604Y26670
X128363Y26670
X142748Y29210
X35306Y29210
X72685Y17933
X74676Y18415
X87884Y9068
X88780Y18803
X26416Y6350
X26416Y8382
X26697Y9425
X55118Y13716
X67031Y11811
X74476Y17220
X77216Y1778
X46736Y5334
X51054Y1016
X78486Y2032
X49784Y7874
X52070Y8636
X132469Y14359
X131151Y14224
X133350Y15240
X128600Y15011
X142748Y17780
X132469Y2929
X131064Y2794
X133604Y3810
X128524Y3810
X142748Y6350
X115430Y15354
X110236Y16701
X64938Y19705
X65205Y17555
X70866Y14732
X72209Y14732
X66167Y21720
X61722Y17780
X71047Y13569
X72437Y13569
X63500Y19705
X63500Y17780
X70331Y14197
X73012Y14745
X65760Y19705
X65786Y18136
X116151Y24765
X115570Y24130
X123164Y22834
X113030Y25908
X122428Y26162
X121686Y23114
X110744Y26670
X111689Y32004
X115570Y33274
X74447Y23012
X91556Y25694
X98489Y29553
X97790Y27347
X82550Y21336
X82550Y19558
X57404Y15748
X80518Y19558
X79829Y17681
X77985Y13215
X83312Y16281
X86868Y16281
X84836Y18288
X86868Y20828
X72390Y9398
X67564Y7112
X83820Y6350
X51054Y6096
X41234Y11254
X41656Y2540
X137287Y15113
X137414Y3556
X137414Y26670
X123952Y13970
X125959Y15011
X106680Y21165
X103176Y22037
X85086Y29154
X67374Y17208
X92903Y17051
X75184Y24638
X72997Y22933
X100838Y19304
X20193Y27356
X7620Y762
X8890Y3048
X8382Y5588
X6350Y7112
X3556Y8636
X1270Y7620
X1270Y10414
X1270Y13208
X1270Y16256
X1270Y18796
X1270Y21336
X1270Y24130
X1270Y27432
X6096Y27432
X7874Y28702
X8636Y30988
X10922Y26924
X7620Y24384
X5080Y22352
X7620Y34036
X33528Y33782
X39878Y33782
X36322Y23876
X34544Y24384
X3556Y11430
X18542Y8636
X72644Y20828
T9
X14986Y24384
X18034Y24384
X22860Y24130
X20320Y25939
X17780Y25908
X76733Y24892
X82296Y27178
X80010Y24003
X82169Y26035
X66421Y20955
X66065Y13284
X77670Y21517
X76683Y19863
X77724Y8636
X77724Y7341
X86360Y12827
X79230Y24155
X76756Y21590
X76149Y20650
X76962Y8636
X76962Y7341
X76581Y11430
X75768Y11354
X32766Y30480
X26924Y19431
X23876Y29972
X23876Y28677
X14986Y26162
M30