G04 EAGLE Gerber RS-274X export*
G75*
%MOMM*%
%FSLAX34Y34*%
%LPD*%
%INCopper Layer 2*%
%IPPOS*%
%AMOC8*
5,1,8,0,0,1.08239X$1,22.5*%
G01*
%ADD10C,1.524000*%
%ADD11C,1.371600*%
%ADD12C,1.219200*%
%ADD13C,3.816000*%
%ADD14C,2.705100*%
%ADD15C,1.676400*%
%ADD16C,0.553200*%
%ADD17C,0.457200*%
%ADD18C,0.203200*%
%ADD19C,0.254000*%
%ADD20C,1.016000*%
%ADD21C,0.762000*%
%ADD22C,0.508000*%
%ADD23C,0.381000*%


D10*
X445770Y187960D03*
X445770Y162560D03*
X444805Y320294D03*
X444805Y294894D03*
X723900Y78740D03*
X723900Y53340D03*
X723900Y27940D03*
D11*
X530860Y145300D03*
X530860Y210300D03*
D12*
X181610Y191770D03*
X214630Y191770D03*
D10*
X595630Y27940D03*
X595630Y53340D03*
X622300Y53340D03*
X647700Y53340D03*
X673100Y53340D03*
X698500Y53340D03*
D13*
X1473200Y312420D03*
X1473200Y36830D03*
X38100Y36830D03*
D10*
X647700Y27940D03*
X622300Y27940D03*
X308610Y135890D03*
X308610Y110890D03*
X685800Y321310D03*
X685800Y245110D03*
X660400Y321310D03*
X660400Y245110D03*
X635000Y321310D03*
X635000Y245110D03*
X609600Y321310D03*
X609600Y245110D03*
D14*
X130810Y182010D03*
X130810Y232010D03*
D15*
X30810Y152010D03*
X30810Y262010D03*
D12*
X64770Y116840D03*
X64770Y96840D03*
D10*
X749300Y78740D03*
X749300Y53340D03*
X749300Y27940D03*
X558800Y259080D03*
X558800Y284081D03*
X558800Y309082D03*
X558800Y152400D03*
X558800Y177401D03*
X558800Y202402D03*
X736600Y320040D03*
X762000Y320040D03*
X787400Y320040D03*
X812800Y320040D03*
X838200Y320040D03*
X863600Y320040D03*
X698500Y27940D03*
X673100Y27940D03*
D12*
X1065530Y241300D03*
X1040130Y241300D03*
D13*
X914400Y312420D03*
X914400Y36830D03*
D10*
X1306830Y279400D03*
X1306830Y304400D03*
X558800Y45720D03*
X558800Y70721D03*
X558800Y95722D03*
X441960Y33020D03*
X441960Y58020D03*
X1306830Y165100D03*
X1306830Y190100D03*
X1308100Y50800D03*
X1308100Y75800D03*
D13*
X38100Y312420D03*
D16*
X744474Y230124D03*
X915559Y256937D03*
X984893Y295534D03*
X977900Y273474D03*
X825500Y213360D03*
X825500Y195580D03*
X805178Y195580D03*
X798294Y176812D03*
X779852Y132152D03*
X833120Y162814D03*
X868680Y162814D03*
X848360Y182880D03*
X868680Y208280D03*
X723900Y93980D03*
X675640Y71120D03*
X838200Y63500D03*
X510540Y60960D03*
X412343Y112543D03*
X416560Y25400D03*
X1372870Y151130D03*
X1374140Y35560D03*
X1374140Y266700D03*
X1239520Y139700D03*
X1259586Y150114D03*
X1066800Y211650D03*
X1031758Y220373D03*
X850862Y291536D03*
X673735Y172085D03*
X929033Y170511D03*
X751840Y246380D03*
X729968Y229334D03*
X1008380Y193040D03*
X201930Y273558D03*
X76200Y7620D03*
X88900Y30480D03*
X83820Y55880D03*
X63500Y71120D03*
X35560Y86360D03*
X12700Y76200D03*
X12700Y104140D03*
X12700Y132080D03*
X12700Y162560D03*
X12700Y187960D03*
X12700Y213360D03*
X12700Y241300D03*
X12700Y274320D03*
X60960Y274320D03*
X78740Y287020D03*
X86360Y309880D03*
X109220Y269240D03*
X76200Y243840D03*
X50800Y223520D03*
X76200Y340360D03*
X335280Y337820D03*
X365760Y337820D03*
X398780Y337820D03*
X363220Y238760D03*
X345440Y243840D03*
X35560Y114300D03*
X185420Y86360D03*
X175260Y66040D03*
X228600Y121920D03*
X243840Y124460D03*
X269240Y167640D03*
X309880Y210820D03*
X312420Y165100D03*
X426720Y22860D03*
X345440Y25400D03*
X474980Y12700D03*
X490220Y12700D03*
X518160Y99060D03*
X551180Y218440D03*
X558800Y220980D03*
X434340Y205740D03*
X452120Y269240D03*
X457200Y276860D03*
X462280Y337820D03*
X571500Y337820D03*
X543560Y327660D03*
X429260Y337820D03*
X297180Y337820D03*
X952500Y335280D03*
X955040Y320040D03*
X965200Y335280D03*
X949960Y10160D03*
X855980Y12700D03*
X868680Y20320D03*
X871220Y12700D03*
X1272540Y10160D03*
X1292860Y10160D03*
X1297940Y119380D03*
X1318260Y119380D03*
X1318260Y233680D03*
X1297940Y233680D03*
X1183640Y271780D03*
X952500Y50800D03*
X772160Y38100D03*
X901700Y231140D03*
X1496060Y279400D03*
X1501140Y337820D03*
X1496060Y71120D03*
X1445260Y279400D03*
X1442720Y337820D03*
X1445260Y12700D03*
X1308100Y340360D03*
X1407160Y233680D03*
X1386840Y233680D03*
X1363980Y233680D03*
X1341120Y233680D03*
X1338580Y119380D03*
X1358900Y119380D03*
X1381760Y119380D03*
X1402080Y119380D03*
X1501140Y10160D03*
X1447800Y68580D03*
X1031240Y337820D03*
X1051560Y337820D03*
X7620Y340360D03*
X7620Y7620D03*
X33020Y185420D03*
D17*
X757682Y113538D03*
D16*
X755678Y157480D03*
D18*
X765838Y157480D01*
X785818Y177460D01*
X785930Y177460D01*
D16*
X785930Y177460D03*
X739140Y185420D03*
X783730Y195580D03*
D18*
X744352Y178336D02*
X739422Y183266D01*
X739422Y185138D02*
X739140Y185420D01*
X739422Y185138D02*
X739422Y183266D01*
X744352Y178336D02*
X751246Y178336D01*
X765950Y193040D02*
X781190Y193040D01*
X783730Y195580D01*
X765950Y193040D02*
X751246Y178336D01*
D16*
X835588Y113864D03*
X852240Y163900D03*
D18*
X835588Y147248D01*
X835588Y113864D01*
X787400Y177460D02*
X785930Y177460D01*
X837860Y177460D02*
X838270Y177870D01*
D16*
X838270Y177870D03*
X911329Y174219D03*
X848360Y195678D03*
D18*
X906392Y174219D02*
X911329Y174219D01*
X906392Y174219D02*
X899536Y181074D01*
X862964Y181074D02*
X848360Y195678D01*
X862964Y181074D02*
X899536Y181074D01*
D16*
X827902Y266700D03*
X845820Y203200D03*
D18*
X827902Y259820D02*
X827902Y266700D01*
X827902Y259820D02*
X831314Y256408D01*
X831314Y217706D02*
X845820Y203200D01*
X831314Y217706D02*
X831314Y256408D01*
D16*
X1296134Y180340D03*
D18*
X1284506Y191968D01*
X1284506Y193040D01*
D16*
X1284506Y193040D03*
X337820Y218440D03*
D19*
X233680Y218440D01*
X203200Y248920D01*
D16*
X203200Y248920D03*
X297180Y173852D03*
X347980Y127000D03*
D18*
X284480Y63500D01*
X276860Y63500D01*
D16*
X276860Y63500D03*
X439420Y127000D03*
D20*
X561866Y127000D01*
X577614Y142748D01*
X609600Y142748D01*
X617220Y142748D01*
X658368Y142748D01*
X687070Y171450D02*
X696976Y171450D01*
X661670Y146050D02*
X658368Y142748D01*
X661670Y146050D02*
X687070Y171450D01*
D19*
X696976Y171450D02*
X696976Y171704D01*
X696976Y195580D01*
X698500Y195580D02*
X698500Y200660D01*
X698500Y251460D01*
X693420Y256540D01*
D16*
X693420Y256540D03*
D19*
X617220Y142748D02*
X617220Y132080D01*
D16*
X617220Y132080D03*
D19*
X661670Y146050D02*
X689836Y146050D01*
X707758Y128128D01*
D16*
X707758Y128128D03*
D19*
X698500Y195580D02*
X696976Y195580D01*
X685630Y195580D01*
X684162Y197048D01*
D16*
X684162Y197048D03*
D19*
X609600Y185420D02*
X609600Y142748D01*
X609600Y185420D02*
X627380Y203200D01*
D16*
X627380Y203200D03*
D19*
X693420Y256540D02*
X693420Y274320D01*
X701040Y281940D01*
D16*
X701040Y281940D03*
D21*
X770146Y185420D02*
X748322Y163596D01*
X728376Y163596D02*
X720522Y171450D01*
X728376Y163596D02*
X748322Y163596D01*
X831850Y189230D02*
X838200Y195580D01*
X845820Y203200D01*
X831850Y189230D02*
X828040Y185420D01*
D20*
X706120Y171450D02*
X696976Y171450D01*
X706120Y171450D02*
X720522Y171450D01*
D21*
X770146Y185420D02*
X784860Y185420D01*
X795020Y185420D01*
X828040Y185420D01*
X784860Y185420D02*
X783730Y186550D01*
X783730Y195580D01*
X828040Y185420D02*
X835590Y177870D01*
X838270Y177870D01*
X852240Y163900D01*
X783730Y181130D02*
X783730Y186550D01*
X783730Y181130D02*
X787400Y177460D01*
D22*
X892684Y265039D02*
X902712Y255012D01*
X949444Y208280D01*
X880718Y265039D02*
X861560Y284198D01*
X880718Y265039D02*
X892684Y265039D01*
X861560Y284198D02*
X820138Y284198D01*
X949444Y208280D02*
X989330Y208280D01*
D19*
X902712Y252924D02*
X902712Y255012D01*
X902712Y252924D02*
X899160Y249372D01*
D16*
X899160Y249372D03*
D19*
X989330Y208280D02*
X990346Y208280D01*
X990854Y208280D01*
X990346Y208280D02*
X988822Y208280D01*
X990346Y208280D02*
X990854Y208280D01*
X993140Y208280D01*
X998220Y213360D01*
D16*
X998220Y213360D03*
D19*
X990346Y208280D02*
X990346Y241018D01*
X990064Y241300D01*
D16*
X990064Y241300D03*
X1226820Y124460D03*
X1061720Y160020D03*
D19*
X1099820Y198120D01*
X1135380Y198120D01*
D16*
X1135380Y198120D03*
X994557Y174137D03*
D22*
X994410Y174285D01*
D19*
X1061720Y160020D02*
X1061720Y190500D01*
X1109980Y238760D02*
X1109980Y241300D01*
D16*
X1109980Y241300D03*
D19*
X1109980Y238760D02*
X1061720Y190500D01*
D16*
X1188720Y289560D03*
D19*
X1101372Y269214D02*
X1101372Y264187D01*
X1109980Y255579D02*
X1109980Y241300D01*
X1109980Y255579D02*
X1101372Y264187D01*
X1101372Y269214D02*
X1121719Y289560D01*
X1188720Y289560D01*
D16*
X942340Y137894D03*
D19*
X978583Y174137D01*
X994557Y174137D01*
D20*
X439420Y127000D02*
X429260Y127000D01*
D16*
X431800Y127000D03*
X837543Y98547D03*
D22*
X990346Y208280D02*
X994410Y204216D01*
X994410Y174285D01*
X848360Y195678D02*
X848262Y195580D01*
X838200Y195580D01*
D16*
X744220Y281940D03*
D18*
X431800Y127000D02*
X429260Y127000D01*
D22*
X706120Y171450D02*
X708688Y174018D01*
X716374Y174018D01*
X718132Y175777D01*
X718132Y182192D01*
X820138Y284198D01*
D17*
X765810Y114300D03*
D16*
X744756Y191770D03*
X889000Y251460D03*
X780895Y261102D03*
X828548Y137160D03*
X775158Y256142D03*
X812856Y142240D03*
X572036Y14704D03*
X886460Y91440D03*
X894080Y158750D03*
X514604Y117094D03*
X826008Y8890D03*
X823261Y67009D03*
X1056640Y147320D03*
X925830Y115570D03*
X949960Y198120D03*
X867410Y83820D03*
X820420Y240030D03*
X825500Y254000D03*
X1018540Y272740D03*
X896921Y272081D03*
X1021080Y265176D03*
X886460Y274320D03*
X1187816Y167273D03*
X942876Y229380D03*
X1257300Y180378D03*
X1239520Y178947D03*
X1196871Y179076D03*
X933450Y239372D03*
X1209040Y154940D03*
X928272Y244977D03*
X1196340Y167640D03*
X941014Y236944D03*
X1076203Y71877D03*
X856714Y66040D03*
X1074420Y132080D03*
X947420Y132080D03*
X918746Y138430D03*
X896620Y166370D03*
X1075803Y92823D03*
X951747Y82014D03*
X925830Y82268D03*
X868680Y76200D03*
X1074420Y111760D03*
X862796Y70655D03*
D17*
X769620Y73406D03*
X769620Y86360D03*
X761492Y206502D03*
X767559Y215900D03*
X792303Y241554D03*
X863600Y128270D03*
X777240Y73406D03*
X777240Y86360D03*
X766826Y198628D03*
X776703Y215167D03*
X800100Y240030D03*
D16*
X924544Y144173D03*
X916206Y231140D03*
X574096Y113284D03*
X574040Y124968D03*
X574040Y157480D03*
X576515Y233089D03*
X576580Y274320D03*
X576580Y292100D03*
X911860Y223520D03*
X927100Y152400D03*
X581914Y113284D03*
X581914Y125222D03*
X582202Y157480D03*
X584200Y243840D03*
X584200Y274320D03*
X584200Y292100D03*
X734267Y98091D03*
X905256Y194310D03*
X842546Y252956D03*
X905868Y185476D03*
X846755Y244081D03*
D17*
X822960Y271780D03*
X821690Y260350D03*
X767334Y248920D03*
D16*
X817880Y170180D03*
D18*
X805178Y170180D01*
D16*
X805178Y170180D03*
X802640Y114300D03*
D18*
X802640Y119380D01*
X813101Y129841D01*
D16*
X813101Y129841D03*
D18*
X813759Y129841D01*
X818670Y134752D01*
X818670Y169390D02*
X817880Y170180D01*
X818670Y169390D02*
X818670Y134752D01*
D16*
X897128Y175260D03*
X878840Y170218D03*
D18*
X897128Y175260D02*
X897288Y175260D01*
X892246Y170218D01*
X878840Y170218D01*
D16*
X858520Y276860D03*
D18*
X858520Y228600D01*
X853440Y223520D01*
D16*
X853440Y223520D03*
X1055037Y173657D03*
X1033780Y266700D03*
X866140Y294640D03*
X307340Y154940D03*
X203200Y238760D03*
D19*
X206894Y238760D01*
X273558Y188722D02*
X307340Y154940D01*
X273558Y188722D02*
X256932Y188722D01*
X206894Y238760D01*
D16*
X297180Y124460D03*
D18*
X274320Y101600D01*
X274320Y82896D01*
D16*
X274320Y82896D03*
X450864Y89994D03*
D19*
X461186Y89994D01*
X490220Y60960D01*
D16*
X490220Y60960D03*
X487680Y157480D03*
D23*
X487680Y165100D01*
X520700Y198120D01*
D16*
X520700Y198120D03*
D23*
X513080Y205740D01*
X513080Y297180D01*
D16*
X513080Y297180D03*
X464820Y162560D03*
X454660Y309880D03*
X1015987Y172707D03*
X1001272Y310392D03*
D23*
X1015987Y260789D02*
X1015987Y172707D01*
X1011837Y299828D02*
X1001272Y310392D01*
X1011837Y264940D02*
X1015987Y260789D01*
X1011837Y264940D02*
X1011837Y299828D01*
D16*
X471438Y106393D03*
D22*
X570492Y105885D02*
X938846Y105885D01*
X567320Y109057D02*
X474103Y109057D01*
X471438Y106393D01*
X567320Y109057D02*
X570492Y105885D01*
D23*
X990933Y53555D02*
X1007915Y53555D01*
X990933Y53555D02*
X938725Y105763D01*
X1232652Y67828D02*
X1232652Y61098D01*
D16*
X1232652Y61098D03*
D23*
X1232652Y67828D02*
X1200954Y99526D01*
X1232652Y61098D02*
X1262994Y91440D01*
X1318260Y91440D01*
D16*
X1318260Y91440D03*
D23*
X464820Y162560D02*
X464820Y299720D01*
X454660Y309880D01*
D16*
X1247140Y149898D03*
D23*
X1200954Y101815D02*
X1200954Y99526D01*
D16*
X1323340Y205740D03*
D23*
X1287727Y205740D01*
D16*
X1249680Y266700D03*
D23*
X1200954Y160020D02*
X1200954Y101815D01*
X1200954Y160020D02*
X1200954Y162775D01*
X1223565Y240585D02*
X1249680Y266700D01*
X1223565Y185386D02*
X1200954Y162775D01*
X1223565Y185386D02*
X1223565Y240585D01*
X1249680Y266700D02*
X1305560Y322580D01*
X1320800Y322580D01*
D16*
X1320800Y322580D03*
D23*
X1067717Y114537D02*
X1067717Y113358D01*
X1067717Y114537D02*
X1113751Y160570D01*
X1198750Y160570D01*
X1200954Y162775D01*
X1067717Y113358D02*
X1007915Y53555D01*
X1200954Y160020D02*
X1203494Y162560D01*
X1234478Y162560D02*
X1247140Y149898D01*
X1234478Y162560D02*
X1203494Y162560D01*
X1247140Y149898D02*
X1277803Y180561D01*
X1277803Y195817D01*
X1287727Y205740D01*
X938846Y105885D02*
X938725Y105763D01*
X938846Y105885D02*
X1005669Y172707D01*
X1015987Y172707D01*
D16*
X922274Y98044D03*
X683260Y98044D03*
X927348Y91192D03*
X682244Y181356D03*
D17*
X327660Y304800D03*
X269240Y194310D03*
X238760Y299720D03*
X238760Y286766D03*
X149860Y261620D03*
X149860Y243840D03*
X180340Y243840D03*
X228600Y241300D03*
X203200Y259390D03*
X177800Y259080D03*
D16*
X1033522Y195958D03*
X1031240Y211650D03*
X1005840Y60960D03*
D19*
X1041400Y96520D01*
X1041400Y213360D01*
D16*
X1041400Y213360D03*
D19*
X1041400Y228953D01*
X1048667Y236220D01*
D16*
X1048667Y236220D03*
D19*
X1048667Y261267D01*
X1051560Y264160D01*
D16*
X1051560Y264160D03*
X970418Y279995D03*
X962660Y299720D03*
X977138Y283718D03*
X988060Y307340D03*
X749274Y197950D03*
X690880Y135664D03*
X710993Y160227D03*
X708254Y181356D03*
X754622Y203298D03*
X705612Y212852D03*
D17*
X664210Y209550D03*
X660654Y132842D03*
D16*
X1211311Y132349D03*
X1206500Y17780D03*
X1191260Y3766D03*
X1216660Y127000D03*
X1204214Y25400D03*
X1323416Y259156D03*
X1310640Y259080D03*
X1336040Y266700D03*
X1283626Y266700D03*
X1427480Y292100D03*
X353060Y292100D03*
X726846Y179332D03*
X746760Y184150D03*
X878840Y90678D03*
X887795Y188025D03*
X264160Y63500D03*
X264160Y83820D03*
X266969Y94249D03*
X551180Y137160D03*
X670306Y118110D03*
X744756Y172204D03*
X772160Y17780D03*
X467360Y53340D03*
X510540Y10160D03*
X784860Y20320D03*
X497840Y78740D03*
X520700Y86360D03*
X726440Y208280D03*
X1324686Y143586D03*
X1311514Y142240D03*
X1333500Y152400D03*
X1286002Y150114D03*
X1427480Y177800D03*
X1324686Y29286D03*
X1310640Y27940D03*
X1336040Y38100D03*
X1285240Y38100D03*
X1427480Y63500D03*
X1154304Y153544D03*
X1102360Y167008D03*
X649380Y197048D03*
X652046Y175552D03*
X708660Y147320D03*
X722094Y147320D03*
X661670Y217204D03*
X617220Y177800D03*
X710466Y135692D03*
X724370Y135692D03*
X635000Y197048D03*
X635000Y177800D03*
X703311Y141971D03*
X730121Y147449D03*
X657602Y197048D03*
X657860Y181356D03*
X1161514Y247650D03*
X1155700Y241300D03*
X1231637Y228337D03*
X1130300Y259080D03*
D19*
X1221740Y259080D01*
X1224280Y261620D01*
D16*
X1224280Y261620D03*
X1216862Y231140D03*
D19*
X1143000Y231140D01*
X1107440Y266700D01*
D16*
X1107440Y266700D03*
X1116888Y320040D03*
X1155700Y332740D03*
M02*
