G04 EAGLE Gerber RS-274X export*
G75*
%MOMM*%
%FSLAX34Y34*%
%LPD*%
%INCopper Layer 15*%
%IPPOS*%
%AMOC8*
5,1,8,0,0,1.08239X$1,22.5*%
G01*
%ADD10C,1.524000*%
%ADD11C,1.371600*%
%ADD12C,1.219200*%
%ADD13C,3.816000*%
%ADD14C,2.705100*%
%ADD15C,1.676400*%
%ADD16C,0.553200*%
%ADD17C,0.457200*%

G36*
X1185310Y1016D02*
X1185310Y1016D01*
X1185429Y1023D01*
X1185467Y1036D01*
X1185508Y1041D01*
X1185618Y1084D01*
X1185731Y1121D01*
X1185766Y1143D01*
X1185803Y1158D01*
X1185899Y1227D01*
X1186000Y1291D01*
X1186028Y1321D01*
X1186061Y1344D01*
X1186137Y1436D01*
X1186218Y1523D01*
X1186238Y1558D01*
X1186263Y1589D01*
X1186314Y1697D01*
X1186372Y1801D01*
X1186382Y1841D01*
X1186399Y1877D01*
X1186421Y1994D01*
X1186451Y2109D01*
X1186455Y2169D01*
X1186459Y2189D01*
X1186457Y2210D01*
X1186461Y2270D01*
X1186461Y5754D01*
X1189272Y8565D01*
X1193248Y8565D01*
X1196059Y5754D01*
X1196059Y2270D01*
X1196074Y2152D01*
X1196081Y2033D01*
X1196094Y1995D01*
X1196099Y1954D01*
X1196142Y1844D01*
X1196179Y1731D01*
X1196201Y1696D01*
X1196216Y1659D01*
X1196285Y1563D01*
X1196349Y1462D01*
X1196379Y1434D01*
X1196402Y1401D01*
X1196494Y1325D01*
X1196581Y1244D01*
X1196616Y1224D01*
X1196647Y1199D01*
X1196755Y1148D01*
X1196859Y1090D01*
X1196899Y1080D01*
X1196935Y1063D01*
X1197052Y1041D01*
X1197167Y1011D01*
X1197227Y1007D01*
X1197247Y1003D01*
X1197268Y1005D01*
X1197328Y1001D01*
X1508830Y1001D01*
X1508948Y1016D01*
X1509067Y1023D01*
X1509105Y1036D01*
X1509146Y1041D01*
X1509256Y1084D01*
X1509369Y1121D01*
X1509404Y1143D01*
X1509441Y1158D01*
X1509537Y1227D01*
X1509638Y1291D01*
X1509666Y1321D01*
X1509699Y1344D01*
X1509775Y1436D01*
X1509856Y1523D01*
X1509876Y1558D01*
X1509901Y1589D01*
X1509952Y1697D01*
X1510010Y1801D01*
X1510020Y1841D01*
X1510037Y1877D01*
X1510059Y1994D01*
X1510089Y2109D01*
X1510093Y2169D01*
X1510097Y2189D01*
X1510095Y2210D01*
X1510099Y2270D01*
X1510099Y346980D01*
X1510084Y347098D01*
X1510077Y347217D01*
X1510064Y347255D01*
X1510059Y347296D01*
X1510016Y347406D01*
X1509979Y347519D01*
X1509957Y347554D01*
X1509942Y347591D01*
X1509873Y347687D01*
X1509809Y347788D01*
X1509779Y347816D01*
X1509756Y347849D01*
X1509664Y347925D01*
X1509577Y348006D01*
X1509542Y348026D01*
X1509511Y348051D01*
X1509403Y348102D01*
X1509299Y348160D01*
X1509259Y348170D01*
X1509223Y348187D01*
X1509106Y348209D01*
X1508991Y348239D01*
X1508931Y348243D01*
X1508911Y348247D01*
X1508890Y348245D01*
X1508830Y348249D01*
X2270Y348249D01*
X2152Y348234D01*
X2033Y348227D01*
X1995Y348214D01*
X1954Y348209D01*
X1844Y348166D01*
X1731Y348129D01*
X1696Y348107D01*
X1659Y348092D01*
X1563Y348023D01*
X1462Y347959D01*
X1434Y347929D01*
X1401Y347906D01*
X1325Y347814D01*
X1244Y347727D01*
X1224Y347692D01*
X1199Y347661D01*
X1148Y347553D01*
X1090Y347449D01*
X1080Y347409D01*
X1063Y347373D01*
X1041Y347256D01*
X1011Y347141D01*
X1007Y347081D01*
X1003Y347061D01*
X1005Y347040D01*
X1001Y346980D01*
X1001Y2270D01*
X1016Y2152D01*
X1023Y2033D01*
X1036Y1995D01*
X1041Y1954D01*
X1084Y1844D01*
X1121Y1731D01*
X1143Y1696D01*
X1158Y1659D01*
X1227Y1563D01*
X1291Y1462D01*
X1321Y1434D01*
X1344Y1401D01*
X1436Y1325D01*
X1523Y1244D01*
X1558Y1224D01*
X1589Y1199D01*
X1697Y1148D01*
X1801Y1090D01*
X1841Y1080D01*
X1877Y1063D01*
X1994Y1041D01*
X2109Y1011D01*
X2169Y1007D01*
X2189Y1003D01*
X2210Y1005D01*
X2270Y1001D01*
X1185192Y1001D01*
X1185310Y1016D01*
G37*
%LPC*%
G36*
X127715Y166452D02*
X127715Y166452D01*
X121997Y168820D01*
X117620Y173197D01*
X115252Y178915D01*
X115252Y185105D01*
X117620Y190823D01*
X121997Y195200D01*
X127715Y197568D01*
X133905Y197568D01*
X139623Y195200D01*
X144000Y190823D01*
X146368Y185105D01*
X146368Y178915D01*
X144000Y173197D01*
X139623Y168820D01*
X133905Y166452D01*
X127715Y166452D01*
G37*
%LPD*%
%LPC*%
G36*
X742768Y167405D02*
X742768Y167405D01*
X739957Y170216D01*
X739957Y174192D01*
X742768Y177003D01*
X744057Y177003D01*
X744194Y177020D01*
X744333Y177033D01*
X744352Y177040D01*
X744372Y177043D01*
X744501Y177094D01*
X744632Y177141D01*
X744649Y177152D01*
X744668Y177160D01*
X744780Y177241D01*
X744895Y177319D01*
X744909Y177335D01*
X744925Y177347D01*
X745014Y177454D01*
X745106Y177558D01*
X745115Y177576D01*
X745128Y177591D01*
X745187Y177717D01*
X745250Y177841D01*
X745255Y177861D01*
X745263Y177879D01*
X745290Y178016D01*
X745320Y178151D01*
X745319Y178172D01*
X745323Y178192D01*
X745315Y178329D01*
X745310Y178469D01*
X745305Y178489D01*
X745303Y178509D01*
X745261Y178641D01*
X745222Y178775D01*
X745212Y178792D01*
X745205Y178811D01*
X745131Y178929D01*
X745060Y179049D01*
X745042Y179070D01*
X745035Y179080D01*
X745020Y179094D01*
X744954Y179170D01*
X743212Y180911D01*
X743118Y180984D01*
X743114Y180988D01*
X743111Y180991D01*
X743110Y180991D01*
X743029Y181063D01*
X742993Y181081D01*
X742961Y181106D01*
X742852Y181153D01*
X742746Y181207D01*
X742706Y181216D01*
X742669Y181232D01*
X742552Y181251D01*
X742436Y181277D01*
X742395Y181276D01*
X742355Y181282D01*
X742237Y181271D01*
X742118Y181267D01*
X742079Y181256D01*
X742039Y181252D01*
X741926Y181212D01*
X741812Y181179D01*
X741777Y181158D01*
X741739Y181145D01*
X741641Y181078D01*
X741538Y181017D01*
X741493Y180978D01*
X741476Y180966D01*
X741463Y180951D01*
X741417Y180911D01*
X741128Y180621D01*
X737152Y180621D01*
X734341Y183432D01*
X734341Y187408D01*
X737152Y190219D01*
X738688Y190219D01*
X738806Y190234D01*
X738925Y190241D01*
X738963Y190254D01*
X739004Y190259D01*
X739114Y190302D01*
X739227Y190339D01*
X739262Y190361D01*
X739299Y190376D01*
X739395Y190445D01*
X739496Y190509D01*
X739524Y190539D01*
X739557Y190562D01*
X739633Y190654D01*
X739714Y190741D01*
X739734Y190776D01*
X739759Y190807D01*
X739810Y190915D01*
X739868Y191019D01*
X739878Y191059D01*
X739895Y191095D01*
X739917Y191212D01*
X739947Y191327D01*
X739951Y191387D01*
X739955Y191407D01*
X739953Y191428D01*
X739957Y191488D01*
X739957Y193758D01*
X742768Y196569D01*
X743206Y196569D01*
X743324Y196584D01*
X743443Y196591D01*
X743481Y196604D01*
X743521Y196609D01*
X743632Y196652D01*
X743745Y196689D01*
X743779Y196711D01*
X743817Y196726D01*
X743913Y196795D01*
X744014Y196859D01*
X744041Y196889D01*
X744074Y196912D01*
X744150Y197004D01*
X744232Y197091D01*
X744251Y197126D01*
X744277Y197157D01*
X744328Y197265D01*
X744385Y197369D01*
X744395Y197409D01*
X744413Y197445D01*
X744435Y197562D01*
X744465Y197677D01*
X744468Y197737D01*
X744472Y197757D01*
X744471Y197778D01*
X744475Y197838D01*
X744475Y199937D01*
X747286Y202748D01*
X748554Y202748D01*
X748672Y202763D01*
X748791Y202771D01*
X748830Y202783D01*
X748870Y202788D01*
X748980Y202832D01*
X749094Y202869D01*
X749128Y202890D01*
X749165Y202905D01*
X749262Y202975D01*
X749362Y203039D01*
X749390Y203068D01*
X749423Y203092D01*
X749499Y203184D01*
X749580Y203270D01*
X749600Y203306D01*
X749626Y203337D01*
X749676Y203445D01*
X749734Y203549D01*
X749744Y203588D01*
X749761Y203625D01*
X749783Y203741D01*
X749813Y203857D01*
X749817Y203917D01*
X749821Y203937D01*
X749820Y203957D01*
X749823Y204018D01*
X749823Y205286D01*
X752634Y208097D01*
X756453Y208097D01*
X756552Y208109D01*
X756651Y208112D01*
X756709Y208129D01*
X756769Y208137D01*
X756861Y208173D01*
X756956Y208201D01*
X757008Y208231D01*
X757065Y208254D01*
X757145Y208312D01*
X757230Y208362D01*
X757306Y208429D01*
X757322Y208441D01*
X757330Y208450D01*
X757351Y208469D01*
X759703Y210821D01*
X763467Y210821D01*
X763605Y210838D01*
X763743Y210851D01*
X763762Y210858D01*
X763782Y210861D01*
X763911Y210912D01*
X764042Y210959D01*
X764059Y210970D01*
X764078Y210978D01*
X764190Y211059D01*
X764305Y211137D01*
X764319Y211153D01*
X764335Y211164D01*
X764424Y211272D01*
X764516Y211376D01*
X764525Y211394D01*
X764538Y211409D01*
X764597Y211535D01*
X764661Y211659D01*
X764665Y211679D01*
X764674Y211697D01*
X764700Y211834D01*
X764730Y211969D01*
X764730Y211990D01*
X764733Y212009D01*
X764725Y212148D01*
X764721Y212287D01*
X764715Y212307D01*
X764714Y212327D01*
X764671Y212459D01*
X764632Y212593D01*
X764622Y212610D01*
X764616Y212629D01*
X764541Y212747D01*
X764471Y212867D01*
X764452Y212888D01*
X764445Y212898D01*
X764430Y212912D01*
X764364Y212987D01*
X763241Y214111D01*
X763241Y217689D01*
X765770Y220219D01*
X769348Y220219D01*
X771600Y217967D01*
X771695Y217893D01*
X771784Y217815D01*
X771820Y217796D01*
X771852Y217772D01*
X771961Y217724D01*
X772067Y217670D01*
X772106Y217661D01*
X772143Y217645D01*
X772261Y217627D01*
X772377Y217601D01*
X772418Y217602D01*
X772458Y217595D01*
X772576Y217607D01*
X772695Y217610D01*
X772734Y217621D01*
X772774Y217625D01*
X772886Y217666D01*
X773001Y217699D01*
X773035Y217719D01*
X773073Y217733D01*
X773172Y217800D01*
X773274Y217860D01*
X773320Y217900D01*
X773337Y217911D01*
X773350Y217927D01*
X773395Y217967D01*
X774914Y219486D01*
X778492Y219486D01*
X781022Y216956D01*
X781022Y213378D01*
X778492Y210848D01*
X774914Y210848D01*
X772662Y213100D01*
X772568Y213173D01*
X772479Y213252D01*
X772443Y213270D01*
X772411Y213295D01*
X772301Y213343D01*
X772196Y213397D01*
X772156Y213405D01*
X772119Y213422D01*
X772001Y213440D01*
X771885Y213466D01*
X771845Y213465D01*
X771805Y213471D01*
X771686Y213460D01*
X771567Y213457D01*
X771529Y213445D01*
X771488Y213442D01*
X771376Y213401D01*
X771262Y213368D01*
X771227Y213348D01*
X771189Y213334D01*
X771090Y213267D01*
X770988Y213207D01*
X770943Y213167D01*
X770926Y213155D01*
X770912Y213140D01*
X770867Y213100D01*
X769348Y211581D01*
X765585Y211581D01*
X765447Y211564D01*
X765308Y211551D01*
X765289Y211544D01*
X765269Y211541D01*
X765140Y211490D01*
X765009Y211443D01*
X764992Y211432D01*
X764973Y211424D01*
X764861Y211343D01*
X764746Y211265D01*
X764732Y211249D01*
X764716Y211238D01*
X764627Y211130D01*
X764535Y211026D01*
X764526Y211008D01*
X764513Y210993D01*
X764454Y210867D01*
X764391Y210743D01*
X764386Y210723D01*
X764378Y210705D01*
X764352Y210568D01*
X764321Y210433D01*
X764322Y210412D01*
X764318Y210393D01*
X764327Y210254D01*
X764331Y210115D01*
X764336Y210095D01*
X764338Y210075D01*
X764380Y209943D01*
X764419Y209809D01*
X764429Y209792D01*
X764436Y209773D01*
X764510Y209655D01*
X764581Y209535D01*
X764599Y209514D01*
X764606Y209504D01*
X764621Y209490D01*
X764687Y209415D01*
X765811Y208291D01*
X765811Y204216D01*
X765826Y204098D01*
X765833Y203979D01*
X765846Y203941D01*
X765851Y203900D01*
X765894Y203790D01*
X765931Y203677D01*
X765953Y203642D01*
X765968Y203605D01*
X766037Y203509D01*
X766101Y203408D01*
X766131Y203380D01*
X766154Y203347D01*
X766246Y203271D01*
X766333Y203190D01*
X766368Y203170D01*
X766399Y203145D01*
X766507Y203094D01*
X766611Y203036D01*
X766651Y203026D01*
X766687Y203009D01*
X766804Y202987D01*
X766919Y202957D01*
X766979Y202953D01*
X766999Y202949D01*
X767020Y202951D01*
X767080Y202947D01*
X768615Y202947D01*
X771145Y200417D01*
X771145Y196839D01*
X768615Y194309D01*
X765037Y194309D01*
X762507Y196839D01*
X762507Y200914D01*
X762492Y201032D01*
X762485Y201151D01*
X762472Y201189D01*
X762467Y201230D01*
X762424Y201340D01*
X762387Y201453D01*
X762365Y201488D01*
X762350Y201525D01*
X762281Y201621D01*
X762217Y201722D01*
X762187Y201750D01*
X762164Y201783D01*
X762072Y201859D01*
X761985Y201940D01*
X761950Y201960D01*
X761919Y201985D01*
X761811Y202036D01*
X761707Y202094D01*
X761667Y202104D01*
X761631Y202121D01*
X761514Y202143D01*
X761399Y202173D01*
X761339Y202177D01*
X761319Y202181D01*
X761298Y202179D01*
X761238Y202183D01*
X760690Y202183D01*
X760572Y202168D01*
X760453Y202161D01*
X760415Y202148D01*
X760375Y202143D01*
X760264Y202100D01*
X760151Y202063D01*
X760117Y202041D01*
X760079Y202026D01*
X759983Y201957D01*
X759882Y201893D01*
X759854Y201863D01*
X759822Y201840D01*
X759746Y201748D01*
X759664Y201661D01*
X759645Y201626D01*
X759619Y201595D01*
X759568Y201487D01*
X759532Y201422D01*
X756610Y198499D01*
X755342Y198499D01*
X755223Y198484D01*
X755105Y198477D01*
X755066Y198465D01*
X755026Y198460D01*
X754915Y198416D01*
X754802Y198379D01*
X754768Y198357D01*
X754730Y198343D01*
X754634Y198273D01*
X754533Y198209D01*
X754506Y198179D01*
X754473Y198156D01*
X754397Y198064D01*
X754316Y197977D01*
X754296Y197942D01*
X754270Y197911D01*
X754220Y197803D01*
X754162Y197699D01*
X754152Y197660D01*
X754135Y197623D01*
X754112Y197506D01*
X754083Y197391D01*
X754079Y197331D01*
X754075Y197311D01*
X754076Y197290D01*
X754072Y197230D01*
X754072Y195962D01*
X751261Y193151D01*
X750824Y193151D01*
X750706Y193136D01*
X750587Y193128D01*
X750549Y193116D01*
X750508Y193111D01*
X750398Y193067D01*
X750285Y193030D01*
X750250Y193009D01*
X750213Y192994D01*
X750117Y192924D01*
X750016Y192860D01*
X749988Y192831D01*
X749955Y192807D01*
X749879Y192715D01*
X749798Y192629D01*
X749778Y192593D01*
X749753Y192562D01*
X749702Y192454D01*
X749644Y192350D01*
X749634Y192311D01*
X749617Y192274D01*
X749595Y192158D01*
X749565Y192042D01*
X749561Y191982D01*
X749557Y191962D01*
X749559Y191942D01*
X749555Y191882D01*
X749555Y189761D01*
X749480Y189676D01*
X749462Y189640D01*
X749437Y189608D01*
X749390Y189499D01*
X749336Y189393D01*
X749327Y189354D01*
X749311Y189316D01*
X749292Y189199D01*
X749266Y189083D01*
X749267Y189042D01*
X749261Y189002D01*
X749272Y188884D01*
X749276Y188765D01*
X749287Y188726D01*
X749291Y188686D01*
X749331Y188574D01*
X749364Y188459D01*
X749384Y188425D01*
X749398Y188386D01*
X749465Y188288D01*
X749526Y188185D01*
X749565Y188140D01*
X749577Y188123D01*
X749592Y188110D01*
X749632Y188065D01*
X751559Y186138D01*
X751559Y182162D01*
X748748Y179351D01*
X747459Y179351D01*
X747322Y179334D01*
X747183Y179321D01*
X747164Y179314D01*
X747144Y179311D01*
X747015Y179260D01*
X746884Y179213D01*
X746867Y179202D01*
X746848Y179194D01*
X746736Y179113D01*
X746621Y179035D01*
X746607Y179019D01*
X746591Y179008D01*
X746502Y178900D01*
X746410Y178796D01*
X746401Y178778D01*
X746388Y178763D01*
X746329Y178637D01*
X746266Y178513D01*
X746261Y178493D01*
X746253Y178475D01*
X746226Y178339D01*
X746196Y178203D01*
X746197Y178182D01*
X746193Y178163D01*
X746201Y178024D01*
X746206Y177885D01*
X746211Y177865D01*
X746213Y177845D01*
X746255Y177713D01*
X746294Y177579D01*
X746304Y177562D01*
X746311Y177543D01*
X746385Y177425D01*
X746456Y177305D01*
X746474Y177284D01*
X746481Y177274D01*
X746496Y177260D01*
X746562Y177185D01*
X749555Y174192D01*
X749555Y170216D01*
X746744Y167405D01*
X742768Y167405D01*
G37*
%LPD*%
%LPC*%
G36*
X556880Y142747D02*
X556880Y142747D01*
X555092Y143488D01*
X555025Y143506D01*
X554960Y143534D01*
X554872Y143548D01*
X554785Y143572D01*
X554715Y143573D01*
X554646Y143584D01*
X554557Y143575D01*
X554467Y143577D01*
X554399Y143561D01*
X554330Y143554D01*
X554245Y143524D01*
X554158Y143503D01*
X554096Y143470D01*
X554030Y143447D01*
X553956Y143396D01*
X553877Y143354D01*
X553825Y143307D01*
X553784Y143280D01*
X553784Y143286D01*
X553780Y143425D01*
X553774Y143445D01*
X553773Y143465D01*
X553730Y143597D01*
X553691Y143731D01*
X553681Y143748D01*
X553675Y143767D01*
X553600Y143885D01*
X553530Y144005D01*
X553511Y144026D01*
X553505Y144036D01*
X553490Y144050D01*
X553424Y144125D01*
X550617Y146932D01*
X549147Y150480D01*
X549147Y154320D01*
X550617Y157868D01*
X553332Y160583D01*
X556880Y162053D01*
X560720Y162053D01*
X564268Y160583D01*
X567075Y157776D01*
X567184Y157691D01*
X567291Y157603D01*
X567310Y157594D01*
X567326Y157582D01*
X567454Y157526D01*
X567579Y157467D01*
X567599Y157463D01*
X567618Y157455D01*
X567756Y157433D01*
X567892Y157407D01*
X567912Y157409D01*
X567932Y157405D01*
X568071Y157418D01*
X568209Y157427D01*
X568228Y157433D01*
X568248Y157435D01*
X568380Y157482D01*
X568511Y157525D01*
X568529Y157536D01*
X568548Y157543D01*
X568663Y157621D01*
X568780Y157695D01*
X568794Y157710D01*
X568811Y157721D01*
X568903Y157826D01*
X568998Y157927D01*
X569008Y157945D01*
X569021Y157960D01*
X569085Y158084D01*
X569152Y158205D01*
X569157Y158225D01*
X569166Y158243D01*
X569196Y158379D01*
X569231Y158513D01*
X569233Y158541D01*
X569236Y158553D01*
X569235Y158574D01*
X569241Y158674D01*
X569241Y159468D01*
X572052Y162279D01*
X576028Y162279D01*
X577223Y161083D01*
X577318Y161010D01*
X577407Y160931D01*
X577443Y160913D01*
X577475Y160888D01*
X577584Y160841D01*
X577690Y160787D01*
X577729Y160778D01*
X577767Y160762D01*
X577884Y160743D01*
X578000Y160717D01*
X578041Y160718D01*
X578081Y160712D01*
X578199Y160723D01*
X578318Y160727D01*
X578357Y160738D01*
X578397Y160742D01*
X578510Y160782D01*
X578624Y160815D01*
X578658Y160836D01*
X578697Y160849D01*
X578795Y160916D01*
X578898Y160977D01*
X578943Y161016D01*
X578960Y161028D01*
X578973Y161043D01*
X579018Y161083D01*
X580214Y162279D01*
X584190Y162279D01*
X587001Y159468D01*
X587001Y155492D01*
X584190Y152681D01*
X580214Y152681D01*
X579018Y153877D01*
X578924Y153950D01*
X578835Y154029D01*
X578799Y154047D01*
X578767Y154072D01*
X578658Y154119D01*
X578552Y154173D01*
X578513Y154182D01*
X578475Y154198D01*
X578358Y154217D01*
X578242Y154243D01*
X578201Y154242D01*
X578161Y154248D01*
X578043Y154237D01*
X577924Y154233D01*
X577885Y154222D01*
X577845Y154218D01*
X577733Y154178D01*
X577618Y154145D01*
X577583Y154124D01*
X577545Y154111D01*
X577447Y154044D01*
X577344Y153983D01*
X577299Y153944D01*
X577282Y153932D01*
X577269Y153917D01*
X577223Y153877D01*
X576028Y152681D01*
X572052Y152681D01*
X570619Y154114D01*
X570510Y154199D01*
X570403Y154288D01*
X570384Y154297D01*
X570368Y154309D01*
X570240Y154364D01*
X570115Y154424D01*
X570095Y154427D01*
X570076Y154435D01*
X569938Y154457D01*
X569802Y154483D01*
X569782Y154482D01*
X569762Y154485D01*
X569623Y154472D01*
X569485Y154464D01*
X569466Y154457D01*
X569446Y154455D01*
X569314Y154408D01*
X569183Y154366D01*
X569165Y154355D01*
X569146Y154348D01*
X569031Y154270D01*
X568914Y154195D01*
X568900Y154181D01*
X568883Y154169D01*
X568791Y154065D01*
X568696Y153964D01*
X568686Y153946D01*
X568673Y153931D01*
X568609Y153807D01*
X568542Y153685D01*
X568537Y153666D01*
X568528Y153648D01*
X568498Y153512D01*
X568463Y153377D01*
X568461Y153349D01*
X568458Y153337D01*
X568459Y153317D01*
X568453Y153217D01*
X568453Y150480D01*
X566983Y146932D01*
X564268Y144217D01*
X560720Y142747D01*
X556880Y142747D01*
G37*
%LPD*%
%LPC*%
G36*
X295192Y119661D02*
X295192Y119661D01*
X292381Y122472D01*
X292381Y126448D01*
X295192Y129259D01*
X299009Y129259D01*
X299059Y129265D01*
X299108Y129263D01*
X299216Y129285D01*
X299325Y129299D01*
X299371Y129317D01*
X299420Y129327D01*
X299518Y129375D01*
X299620Y129416D01*
X299661Y129445D01*
X299705Y129467D01*
X299789Y129538D01*
X299878Y129602D01*
X299909Y129641D01*
X299947Y129673D01*
X300010Y129763D01*
X300081Y129847D01*
X300102Y129892D01*
X300130Y129933D01*
X300169Y130036D01*
X300216Y130135D01*
X300225Y130184D01*
X300243Y130230D01*
X300255Y130340D01*
X300276Y130447D01*
X300273Y130497D01*
X300278Y130546D01*
X300263Y130655D01*
X300256Y130765D01*
X300241Y130812D01*
X300234Y130861D01*
X300182Y131014D01*
X298957Y133970D01*
X298957Y137810D01*
X300427Y141358D01*
X303142Y144073D01*
X306690Y145543D01*
X310530Y145543D01*
X314078Y144073D01*
X316793Y141358D01*
X318263Y137810D01*
X318263Y133970D01*
X316793Y130422D01*
X314078Y127707D01*
X310530Y126237D01*
X306690Y126237D01*
X303734Y127462D01*
X303686Y127475D01*
X303641Y127496D01*
X303533Y127517D01*
X303427Y127546D01*
X303377Y127547D01*
X303328Y127556D01*
X303219Y127549D01*
X303109Y127551D01*
X303061Y127539D01*
X303011Y127536D01*
X302907Y127502D01*
X302800Y127477D01*
X302756Y127453D01*
X302709Y127438D01*
X302616Y127379D01*
X302519Y127328D01*
X302482Y127295D01*
X302440Y127268D01*
X302365Y127188D01*
X302283Y127114D01*
X302256Y127072D01*
X302222Y127036D01*
X302169Y126940D01*
X302109Y126848D01*
X302092Y126801D01*
X302068Y126758D01*
X302041Y126652D01*
X302005Y126547D01*
X302001Y126498D01*
X301989Y126450D01*
X301979Y126289D01*
X301979Y122472D01*
X299168Y119661D01*
X295192Y119661D01*
G37*
%LPD*%
%LPC*%
G36*
X1294146Y175541D02*
X1294146Y175541D01*
X1291335Y178352D01*
X1291335Y182328D01*
X1294146Y185139D01*
X1296537Y185139D01*
X1296587Y185145D01*
X1296636Y185143D01*
X1296744Y185165D01*
X1296853Y185179D01*
X1296899Y185197D01*
X1296948Y185207D01*
X1297046Y185255D01*
X1297149Y185296D01*
X1297189Y185325D01*
X1297233Y185347D01*
X1297317Y185418D01*
X1297406Y185482D01*
X1297438Y185521D01*
X1297475Y185553D01*
X1297539Y185643D01*
X1297609Y185727D01*
X1297630Y185772D01*
X1297659Y185813D01*
X1297698Y185916D01*
X1297744Y186015D01*
X1297754Y186064D01*
X1297771Y186110D01*
X1297783Y186220D01*
X1297804Y186327D01*
X1297801Y186377D01*
X1297807Y186426D01*
X1297791Y186535D01*
X1297784Y186645D01*
X1297769Y186692D01*
X1297762Y186741D01*
X1297710Y186894D01*
X1297177Y188180D01*
X1297177Y192020D01*
X1298647Y195568D01*
X1301362Y198283D01*
X1304910Y199753D01*
X1308750Y199753D01*
X1312298Y198283D01*
X1315013Y195568D01*
X1316483Y192020D01*
X1316483Y188180D01*
X1315013Y184632D01*
X1312298Y181917D01*
X1308750Y180447D01*
X1304910Y180447D01*
X1302688Y181368D01*
X1302640Y181381D01*
X1302595Y181402D01*
X1302487Y181423D01*
X1302381Y181452D01*
X1302331Y181452D01*
X1302282Y181462D01*
X1302173Y181455D01*
X1302063Y181457D01*
X1302015Y181445D01*
X1301965Y181442D01*
X1301861Y181408D01*
X1301754Y181383D01*
X1301710Y181359D01*
X1301663Y181344D01*
X1301570Y181285D01*
X1301473Y181234D01*
X1301436Y181200D01*
X1301394Y181174D01*
X1301319Y181094D01*
X1301237Y181020D01*
X1301210Y180978D01*
X1301176Y180942D01*
X1301123Y180846D01*
X1301063Y180754D01*
X1301046Y180707D01*
X1301022Y180664D01*
X1300995Y180557D01*
X1300959Y180453D01*
X1300955Y180404D01*
X1300943Y180356D01*
X1300933Y180195D01*
X1300933Y178352D01*
X1298122Y175541D01*
X1294146Y175541D01*
G37*
%LPD*%
%LPC*%
G36*
X452672Y305081D02*
X452672Y305081D01*
X449861Y307892D01*
X449861Y310041D01*
X449855Y310090D01*
X449857Y310140D01*
X449835Y310247D01*
X449821Y310356D01*
X449803Y310403D01*
X449793Y310451D01*
X449745Y310550D01*
X449704Y310652D01*
X449675Y310692D01*
X449653Y310737D01*
X449582Y310820D01*
X449518Y310909D01*
X449479Y310941D01*
X449447Y310979D01*
X449357Y311042D01*
X449273Y311112D01*
X449228Y311133D01*
X449187Y311162D01*
X449084Y311201D01*
X448985Y311248D01*
X448936Y311257D01*
X448890Y311275D01*
X448780Y311287D01*
X448673Y311308D01*
X448623Y311304D01*
X448574Y311310D01*
X448465Y311295D01*
X448355Y311288D01*
X448308Y311272D01*
X448259Y311266D01*
X448106Y311213D01*
X446725Y310641D01*
X442885Y310641D01*
X439337Y312111D01*
X436622Y314826D01*
X435152Y318374D01*
X435152Y322214D01*
X436622Y325762D01*
X439337Y328477D01*
X442885Y329947D01*
X446725Y329947D01*
X450273Y328477D01*
X452988Y325762D01*
X454458Y322214D01*
X454458Y318374D01*
X453654Y316434D01*
X453641Y316386D01*
X453620Y316341D01*
X453599Y316233D01*
X453570Y316127D01*
X453569Y316077D01*
X453560Y316028D01*
X453567Y315919D01*
X453565Y315809D01*
X453576Y315761D01*
X453580Y315711D01*
X453613Y315607D01*
X453639Y315500D01*
X453662Y315456D01*
X453678Y315409D01*
X453736Y315316D01*
X453788Y315219D01*
X453821Y315182D01*
X453848Y315140D01*
X453928Y315065D01*
X454002Y314983D01*
X454043Y314956D01*
X454079Y314922D01*
X454176Y314869D01*
X454267Y314809D01*
X454314Y314792D01*
X454358Y314768D01*
X454464Y314741D01*
X454568Y314705D01*
X454618Y314701D01*
X454666Y314689D01*
X454826Y314679D01*
X456648Y314679D01*
X459459Y311868D01*
X459459Y307892D01*
X456648Y305081D01*
X452672Y305081D01*
G37*
%LPD*%
%LPC*%
G36*
X683880Y235457D02*
X683880Y235457D01*
X680332Y236927D01*
X677617Y239642D01*
X676147Y243190D01*
X676147Y247030D01*
X677617Y250578D01*
X680332Y253293D01*
X683880Y254763D01*
X687352Y254763D01*
X687470Y254778D01*
X687589Y254785D01*
X687627Y254798D01*
X687668Y254803D01*
X687778Y254846D01*
X687891Y254883D01*
X687926Y254905D01*
X687963Y254920D01*
X688059Y254989D01*
X688160Y255053D01*
X688188Y255083D01*
X688221Y255106D01*
X688297Y255198D01*
X688378Y255285D01*
X688398Y255320D01*
X688423Y255351D01*
X688474Y255459D01*
X688532Y255563D01*
X688542Y255603D01*
X688559Y255639D01*
X688581Y255756D01*
X688611Y255871D01*
X688615Y255931D01*
X688619Y255951D01*
X688617Y255972D01*
X688621Y256032D01*
X688621Y258528D01*
X691432Y261339D01*
X695408Y261339D01*
X698219Y258528D01*
X698219Y254552D01*
X695408Y251741D01*
X695401Y251741D01*
X695351Y251735D01*
X695302Y251737D01*
X695194Y251715D01*
X695085Y251701D01*
X695039Y251683D01*
X694990Y251673D01*
X694892Y251625D01*
X694790Y251584D01*
X694749Y251555D01*
X694705Y251533D01*
X694621Y251462D01*
X694532Y251398D01*
X694501Y251359D01*
X694463Y251327D01*
X694400Y251237D01*
X694329Y251153D01*
X694308Y251108D01*
X694280Y251067D01*
X694241Y250964D01*
X694194Y250865D01*
X694185Y250816D01*
X694167Y250770D01*
X694155Y250660D01*
X694134Y250553D01*
X694137Y250503D01*
X694132Y250454D01*
X694147Y250345D01*
X694154Y250235D01*
X694169Y250188D01*
X694176Y250139D01*
X694228Y249986D01*
X695453Y247030D01*
X695453Y243190D01*
X693983Y239642D01*
X691268Y236927D01*
X687720Y235457D01*
X683880Y235457D01*
G37*
%LPD*%
%LPC*%
G36*
X28738Y141595D02*
X28738Y141595D01*
X24911Y143181D01*
X21981Y146111D01*
X20395Y149938D01*
X20395Y154082D01*
X21981Y157909D01*
X24911Y160839D01*
X28738Y162425D01*
X32882Y162425D01*
X36709Y160839D01*
X39639Y157909D01*
X41225Y154082D01*
X41225Y149938D01*
X39639Y146111D01*
X36709Y143181D01*
X32882Y141595D01*
X28738Y141595D01*
G37*
%LPD*%
%LPC*%
G36*
X28738Y251595D02*
X28738Y251595D01*
X24911Y253181D01*
X21981Y256111D01*
X20395Y259938D01*
X20395Y264082D01*
X21981Y267909D01*
X24911Y270839D01*
X28738Y272425D01*
X32882Y272425D01*
X36709Y270839D01*
X39639Y267909D01*
X41225Y264082D01*
X41225Y259938D01*
X39639Y256111D01*
X36709Y253181D01*
X32882Y251595D01*
X28738Y251595D01*
G37*
%LPD*%
%LPC*%
G36*
X518712Y193321D02*
X518712Y193321D01*
X515901Y196132D01*
X515901Y200108D01*
X518712Y202919D01*
X522604Y202919D01*
X522742Y202936D01*
X522880Y202949D01*
X522899Y202956D01*
X522919Y202959D01*
X523048Y203010D01*
X523179Y203057D01*
X523196Y203068D01*
X523215Y203076D01*
X523327Y203157D01*
X523442Y203235D01*
X523456Y203251D01*
X523472Y203262D01*
X523561Y203370D01*
X523653Y203474D01*
X523662Y203492D01*
X523675Y203507D01*
X523734Y203633D01*
X523798Y203757D01*
X523802Y203777D01*
X523811Y203795D01*
X523837Y203931D01*
X523867Y204067D01*
X523867Y204088D01*
X523870Y204107D01*
X523862Y204246D01*
X523857Y204385D01*
X523852Y204405D01*
X523851Y204425D01*
X523808Y204557D01*
X523769Y204691D01*
X523759Y204708D01*
X523753Y204727D01*
X523678Y204845D01*
X523607Y204965D01*
X523589Y204986D01*
X523582Y204996D01*
X523567Y205010D01*
X523501Y205086D01*
X523323Y205264D01*
X521969Y208531D01*
X521969Y212069D01*
X523323Y215336D01*
X525824Y217837D01*
X529091Y219191D01*
X532629Y219191D01*
X535896Y217837D01*
X538397Y215336D01*
X539751Y212069D01*
X539751Y208531D01*
X538397Y205264D01*
X535896Y202763D01*
X532629Y201409D01*
X529091Y201409D01*
X526632Y202428D01*
X526564Y202447D01*
X526500Y202474D01*
X526411Y202488D01*
X526325Y202512D01*
X526255Y202513D01*
X526186Y202524D01*
X526097Y202516D01*
X526007Y202517D01*
X525939Y202501D01*
X525869Y202494D01*
X525785Y202464D01*
X525698Y202443D01*
X525636Y202410D01*
X525570Y202387D01*
X525496Y202336D01*
X525416Y202294D01*
X525365Y202247D01*
X525307Y202208D01*
X525248Y202141D01*
X525181Y202080D01*
X525143Y202022D01*
X525097Y201970D01*
X525056Y201890D01*
X525006Y201815D01*
X524984Y201749D01*
X524952Y201687D01*
X524932Y201599D01*
X524903Y201514D01*
X524898Y201444D01*
X524882Y201376D01*
X524885Y201286D01*
X524878Y201197D01*
X524890Y201128D01*
X524892Y201058D01*
X524917Y200972D01*
X524932Y200884D01*
X524961Y200820D01*
X524980Y200753D01*
X525026Y200675D01*
X525063Y200594D01*
X525106Y200539D01*
X525142Y200479D01*
X525248Y200358D01*
X525499Y200108D01*
X525499Y196132D01*
X522688Y193321D01*
X518712Y193321D01*
G37*
%LPD*%
%LPC*%
G36*
X572108Y108485D02*
X572108Y108485D01*
X569297Y111296D01*
X569297Y115272D01*
X572226Y118200D01*
X572299Y118295D01*
X572378Y118384D01*
X572396Y118420D01*
X572421Y118452D01*
X572468Y118561D01*
X572522Y118667D01*
X572531Y118706D01*
X572547Y118744D01*
X572566Y118861D01*
X572592Y118977D01*
X572591Y119018D01*
X572597Y119058D01*
X572586Y119176D01*
X572582Y119295D01*
X572571Y119334D01*
X572567Y119374D01*
X572527Y119487D01*
X572494Y119601D01*
X572473Y119635D01*
X572460Y119674D01*
X572393Y119772D01*
X572332Y119875D01*
X572293Y119920D01*
X572281Y119937D01*
X572266Y119950D01*
X572226Y119995D01*
X569241Y122980D01*
X569241Y126956D01*
X572052Y129767D01*
X576028Y129767D01*
X576952Y128842D01*
X577047Y128769D01*
X577136Y128690D01*
X577172Y128672D01*
X577204Y128647D01*
X577313Y128600D01*
X577419Y128546D01*
X577458Y128537D01*
X577496Y128521D01*
X577613Y128502D01*
X577729Y128476D01*
X577770Y128477D01*
X577810Y128471D01*
X577928Y128482D01*
X578047Y128486D01*
X578086Y128497D01*
X578126Y128501D01*
X578239Y128541D01*
X578353Y128574D01*
X578387Y128595D01*
X578426Y128608D01*
X578524Y128675D01*
X578627Y128736D01*
X578672Y128775D01*
X578689Y128787D01*
X578702Y128802D01*
X578747Y128842D01*
X579926Y130021D01*
X583902Y130021D01*
X586713Y127210D01*
X586713Y123234D01*
X583629Y120150D01*
X583556Y120056D01*
X583477Y119967D01*
X583459Y119931D01*
X583434Y119899D01*
X583387Y119790D01*
X583333Y119684D01*
X583324Y119645D01*
X583308Y119607D01*
X583289Y119490D01*
X583263Y119374D01*
X583264Y119333D01*
X583258Y119293D01*
X583269Y119175D01*
X583273Y119056D01*
X583284Y119017D01*
X583288Y118977D01*
X583328Y118864D01*
X583361Y118750D01*
X583381Y118715D01*
X583395Y118677D01*
X583462Y118579D01*
X583523Y118476D01*
X583562Y118431D01*
X583574Y118414D01*
X583589Y118401D01*
X583629Y118355D01*
X586713Y115272D01*
X586713Y111296D01*
X583902Y108485D01*
X579926Y108485D01*
X578902Y109509D01*
X578808Y109582D01*
X578719Y109661D01*
X578683Y109679D01*
X578651Y109704D01*
X578542Y109751D01*
X578436Y109805D01*
X578397Y109814D01*
X578359Y109830D01*
X578242Y109849D01*
X578126Y109875D01*
X578085Y109874D01*
X578045Y109880D01*
X577927Y109869D01*
X577808Y109865D01*
X577769Y109854D01*
X577729Y109850D01*
X577617Y109810D01*
X577502Y109777D01*
X577467Y109756D01*
X577429Y109743D01*
X577331Y109676D01*
X577228Y109615D01*
X577183Y109576D01*
X577166Y109564D01*
X577153Y109549D01*
X577107Y109509D01*
X576084Y108485D01*
X572108Y108485D01*
G37*
%LPD*%
%LPC*%
G36*
X1306180Y41147D02*
X1306180Y41147D01*
X1302632Y42617D01*
X1299917Y45332D01*
X1298447Y48880D01*
X1298447Y52720D01*
X1299917Y56268D01*
X1302632Y58983D01*
X1306180Y60453D01*
X1310020Y60453D01*
X1313568Y58983D01*
X1316283Y56268D01*
X1317753Y52720D01*
X1317753Y48880D01*
X1316283Y45332D01*
X1313568Y42617D01*
X1310020Y41147D01*
X1306180Y41147D01*
G37*
%LPD*%
%LPC*%
G36*
X556880Y61068D02*
X556880Y61068D01*
X553332Y62538D01*
X550617Y65253D01*
X549147Y68801D01*
X549147Y72641D01*
X550617Y76189D01*
X553332Y78904D01*
X556880Y80374D01*
X560720Y80374D01*
X564268Y78904D01*
X566983Y76189D01*
X568453Y72641D01*
X568453Y68801D01*
X566983Y65253D01*
X564268Y62538D01*
X560720Y61068D01*
X556880Y61068D01*
G37*
%LPD*%
%LPC*%
G36*
X1306180Y66147D02*
X1306180Y66147D01*
X1302632Y67617D01*
X1299917Y70332D01*
X1298447Y73880D01*
X1298447Y77720D01*
X1299917Y81268D01*
X1302632Y83983D01*
X1306180Y85453D01*
X1310020Y85453D01*
X1313568Y83983D01*
X1316283Y81268D01*
X1317753Y77720D01*
X1317753Y73880D01*
X1316283Y70332D01*
X1313568Y67617D01*
X1310020Y66147D01*
X1306180Y66147D01*
G37*
%LPD*%
%LPC*%
G36*
X747380Y69087D02*
X747380Y69087D01*
X743832Y70557D01*
X741117Y73272D01*
X739647Y76820D01*
X739647Y80660D01*
X741117Y84208D01*
X743832Y86923D01*
X747380Y88393D01*
X751220Y88393D01*
X754768Y86923D01*
X757483Y84208D01*
X758953Y80660D01*
X758953Y76820D01*
X757483Y73272D01*
X754768Y70557D01*
X751220Y69087D01*
X747380Y69087D01*
G37*
%LPD*%
%LPC*%
G36*
X721980Y69087D02*
X721980Y69087D01*
X718432Y70557D01*
X715717Y73272D01*
X714247Y76820D01*
X714247Y80660D01*
X715717Y84208D01*
X718432Y86923D01*
X721980Y88393D01*
X725820Y88393D01*
X729368Y86923D01*
X732083Y84208D01*
X733553Y80660D01*
X733553Y76820D01*
X732083Y73272D01*
X729368Y70557D01*
X725820Y69087D01*
X721980Y69087D01*
G37*
%LPD*%
%LPC*%
G36*
X306690Y101237D02*
X306690Y101237D01*
X303142Y102707D01*
X300427Y105422D01*
X298957Y108970D01*
X298957Y112810D01*
X300427Y116358D01*
X303142Y119073D01*
X306690Y120543D01*
X310530Y120543D01*
X314078Y119073D01*
X316793Y116358D01*
X318263Y112810D01*
X318263Y108970D01*
X316793Y105422D01*
X314078Y102707D01*
X310530Y101237D01*
X306690Y101237D01*
G37*
%LPD*%
%LPC*%
G36*
X683880Y311657D02*
X683880Y311657D01*
X680332Y313127D01*
X677617Y315842D01*
X676147Y319390D01*
X676147Y323230D01*
X677617Y326778D01*
X680332Y329493D01*
X683880Y330963D01*
X687720Y330963D01*
X691268Y329493D01*
X693983Y326778D01*
X695453Y323230D01*
X695453Y319390D01*
X693983Y315842D01*
X691268Y313127D01*
X687720Y311657D01*
X683880Y311657D01*
G37*
%LPD*%
%LPC*%
G36*
X658480Y311657D02*
X658480Y311657D01*
X654932Y313127D01*
X652217Y315842D01*
X650747Y319390D01*
X650747Y323230D01*
X652217Y326778D01*
X654932Y329493D01*
X658480Y330963D01*
X662320Y330963D01*
X665868Y329493D01*
X668583Y326778D01*
X670053Y323230D01*
X670053Y319390D01*
X668583Y315842D01*
X665868Y313127D01*
X662320Y311657D01*
X658480Y311657D01*
G37*
%LPD*%
%LPC*%
G36*
X633080Y311657D02*
X633080Y311657D01*
X629532Y313127D01*
X626817Y315842D01*
X625347Y319390D01*
X625347Y323230D01*
X626817Y326778D01*
X629532Y329493D01*
X633080Y330963D01*
X636920Y330963D01*
X640468Y329493D01*
X643183Y326778D01*
X644653Y323230D01*
X644653Y319390D01*
X643183Y315842D01*
X640468Y313127D01*
X636920Y311657D01*
X633080Y311657D01*
G37*
%LPD*%
%LPC*%
G36*
X607680Y311657D02*
X607680Y311657D01*
X604132Y313127D01*
X601417Y315842D01*
X599947Y319390D01*
X599947Y323230D01*
X601417Y326778D01*
X604132Y329493D01*
X607680Y330963D01*
X611520Y330963D01*
X615068Y329493D01*
X617783Y326778D01*
X619253Y323230D01*
X619253Y319390D01*
X617783Y315842D01*
X615068Y313127D01*
X611520Y311657D01*
X607680Y311657D01*
G37*
%LPD*%
%LPC*%
G36*
X836280Y310387D02*
X836280Y310387D01*
X832732Y311857D01*
X830017Y314572D01*
X828547Y318120D01*
X828547Y321960D01*
X830017Y325508D01*
X832732Y328223D01*
X836280Y329693D01*
X840120Y329693D01*
X843668Y328223D01*
X846383Y325508D01*
X847853Y321960D01*
X847853Y318120D01*
X846383Y314572D01*
X843668Y311857D01*
X840120Y310387D01*
X836280Y310387D01*
G37*
%LPD*%
%LPC*%
G36*
X810880Y310387D02*
X810880Y310387D01*
X807332Y311857D01*
X804617Y314572D01*
X803147Y318120D01*
X803147Y321960D01*
X804617Y325508D01*
X807332Y328223D01*
X810880Y329693D01*
X814720Y329693D01*
X818268Y328223D01*
X820983Y325508D01*
X822453Y321960D01*
X822453Y318120D01*
X820983Y314572D01*
X818268Y311857D01*
X814720Y310387D01*
X810880Y310387D01*
G37*
%LPD*%
%LPC*%
G36*
X785480Y310387D02*
X785480Y310387D01*
X781932Y311857D01*
X779217Y314572D01*
X777747Y318120D01*
X777747Y321960D01*
X779217Y325508D01*
X781932Y328223D01*
X785480Y329693D01*
X789320Y329693D01*
X792868Y328223D01*
X795583Y325508D01*
X797053Y321960D01*
X797053Y318120D01*
X795583Y314572D01*
X792868Y311857D01*
X789320Y310387D01*
X785480Y310387D01*
G37*
%LPD*%
%LPC*%
G36*
X760080Y310387D02*
X760080Y310387D01*
X756532Y311857D01*
X753817Y314572D01*
X752347Y318120D01*
X752347Y321960D01*
X753817Y325508D01*
X756532Y328223D01*
X760080Y329693D01*
X763920Y329693D01*
X767468Y328223D01*
X770183Y325508D01*
X771653Y321960D01*
X771653Y318120D01*
X770183Y314572D01*
X767468Y311857D01*
X763920Y310387D01*
X760080Y310387D01*
G37*
%LPD*%
%LPC*%
G36*
X734680Y310387D02*
X734680Y310387D01*
X731132Y311857D01*
X728417Y314572D01*
X726947Y318120D01*
X726947Y321960D01*
X728417Y325508D01*
X731132Y328223D01*
X734680Y329693D01*
X738520Y329693D01*
X742068Y328223D01*
X744783Y325508D01*
X746253Y321960D01*
X746253Y318120D01*
X744783Y314572D01*
X742068Y311857D01*
X738520Y310387D01*
X734680Y310387D01*
G37*
%LPD*%
%LPC*%
G36*
X1304910Y155447D02*
X1304910Y155447D01*
X1301362Y156917D01*
X1298647Y159632D01*
X1297177Y163180D01*
X1297177Y167020D01*
X1298647Y170568D01*
X1301362Y173283D01*
X1304910Y174753D01*
X1308750Y174753D01*
X1312298Y173283D01*
X1315013Y170568D01*
X1316483Y167020D01*
X1316483Y163180D01*
X1315013Y159632D01*
X1312298Y156917D01*
X1308750Y155447D01*
X1304910Y155447D01*
G37*
%LPD*%
%LPC*%
G36*
X620380Y18287D02*
X620380Y18287D01*
X616832Y19757D01*
X614117Y22472D01*
X612647Y26020D01*
X612647Y29860D01*
X614117Y33408D01*
X616832Y36123D01*
X620380Y37593D01*
X624220Y37593D01*
X627768Y36123D01*
X630483Y33408D01*
X631953Y29860D01*
X631953Y26020D01*
X630483Y22472D01*
X627768Y19757D01*
X624220Y18287D01*
X620380Y18287D01*
G37*
%LPD*%
%LPC*%
G36*
X645780Y18287D02*
X645780Y18287D01*
X642232Y19757D01*
X639517Y22472D01*
X638047Y26020D01*
X638047Y29860D01*
X639517Y33408D01*
X642232Y36123D01*
X645780Y37593D01*
X649620Y37593D01*
X653168Y36123D01*
X655883Y33408D01*
X657353Y29860D01*
X657353Y26020D01*
X655883Y22472D01*
X653168Y19757D01*
X649620Y18287D01*
X645780Y18287D01*
G37*
%LPD*%
%LPC*%
G36*
X671180Y18287D02*
X671180Y18287D01*
X667632Y19757D01*
X664917Y22472D01*
X663447Y26020D01*
X663447Y29860D01*
X664917Y33408D01*
X667632Y36123D01*
X671180Y37593D01*
X675020Y37593D01*
X678568Y36123D01*
X681283Y33408D01*
X682753Y29860D01*
X682753Y26020D01*
X681283Y22472D01*
X678568Y19757D01*
X675020Y18287D01*
X671180Y18287D01*
G37*
%LPD*%
%LPC*%
G36*
X696580Y18287D02*
X696580Y18287D01*
X693032Y19757D01*
X690317Y22472D01*
X688847Y26020D01*
X688847Y29860D01*
X690317Y33408D01*
X693032Y36123D01*
X696580Y37593D01*
X700420Y37593D01*
X703968Y36123D01*
X706683Y33408D01*
X708153Y29860D01*
X708153Y26020D01*
X706683Y22472D01*
X703968Y19757D01*
X700420Y18287D01*
X696580Y18287D01*
G37*
%LPD*%
%LPC*%
G36*
X1304910Y294747D02*
X1304910Y294747D01*
X1301362Y296217D01*
X1298647Y298932D01*
X1297177Y302480D01*
X1297177Y306320D01*
X1298647Y309868D01*
X1301362Y312583D01*
X1304910Y314053D01*
X1308750Y314053D01*
X1312298Y312583D01*
X1315013Y309868D01*
X1316483Y306320D01*
X1316483Y302480D01*
X1315013Y298932D01*
X1312298Y296217D01*
X1308750Y294747D01*
X1304910Y294747D01*
G37*
%LPD*%
%LPC*%
G36*
X721980Y18287D02*
X721980Y18287D01*
X718432Y19757D01*
X715717Y22472D01*
X714247Y26020D01*
X714247Y29860D01*
X715717Y33408D01*
X718432Y36123D01*
X721980Y37593D01*
X725820Y37593D01*
X729368Y36123D01*
X732083Y33408D01*
X733553Y29860D01*
X733553Y26020D01*
X732083Y22472D01*
X729368Y19757D01*
X725820Y18287D01*
X721980Y18287D01*
G37*
%LPD*%
%LPC*%
G36*
X747380Y18287D02*
X747380Y18287D01*
X743832Y19757D01*
X741117Y22472D01*
X739647Y26020D01*
X739647Y29860D01*
X741117Y33408D01*
X743832Y36123D01*
X747380Y37593D01*
X751220Y37593D01*
X754768Y36123D01*
X757483Y33408D01*
X758953Y29860D01*
X758953Y26020D01*
X757483Y22472D01*
X754768Y19757D01*
X751220Y18287D01*
X747380Y18287D01*
G37*
%LPD*%
%LPC*%
G36*
X440040Y23367D02*
X440040Y23367D01*
X436492Y24837D01*
X433777Y27552D01*
X432307Y31100D01*
X432307Y34940D01*
X433777Y38488D01*
X436492Y41203D01*
X440040Y42673D01*
X443880Y42673D01*
X447428Y41203D01*
X450143Y38488D01*
X451613Y34940D01*
X451613Y31100D01*
X450143Y27552D01*
X447428Y24837D01*
X443880Y23367D01*
X440040Y23367D01*
G37*
%LPD*%
%LPC*%
G36*
X1304910Y269747D02*
X1304910Y269747D01*
X1301362Y271217D01*
X1298647Y273932D01*
X1297177Y277480D01*
X1297177Y281320D01*
X1298647Y284868D01*
X1301362Y287583D01*
X1304910Y289053D01*
X1308750Y289053D01*
X1312298Y287583D01*
X1315013Y284868D01*
X1316483Y281320D01*
X1316483Y277480D01*
X1315013Y273932D01*
X1312298Y271217D01*
X1308750Y269747D01*
X1304910Y269747D01*
G37*
%LPD*%
%LPC*%
G36*
X556880Y36067D02*
X556880Y36067D01*
X553332Y37537D01*
X550617Y40252D01*
X549147Y43800D01*
X549147Y47640D01*
X550617Y51188D01*
X553332Y53903D01*
X556880Y55373D01*
X560720Y55373D01*
X564268Y53903D01*
X566983Y51188D01*
X568453Y47640D01*
X568453Y43800D01*
X566983Y40252D01*
X564268Y37537D01*
X560720Y36067D01*
X556880Y36067D01*
G37*
%LPD*%
%LPC*%
G36*
X556880Y274428D02*
X556880Y274428D01*
X553332Y275898D01*
X550617Y278613D01*
X549147Y282161D01*
X549147Y286001D01*
X550617Y289549D01*
X553332Y292264D01*
X556880Y293734D01*
X560720Y293734D01*
X564268Y292264D01*
X566983Y289549D01*
X568453Y286001D01*
X568453Y282161D01*
X566983Y278613D01*
X564268Y275898D01*
X560720Y274428D01*
X556880Y274428D01*
G37*
%LPD*%
%LPC*%
G36*
X620380Y43687D02*
X620380Y43687D01*
X616832Y45157D01*
X614117Y47872D01*
X612647Y51420D01*
X612647Y55260D01*
X614117Y58808D01*
X616832Y61523D01*
X620380Y62993D01*
X624220Y62993D01*
X627768Y61523D01*
X630483Y58808D01*
X631953Y55260D01*
X631953Y51420D01*
X630483Y47872D01*
X627768Y45157D01*
X624220Y43687D01*
X620380Y43687D01*
G37*
%LPD*%
%LPC*%
G36*
X645780Y43687D02*
X645780Y43687D01*
X642232Y45157D01*
X639517Y47872D01*
X638047Y51420D01*
X638047Y55260D01*
X639517Y58808D01*
X642232Y61523D01*
X645780Y62993D01*
X649620Y62993D01*
X653168Y61523D01*
X655883Y58808D01*
X657353Y55260D01*
X657353Y51420D01*
X655883Y47872D01*
X653168Y45157D01*
X649620Y43687D01*
X645780Y43687D01*
G37*
%LPD*%
%LPC*%
G36*
X671180Y43687D02*
X671180Y43687D01*
X667632Y45157D01*
X664917Y47872D01*
X663447Y51420D01*
X663447Y55260D01*
X664917Y58808D01*
X667632Y61523D01*
X671180Y62993D01*
X675020Y62993D01*
X678568Y61523D01*
X681283Y58808D01*
X682753Y55260D01*
X682753Y51420D01*
X681283Y47872D01*
X678568Y45157D01*
X675020Y43687D01*
X671180Y43687D01*
G37*
%LPD*%
%LPC*%
G36*
X556880Y167748D02*
X556880Y167748D01*
X553332Y169218D01*
X550617Y171933D01*
X549147Y175481D01*
X549147Y179321D01*
X550617Y182869D01*
X553332Y185584D01*
X556880Y187054D01*
X560720Y187054D01*
X564268Y185584D01*
X566983Y182869D01*
X568453Y179321D01*
X568453Y175481D01*
X566983Y171933D01*
X564268Y169218D01*
X560720Y167748D01*
X556880Y167748D01*
G37*
%LPD*%
%LPC*%
G36*
X556880Y249427D02*
X556880Y249427D01*
X553332Y250897D01*
X550617Y253612D01*
X549147Y257160D01*
X549147Y261000D01*
X550617Y264548D01*
X553332Y267263D01*
X556880Y268733D01*
X560720Y268733D01*
X564268Y267263D01*
X566983Y264548D01*
X568453Y261000D01*
X568453Y257160D01*
X566983Y253612D01*
X564268Y250897D01*
X560720Y249427D01*
X556880Y249427D01*
G37*
%LPD*%
%LPC*%
G36*
X696580Y43687D02*
X696580Y43687D01*
X693032Y45157D01*
X690317Y47872D01*
X688847Y51420D01*
X688847Y55260D01*
X690317Y58808D01*
X693032Y61523D01*
X696580Y62993D01*
X700420Y62993D01*
X703968Y61523D01*
X706683Y58808D01*
X708153Y55260D01*
X708153Y51420D01*
X706683Y47872D01*
X703968Y45157D01*
X700420Y43687D01*
X696580Y43687D01*
G37*
%LPD*%
%LPC*%
G36*
X443850Y178307D02*
X443850Y178307D01*
X440302Y179777D01*
X437587Y182492D01*
X436117Y186040D01*
X436117Y189880D01*
X437587Y193428D01*
X440302Y196143D01*
X443850Y197613D01*
X447690Y197613D01*
X451238Y196143D01*
X453953Y193428D01*
X455423Y189880D01*
X455423Y186040D01*
X453953Y182492D01*
X451238Y179777D01*
X447690Y178307D01*
X443850Y178307D01*
G37*
%LPD*%
%LPC*%
G36*
X721980Y43687D02*
X721980Y43687D01*
X718432Y45157D01*
X715717Y47872D01*
X714247Y51420D01*
X714247Y55260D01*
X715717Y58808D01*
X718432Y61523D01*
X721980Y62993D01*
X725820Y62993D01*
X729368Y61523D01*
X732083Y58808D01*
X733553Y55260D01*
X733553Y51420D01*
X732083Y47872D01*
X729368Y45157D01*
X725820Y43687D01*
X721980Y43687D01*
G37*
%LPD*%
%LPC*%
G36*
X747380Y43687D02*
X747380Y43687D01*
X743832Y45157D01*
X741117Y47872D01*
X739647Y51420D01*
X739647Y55260D01*
X741117Y58808D01*
X743832Y61523D01*
X747380Y62993D01*
X751220Y62993D01*
X754768Y61523D01*
X757483Y58808D01*
X758953Y55260D01*
X758953Y51420D01*
X757483Y47872D01*
X754768Y45157D01*
X751220Y43687D01*
X747380Y43687D01*
G37*
%LPD*%
%LPC*%
G36*
X705770Y123329D02*
X705770Y123329D01*
X702959Y126140D01*
X702959Y130116D01*
X705296Y132452D01*
X705356Y132530D01*
X705424Y132602D01*
X705453Y132655D01*
X705490Y132703D01*
X705530Y132794D01*
X705578Y132881D01*
X705593Y132939D01*
X705617Y132995D01*
X705632Y133093D01*
X705657Y133189D01*
X705663Y133289D01*
X705667Y133309D01*
X705665Y133321D01*
X705667Y133349D01*
X705667Y135903D01*
X705652Y136022D01*
X705645Y136140D01*
X705632Y136179D01*
X705627Y136219D01*
X705584Y136330D01*
X705547Y136443D01*
X705525Y136477D01*
X705510Y136515D01*
X705441Y136611D01*
X705377Y136712D01*
X705347Y136739D01*
X705324Y136772D01*
X705232Y136848D01*
X705145Y136930D01*
X705110Y136949D01*
X705079Y136975D01*
X704971Y137026D01*
X704867Y137083D01*
X704827Y137093D01*
X704791Y137110D01*
X704674Y137133D01*
X704559Y137162D01*
X704499Y137166D01*
X704479Y137170D01*
X704458Y137169D01*
X704398Y137173D01*
X701324Y137173D01*
X698513Y139984D01*
X698513Y143959D01*
X701324Y146770D01*
X702592Y146770D01*
X702710Y146785D01*
X702829Y146792D01*
X702867Y146805D01*
X702908Y146810D01*
X703018Y146854D01*
X703131Y146891D01*
X703166Y146912D01*
X703203Y146927D01*
X703299Y146997D01*
X703400Y147061D01*
X703428Y147090D01*
X703461Y147114D01*
X703537Y147206D01*
X703618Y147292D01*
X703638Y147328D01*
X703663Y147359D01*
X703714Y147467D01*
X703772Y147571D01*
X703782Y147610D01*
X703799Y147647D01*
X703821Y147763D01*
X703851Y147879D01*
X703855Y147939D01*
X703859Y147959D01*
X703857Y147979D01*
X703861Y148039D01*
X703861Y149308D01*
X706672Y152119D01*
X710648Y152119D01*
X713459Y149308D01*
X713459Y145332D01*
X710784Y142657D01*
X710699Y142548D01*
X710610Y142441D01*
X710601Y142422D01*
X710589Y142406D01*
X710533Y142278D01*
X710474Y142153D01*
X710471Y142133D01*
X710463Y142114D01*
X710441Y141976D01*
X710415Y141840D01*
X710416Y141820D01*
X710413Y141800D01*
X710426Y141661D01*
X710434Y141523D01*
X710441Y141504D01*
X710443Y141484D01*
X710490Y141352D01*
X710532Y141221D01*
X710543Y141203D01*
X710550Y141184D01*
X710628Y141069D01*
X710703Y140952D01*
X710717Y140938D01*
X710729Y140921D01*
X710833Y140829D01*
X710934Y140734D01*
X710952Y140724D01*
X710967Y140711D01*
X711091Y140647D01*
X711213Y140580D01*
X711232Y140575D01*
X711250Y140566D01*
X711386Y140536D01*
X711521Y140501D01*
X711549Y140499D01*
X711561Y140496D01*
X711581Y140497D01*
X711681Y140491D01*
X712454Y140491D01*
X715265Y137680D01*
X715265Y133704D01*
X712928Y131368D01*
X712868Y131290D01*
X712800Y131218D01*
X712771Y131165D01*
X712765Y131158D01*
X712755Y131145D01*
X712754Y131143D01*
X712734Y131117D01*
X712694Y131026D01*
X712646Y130939D01*
X712633Y130886D01*
X712619Y130857D01*
X712617Y130849D01*
X712607Y130825D01*
X712592Y130727D01*
X712567Y130631D01*
X712563Y130562D01*
X712559Y130545D01*
X712560Y130529D01*
X712557Y130511D01*
X712559Y130499D01*
X712557Y130471D01*
X712557Y126140D01*
X709746Y123329D01*
X705770Y123329D01*
G37*
%LPD*%
%LPC*%
G36*
X940888Y224581D02*
X940888Y224581D01*
X938077Y227392D01*
X938077Y231377D01*
X938116Y231427D01*
X938195Y231517D01*
X938213Y231552D01*
X938238Y231584D01*
X938285Y231694D01*
X938339Y231800D01*
X938348Y231839D01*
X938364Y231876D01*
X938383Y231994D01*
X938409Y232110D01*
X938408Y232151D01*
X938414Y232190D01*
X938403Y232309D01*
X938399Y232428D01*
X938388Y232467D01*
X938384Y232507D01*
X938344Y232619D01*
X938311Y232733D01*
X938291Y232768D01*
X938277Y232806D01*
X938210Y232905D01*
X938149Y233007D01*
X938110Y233053D01*
X938098Y233069D01*
X938083Y233083D01*
X938043Y233128D01*
X936915Y234256D01*
X936821Y234329D01*
X936732Y234408D01*
X936696Y234426D01*
X936664Y234451D01*
X936555Y234498D01*
X936448Y234552D01*
X936409Y234561D01*
X936372Y234577D01*
X936254Y234596D01*
X936138Y234622D01*
X936098Y234621D01*
X936058Y234627D01*
X935939Y234616D01*
X935820Y234612D01*
X935782Y234601D01*
X935742Y234597D01*
X935675Y234573D01*
X931462Y234573D01*
X928651Y237384D01*
X928651Y238909D01*
X928636Y239027D01*
X928629Y239146D01*
X928616Y239184D01*
X928611Y239224D01*
X928568Y239335D01*
X928531Y239448D01*
X928509Y239482D01*
X928494Y239520D01*
X928425Y239616D01*
X928361Y239717D01*
X928331Y239744D01*
X928308Y239777D01*
X928216Y239853D01*
X928129Y239935D01*
X928094Y239954D01*
X928063Y239980D01*
X927955Y240031D01*
X927851Y240088D01*
X927811Y240098D01*
X927775Y240116D01*
X927658Y240138D01*
X927543Y240168D01*
X927483Y240171D01*
X927463Y240175D01*
X927442Y240174D01*
X927382Y240178D01*
X926284Y240178D01*
X923473Y242989D01*
X923473Y246964D01*
X926284Y249775D01*
X930260Y249775D01*
X933071Y246964D01*
X933071Y245440D01*
X933086Y245321D01*
X933093Y245203D01*
X933106Y245165D01*
X933111Y245124D01*
X933154Y245014D01*
X933191Y244901D01*
X933213Y244866D01*
X933228Y244829D01*
X933297Y244733D01*
X933361Y244632D01*
X933391Y244604D01*
X933414Y244571D01*
X933506Y244495D01*
X933593Y244414D01*
X933628Y244394D01*
X933659Y244369D01*
X933767Y244318D01*
X933871Y244260D01*
X933911Y244250D01*
X933947Y244233D01*
X934064Y244211D01*
X934179Y244181D01*
X934239Y244177D01*
X934259Y244173D01*
X934280Y244175D01*
X934340Y244171D01*
X935438Y244171D01*
X937549Y242060D01*
X937643Y241987D01*
X937732Y241908D01*
X937768Y241890D01*
X937800Y241865D01*
X937909Y241818D01*
X938015Y241763D01*
X938055Y241755D01*
X938092Y241739D01*
X938209Y241720D01*
X938325Y241694D01*
X938366Y241695D01*
X938406Y241689D01*
X938524Y241700D01*
X938643Y241703D01*
X938682Y241715D01*
X938722Y241718D01*
X938789Y241742D01*
X943002Y241742D01*
X945813Y238931D01*
X945813Y234946D01*
X945774Y234896D01*
X945695Y234807D01*
X945677Y234771D01*
X945652Y234739D01*
X945605Y234629D01*
X945551Y234524D01*
X945542Y234484D01*
X945526Y234447D01*
X945507Y234329D01*
X945481Y234213D01*
X945482Y234173D01*
X945476Y234133D01*
X945487Y234014D01*
X945491Y233895D01*
X945502Y233857D01*
X945506Y233816D01*
X945546Y233704D01*
X945579Y233590D01*
X945599Y233555D01*
X945613Y233517D01*
X945680Y233418D01*
X945741Y233316D01*
X945780Y233271D01*
X945792Y233254D01*
X945807Y233240D01*
X945847Y233195D01*
X947675Y231367D01*
X947675Y227392D01*
X944864Y224581D01*
X940888Y224581D01*
G37*
%LPD*%
%LPC*%
G36*
X854726Y61241D02*
X854726Y61241D01*
X851915Y64052D01*
X851915Y68028D01*
X854726Y70839D01*
X856728Y70839D01*
X856846Y70854D01*
X856965Y70861D01*
X857003Y70874D01*
X857043Y70879D01*
X857154Y70922D01*
X857267Y70959D01*
X857301Y70981D01*
X857339Y70996D01*
X857435Y71065D01*
X857536Y71129D01*
X857564Y71159D01*
X857596Y71182D01*
X857672Y71274D01*
X857754Y71361D01*
X857773Y71396D01*
X857799Y71427D01*
X857850Y71535D01*
X857907Y71639D01*
X857917Y71679D01*
X857935Y71715D01*
X857957Y71832D01*
X857987Y71947D01*
X857991Y72007D01*
X857994Y72027D01*
X857993Y72048D01*
X857997Y72108D01*
X857997Y72643D01*
X860808Y75454D01*
X862612Y75454D01*
X862730Y75469D01*
X862849Y75476D01*
X862887Y75489D01*
X862928Y75494D01*
X863038Y75538D01*
X863151Y75574D01*
X863186Y75596D01*
X863223Y75611D01*
X863319Y75681D01*
X863420Y75745D01*
X863448Y75774D01*
X863481Y75798D01*
X863557Y75890D01*
X863638Y75976D01*
X863658Y76012D01*
X863683Y76043D01*
X863734Y76150D01*
X863792Y76255D01*
X863802Y76294D01*
X863819Y76331D01*
X863841Y76447D01*
X863871Y76563D01*
X863875Y76623D01*
X863879Y76643D01*
X863877Y76663D01*
X863881Y76723D01*
X863881Y78188D01*
X864171Y78478D01*
X864244Y78572D01*
X864323Y78661D01*
X864341Y78697D01*
X864366Y78729D01*
X864413Y78838D01*
X864467Y78944D01*
X864476Y78983D01*
X864492Y79021D01*
X864511Y79138D01*
X864537Y79254D01*
X864536Y79295D01*
X864542Y79335D01*
X864531Y79453D01*
X864527Y79572D01*
X864516Y79611D01*
X864512Y79651D01*
X864472Y79763D01*
X864439Y79878D01*
X864419Y79913D01*
X864405Y79951D01*
X864338Y80049D01*
X864277Y80152D01*
X864238Y80197D01*
X864226Y80214D01*
X864211Y80227D01*
X864171Y80273D01*
X862611Y81832D01*
X862611Y85808D01*
X865422Y88619D01*
X869398Y88619D01*
X872209Y85808D01*
X872209Y81832D01*
X871919Y81543D01*
X871846Y81448D01*
X871767Y81359D01*
X871749Y81323D01*
X871724Y81291D01*
X871677Y81182D01*
X871623Y81076D01*
X871614Y81037D01*
X871598Y80999D01*
X871579Y80882D01*
X871553Y80766D01*
X871554Y80725D01*
X871548Y80685D01*
X871559Y80567D01*
X871563Y80448D01*
X871574Y80409D01*
X871578Y80369D01*
X871618Y80257D01*
X871651Y80142D01*
X871672Y80107D01*
X871685Y80069D01*
X871752Y79971D01*
X871813Y79868D01*
X871852Y79823D01*
X871864Y79806D01*
X871879Y79793D01*
X871919Y79748D01*
X873479Y78188D01*
X873479Y74212D01*
X870668Y71401D01*
X868864Y71401D01*
X868746Y71386D01*
X868627Y71379D01*
X868588Y71366D01*
X868548Y71361D01*
X868437Y71318D01*
X868324Y71281D01*
X868290Y71259D01*
X868253Y71244D01*
X868156Y71175D01*
X868056Y71111D01*
X868028Y71081D01*
X867995Y71058D01*
X867919Y70966D01*
X867838Y70879D01*
X867818Y70844D01*
X867792Y70813D01*
X867742Y70705D01*
X867684Y70601D01*
X867674Y70561D01*
X867657Y70525D01*
X867634Y70408D01*
X867605Y70293D01*
X867601Y70233D01*
X867597Y70213D01*
X867598Y70192D01*
X867594Y70132D01*
X867594Y68668D01*
X864783Y65857D01*
X862782Y65857D01*
X862664Y65842D01*
X862545Y65834D01*
X862507Y65822D01*
X862466Y65817D01*
X862356Y65773D01*
X862243Y65736D01*
X862208Y65715D01*
X862171Y65700D01*
X862075Y65630D01*
X861974Y65566D01*
X861946Y65537D01*
X861913Y65513D01*
X861837Y65421D01*
X861756Y65335D01*
X861736Y65299D01*
X861711Y65268D01*
X861660Y65160D01*
X861602Y65056D01*
X861592Y65017D01*
X861575Y64980D01*
X861553Y64863D01*
X861523Y64748D01*
X861519Y64688D01*
X861515Y64668D01*
X861517Y64648D01*
X861513Y64587D01*
X861513Y64052D01*
X858702Y61241D01*
X854726Y61241D01*
G37*
%LPD*%
%LPC*%
G36*
X1046679Y231421D02*
X1046679Y231421D01*
X1044597Y233504D01*
X1044574Y233522D01*
X1044554Y233544D01*
X1044448Y233619D01*
X1044346Y233699D01*
X1044318Y233710D01*
X1044294Y233727D01*
X1044173Y233773D01*
X1044054Y233825D01*
X1044025Y233830D01*
X1043997Y233840D01*
X1043868Y233854D01*
X1043740Y233875D01*
X1043710Y233872D01*
X1043681Y233875D01*
X1043552Y233857D01*
X1043423Y233845D01*
X1043395Y233835D01*
X1043366Y233831D01*
X1043214Y233779D01*
X1041747Y233171D01*
X1038513Y233171D01*
X1035525Y234409D01*
X1033239Y236695D01*
X1032001Y239683D01*
X1032001Y242917D01*
X1033239Y245905D01*
X1035525Y248191D01*
X1038513Y249429D01*
X1041747Y249429D01*
X1044735Y248191D01*
X1047021Y245905D01*
X1048259Y242917D01*
X1048259Y242288D01*
X1048274Y242170D01*
X1048281Y242051D01*
X1048294Y242013D01*
X1048299Y241972D01*
X1048342Y241862D01*
X1048379Y241749D01*
X1048401Y241714D01*
X1048416Y241677D01*
X1048485Y241581D01*
X1048549Y241480D01*
X1048579Y241452D01*
X1048602Y241419D01*
X1048694Y241343D01*
X1048781Y241262D01*
X1048816Y241242D01*
X1048847Y241217D01*
X1048955Y241166D01*
X1049059Y241108D01*
X1049099Y241098D01*
X1049135Y241081D01*
X1049252Y241059D01*
X1049367Y241029D01*
X1049427Y241025D01*
X1049447Y241021D01*
X1049468Y241023D01*
X1049528Y241019D01*
X1050655Y241019D01*
X1053466Y238208D01*
X1053466Y234232D01*
X1050655Y231421D01*
X1046679Y231421D01*
G37*
%LPD*%
%LPC*%
G36*
X40639Y314959D02*
X40639Y314959D01*
X40639Y333893D01*
X42327Y333671D01*
X45065Y332937D01*
X47683Y331853D01*
X50138Y330435D01*
X52386Y328710D01*
X54390Y326706D01*
X56115Y324458D01*
X57533Y322003D01*
X58617Y319385D01*
X59351Y316647D01*
X59573Y314959D01*
X40639Y314959D01*
G37*
%LPD*%
%LPC*%
G36*
X916939Y314959D02*
X916939Y314959D01*
X916939Y333893D01*
X918627Y333671D01*
X921365Y332937D01*
X923983Y331853D01*
X926438Y330435D01*
X928686Y328710D01*
X930690Y326706D01*
X932415Y324458D01*
X933833Y322003D01*
X934917Y319385D01*
X935651Y316647D01*
X935873Y314959D01*
X916939Y314959D01*
G37*
%LPD*%
%LPC*%
G36*
X40639Y39369D02*
X40639Y39369D01*
X40639Y58303D01*
X42327Y58081D01*
X45065Y57347D01*
X47683Y56263D01*
X50138Y54845D01*
X52386Y53120D01*
X54390Y51116D01*
X56115Y48868D01*
X57533Y46413D01*
X58617Y43795D01*
X59351Y41057D01*
X59573Y39369D01*
X40639Y39369D01*
G37*
%LPD*%
%LPC*%
G36*
X1475739Y39369D02*
X1475739Y39369D01*
X1475739Y58303D01*
X1477427Y58081D01*
X1480165Y57347D01*
X1482783Y56263D01*
X1485238Y54845D01*
X1487486Y53120D01*
X1489490Y51116D01*
X1491215Y48868D01*
X1492633Y46413D01*
X1493717Y43795D01*
X1494451Y41057D01*
X1494673Y39369D01*
X1475739Y39369D01*
G37*
%LPD*%
%LPC*%
G36*
X916939Y39369D02*
X916939Y39369D01*
X916939Y58303D01*
X918627Y58081D01*
X921365Y57347D01*
X923983Y56263D01*
X926438Y54845D01*
X928686Y53120D01*
X930690Y51116D01*
X932415Y48868D01*
X933833Y46413D01*
X934917Y43795D01*
X935651Y41057D01*
X935873Y39369D01*
X916939Y39369D01*
G37*
%LPD*%
%LPC*%
G36*
X1475739Y314959D02*
X1475739Y314959D01*
X1475739Y333893D01*
X1477427Y333671D01*
X1480165Y332937D01*
X1482783Y331853D01*
X1485238Y330435D01*
X1487486Y328710D01*
X1489490Y326706D01*
X1491215Y324458D01*
X1492633Y322003D01*
X1493717Y319385D01*
X1494451Y316647D01*
X1494673Y314959D01*
X1475739Y314959D01*
G37*
%LPD*%
%LPC*%
G36*
X916939Y34291D02*
X916939Y34291D01*
X935873Y34291D01*
X935651Y32603D01*
X934917Y29865D01*
X933833Y27247D01*
X932415Y24792D01*
X930690Y22544D01*
X928686Y20540D01*
X926438Y18815D01*
X923983Y17397D01*
X921365Y16313D01*
X918627Y15579D01*
X916939Y15357D01*
X916939Y34291D01*
G37*
%LPD*%
%LPC*%
G36*
X1475739Y34291D02*
X1475739Y34291D01*
X1494673Y34291D01*
X1494451Y32603D01*
X1493717Y29865D01*
X1492633Y27247D01*
X1491215Y24792D01*
X1489490Y22544D01*
X1487486Y20540D01*
X1485238Y18815D01*
X1482783Y17397D01*
X1480165Y16313D01*
X1477427Y15579D01*
X1475739Y15357D01*
X1475739Y34291D01*
G37*
%LPD*%
%LPC*%
G36*
X40639Y34291D02*
X40639Y34291D01*
X59573Y34291D01*
X59351Y32603D01*
X58617Y29865D01*
X57533Y27247D01*
X56115Y24792D01*
X54390Y22544D01*
X52386Y20540D01*
X50138Y18815D01*
X47683Y17397D01*
X45065Y16313D01*
X42327Y15579D01*
X40639Y15357D01*
X40639Y34291D01*
G37*
%LPD*%
%LPC*%
G36*
X16627Y314959D02*
X16627Y314959D01*
X16849Y316647D01*
X17583Y319385D01*
X18667Y322003D01*
X20085Y324458D01*
X21810Y326706D01*
X23814Y328710D01*
X26062Y330435D01*
X28517Y331853D01*
X31135Y332937D01*
X33873Y333671D01*
X35561Y333893D01*
X35561Y314959D01*
X16627Y314959D01*
G37*
%LPD*%
%LPC*%
G36*
X892927Y314959D02*
X892927Y314959D01*
X893149Y316647D01*
X893883Y319385D01*
X894967Y322003D01*
X896385Y324458D01*
X898110Y326706D01*
X900114Y328710D01*
X902362Y330435D01*
X904817Y331853D01*
X907435Y332937D01*
X910173Y333671D01*
X911861Y333893D01*
X911861Y314959D01*
X892927Y314959D01*
G37*
%LPD*%
%LPC*%
G36*
X1451727Y314959D02*
X1451727Y314959D01*
X1451949Y316647D01*
X1452683Y319385D01*
X1453767Y322003D01*
X1455185Y324458D01*
X1456910Y326706D01*
X1458914Y328710D01*
X1461162Y330435D01*
X1463617Y331853D01*
X1466235Y332937D01*
X1468973Y333671D01*
X1470661Y333893D01*
X1470661Y314959D01*
X1451727Y314959D01*
G37*
%LPD*%
%LPC*%
G36*
X892927Y39369D02*
X892927Y39369D01*
X893149Y41057D01*
X893883Y43795D01*
X894967Y46413D01*
X896385Y48868D01*
X898110Y51116D01*
X900114Y53120D01*
X902362Y54845D01*
X904817Y56263D01*
X907435Y57347D01*
X910173Y58081D01*
X911861Y58303D01*
X911861Y39369D01*
X892927Y39369D01*
G37*
%LPD*%
%LPC*%
G36*
X16627Y39369D02*
X16627Y39369D01*
X16849Y41057D01*
X17583Y43795D01*
X18667Y46413D01*
X20085Y48868D01*
X21810Y51116D01*
X23814Y53120D01*
X26062Y54845D01*
X28517Y56263D01*
X31135Y57347D01*
X33873Y58081D01*
X35561Y58303D01*
X35561Y39369D01*
X16627Y39369D01*
G37*
%LPD*%
%LPC*%
G36*
X40639Y309881D02*
X40639Y309881D01*
X59573Y309881D01*
X59351Y308193D01*
X58617Y305455D01*
X57533Y302837D01*
X56115Y300382D01*
X54390Y298134D01*
X52386Y296130D01*
X50138Y294405D01*
X47683Y292987D01*
X45065Y291903D01*
X42327Y291169D01*
X40639Y290947D01*
X40639Y309881D01*
G37*
%LPD*%
%LPC*%
G36*
X916939Y309881D02*
X916939Y309881D01*
X935873Y309881D01*
X935651Y308193D01*
X934917Y305455D01*
X933833Y302837D01*
X932415Y300382D01*
X930690Y298134D01*
X928686Y296130D01*
X926438Y294405D01*
X923983Y292987D01*
X921365Y291903D01*
X918627Y291169D01*
X916939Y290947D01*
X916939Y309881D01*
G37*
%LPD*%
%LPC*%
G36*
X1475739Y309881D02*
X1475739Y309881D01*
X1494673Y309881D01*
X1494451Y308193D01*
X1493717Y305455D01*
X1492633Y302837D01*
X1491215Y300382D01*
X1489490Y298134D01*
X1487486Y296130D01*
X1485238Y294405D01*
X1482783Y292987D01*
X1480165Y291903D01*
X1477427Y291169D01*
X1475739Y290947D01*
X1475739Y309881D01*
G37*
%LPD*%
%LPC*%
G36*
X1451727Y39369D02*
X1451727Y39369D01*
X1451949Y41057D01*
X1452683Y43795D01*
X1453767Y46413D01*
X1455185Y48868D01*
X1456910Y51116D01*
X1458914Y53120D01*
X1461162Y54845D01*
X1463617Y56263D01*
X1466235Y57347D01*
X1468973Y58081D01*
X1470661Y58303D01*
X1470661Y39369D01*
X1451727Y39369D01*
G37*
%LPD*%
%LPC*%
G36*
X1468973Y15579D02*
X1468973Y15579D01*
X1466235Y16313D01*
X1463617Y17397D01*
X1461162Y18815D01*
X1458914Y20540D01*
X1456910Y22544D01*
X1455185Y24792D01*
X1453767Y27247D01*
X1452683Y29865D01*
X1451949Y32603D01*
X1451727Y34291D01*
X1470661Y34291D01*
X1470661Y15357D01*
X1468973Y15579D01*
G37*
%LPD*%
%LPC*%
G36*
X33873Y15579D02*
X33873Y15579D01*
X31135Y16313D01*
X28517Y17397D01*
X26062Y18815D01*
X23814Y20540D01*
X21810Y22544D01*
X20085Y24792D01*
X18667Y27247D01*
X17583Y29865D01*
X16849Y32603D01*
X16627Y34291D01*
X35561Y34291D01*
X35561Y15357D01*
X33873Y15579D01*
G37*
%LPD*%
%LPC*%
G36*
X910173Y15579D02*
X910173Y15579D01*
X907435Y16313D01*
X904817Y17397D01*
X902362Y18815D01*
X900114Y20540D01*
X898110Y22544D01*
X896385Y24792D01*
X894967Y27247D01*
X893883Y29865D01*
X893149Y32603D01*
X892927Y34291D01*
X911861Y34291D01*
X911861Y15357D01*
X910173Y15579D01*
G37*
%LPD*%
%LPC*%
G36*
X33873Y291169D02*
X33873Y291169D01*
X31135Y291903D01*
X28517Y292987D01*
X26062Y294405D01*
X23814Y296130D01*
X21810Y298134D01*
X20085Y300382D01*
X18667Y302837D01*
X17583Y305455D01*
X16849Y308193D01*
X16627Y309881D01*
X35561Y309881D01*
X35561Y290947D01*
X33873Y291169D01*
G37*
%LPD*%
%LPC*%
G36*
X910173Y291169D02*
X910173Y291169D01*
X907435Y291903D01*
X904817Y292987D01*
X902362Y294405D01*
X900114Y296130D01*
X898110Y298134D01*
X896385Y300382D01*
X894967Y302837D01*
X893883Y305455D01*
X893149Y308193D01*
X892927Y309881D01*
X911861Y309881D01*
X911861Y290947D01*
X910173Y291169D01*
G37*
%LPD*%
%LPC*%
G36*
X1468973Y291169D02*
X1468973Y291169D01*
X1466235Y291903D01*
X1463617Y292987D01*
X1461162Y294405D01*
X1458914Y296130D01*
X1456910Y298134D01*
X1455185Y300382D01*
X1453767Y302837D01*
X1452683Y305455D01*
X1451949Y308193D01*
X1451727Y309881D01*
X1470661Y309881D01*
X1470661Y290947D01*
X1468973Y291169D01*
G37*
%LPD*%
%LPC*%
G36*
X823512Y249201D02*
X823512Y249201D01*
X820701Y252012D01*
X820701Y254762D01*
X820686Y254880D01*
X820679Y254999D01*
X820666Y255037D01*
X820661Y255078D01*
X820618Y255188D01*
X820581Y255301D01*
X820559Y255336D01*
X820544Y255373D01*
X820475Y255469D01*
X820411Y255570D01*
X820381Y255598D01*
X820358Y255631D01*
X820266Y255707D01*
X820179Y255788D01*
X820144Y255808D01*
X820113Y255833D01*
X820087Y255845D01*
X817371Y258561D01*
X817371Y262139D01*
X819901Y264669D01*
X821834Y264669D01*
X821952Y264684D01*
X822071Y264691D01*
X822109Y264704D01*
X822150Y264709D01*
X822260Y264752D01*
X822373Y264789D01*
X822408Y264811D01*
X822445Y264826D01*
X822542Y264895D01*
X822642Y264959D01*
X822670Y264989D01*
X822703Y265012D01*
X822779Y265104D01*
X822860Y265191D01*
X822880Y265226D01*
X822905Y265257D01*
X822956Y265365D01*
X823014Y265469D01*
X823024Y265509D01*
X823041Y265545D01*
X823063Y265662D01*
X823093Y265777D01*
X823097Y265837D01*
X823101Y265857D01*
X823099Y265878D01*
X823103Y265938D01*
X823103Y266192D01*
X823088Y266310D01*
X823081Y266429D01*
X823069Y266467D01*
X823063Y266508D01*
X823020Y266618D01*
X822983Y266731D01*
X822961Y266766D01*
X822946Y266803D01*
X822877Y266899D01*
X822813Y267000D01*
X822783Y267028D01*
X822760Y267061D01*
X822668Y267137D01*
X822581Y267218D01*
X822546Y267238D01*
X822515Y267263D01*
X822407Y267314D01*
X822303Y267372D01*
X822263Y267382D01*
X822227Y267399D01*
X822110Y267421D01*
X821995Y267451D01*
X821935Y267455D01*
X821915Y267459D01*
X821894Y267457D01*
X821834Y267461D01*
X821171Y267461D01*
X818641Y269991D01*
X818641Y273569D01*
X821171Y276099D01*
X824749Y276099D01*
X827279Y273569D01*
X827279Y272768D01*
X827294Y272650D01*
X827301Y272531D01*
X827314Y272493D01*
X827319Y272452D01*
X827362Y272342D01*
X827399Y272229D01*
X827421Y272194D01*
X827436Y272157D01*
X827505Y272061D01*
X827569Y271960D01*
X827599Y271932D01*
X827622Y271899D01*
X827714Y271823D01*
X827801Y271742D01*
X827836Y271722D01*
X827867Y271697D01*
X827975Y271646D01*
X828079Y271588D01*
X828119Y271578D01*
X828155Y271561D01*
X828272Y271539D01*
X828387Y271509D01*
X828447Y271505D01*
X828467Y271501D01*
X828488Y271503D01*
X828548Y271499D01*
X829890Y271499D01*
X832701Y268688D01*
X832701Y264712D01*
X829890Y261901D01*
X827278Y261901D01*
X827160Y261886D01*
X827041Y261879D01*
X827003Y261866D01*
X826962Y261861D01*
X826852Y261818D01*
X826739Y261781D01*
X826704Y261759D01*
X826667Y261744D01*
X826571Y261675D01*
X826470Y261611D01*
X826442Y261581D01*
X826409Y261558D01*
X826333Y261466D01*
X826252Y261379D01*
X826232Y261344D01*
X826207Y261313D01*
X826156Y261205D01*
X826098Y261101D01*
X826088Y261061D01*
X826071Y261025D01*
X826049Y260908D01*
X826019Y260793D01*
X826015Y260733D01*
X826011Y260713D01*
X826013Y260692D01*
X826009Y260632D01*
X826009Y260068D01*
X826024Y259950D01*
X826031Y259831D01*
X826044Y259793D01*
X826049Y259752D01*
X826092Y259642D01*
X826129Y259529D01*
X826151Y259494D01*
X826166Y259457D01*
X826235Y259361D01*
X826299Y259260D01*
X826329Y259232D01*
X826352Y259199D01*
X826444Y259123D01*
X826531Y259042D01*
X826566Y259022D01*
X826597Y258997D01*
X826705Y258946D01*
X826809Y258888D01*
X826849Y258878D01*
X826885Y258861D01*
X827002Y258839D01*
X827117Y258809D01*
X827177Y258805D01*
X827197Y258801D01*
X827218Y258803D01*
X827278Y258799D01*
X827488Y258799D01*
X830299Y255988D01*
X830299Y252012D01*
X827488Y249201D01*
X823512Y249201D01*
G37*
%LPD*%
%LPC*%
G36*
X529091Y136409D02*
X529091Y136409D01*
X525824Y137763D01*
X523323Y140264D01*
X521969Y143531D01*
X521969Y147069D01*
X523323Y150336D01*
X525824Y152837D01*
X529091Y154191D01*
X532629Y154191D01*
X535896Y152837D01*
X538397Y150336D01*
X539751Y147069D01*
X539751Y143531D01*
X538397Y140264D01*
X535896Y137763D01*
X532629Y136409D01*
X529091Y136409D01*
G37*
%LPD*%
%LPC*%
G36*
X272332Y78097D02*
X272332Y78097D01*
X269675Y80754D01*
X269581Y80827D01*
X269492Y80906D01*
X269456Y80924D01*
X269424Y80949D01*
X269315Y80996D01*
X269209Y81050D01*
X269169Y81059D01*
X269132Y81075D01*
X269014Y81094D01*
X268898Y81120D01*
X268858Y81119D01*
X268818Y81125D01*
X268699Y81114D01*
X268581Y81110D01*
X268542Y81099D01*
X268501Y81095D01*
X268389Y81055D01*
X268275Y81022D01*
X268240Y81001D01*
X268202Y80988D01*
X268103Y80921D01*
X268001Y80860D01*
X267956Y80820D01*
X267939Y80809D01*
X267926Y80794D01*
X267880Y80754D01*
X266148Y79021D01*
X262172Y79021D01*
X259361Y81832D01*
X259361Y85808D01*
X262172Y88619D01*
X262748Y88619D01*
X262885Y88636D01*
X263024Y88649D01*
X263043Y88656D01*
X263063Y88659D01*
X263192Y88710D01*
X263323Y88757D01*
X263340Y88768D01*
X263359Y88776D01*
X263471Y88857D01*
X263587Y88935D01*
X263600Y88951D01*
X263616Y88962D01*
X263705Y89070D01*
X263797Y89174D01*
X263806Y89192D01*
X263819Y89207D01*
X263878Y89333D01*
X263942Y89457D01*
X263946Y89477D01*
X263955Y89495D01*
X263981Y89631D01*
X264011Y89767D01*
X264011Y89788D01*
X264014Y89807D01*
X264006Y89946D01*
X264002Y90085D01*
X263996Y90105D01*
X263995Y90125D01*
X263952Y90257D01*
X263913Y90391D01*
X263903Y90408D01*
X263897Y90427D01*
X263822Y90545D01*
X263752Y90665D01*
X263733Y90686D01*
X263726Y90696D01*
X263711Y90710D01*
X263645Y90785D01*
X262170Y92261D01*
X262170Y96236D01*
X264981Y99047D01*
X268956Y99047D01*
X271767Y96236D01*
X271767Y92261D01*
X268956Y89450D01*
X268381Y89450D01*
X268243Y89432D01*
X268104Y89419D01*
X268085Y89413D01*
X268065Y89410D01*
X267936Y89359D01*
X267805Y89312D01*
X267788Y89300D01*
X267770Y89293D01*
X267657Y89211D01*
X267542Y89133D01*
X267529Y89118D01*
X267512Y89106D01*
X267423Y88999D01*
X267332Y88895D01*
X267322Y88877D01*
X267309Y88861D01*
X267250Y88736D01*
X267187Y88612D01*
X267183Y88592D01*
X267174Y88573D01*
X267148Y88437D01*
X267117Y88301D01*
X267118Y88281D01*
X267114Y88261D01*
X267123Y88123D01*
X267127Y87983D01*
X267133Y87964D01*
X267134Y87944D01*
X267177Y87812D01*
X267215Y87678D01*
X267226Y87660D01*
X267232Y87641D01*
X267306Y87524D01*
X267377Y87404D01*
X267396Y87383D01*
X267402Y87372D01*
X267417Y87358D01*
X267483Y87283D01*
X268805Y85962D01*
X268899Y85889D01*
X268988Y85810D01*
X269024Y85792D01*
X269056Y85767D01*
X269165Y85719D01*
X269271Y85665D01*
X269311Y85657D01*
X269348Y85640D01*
X269466Y85622D01*
X269582Y85596D01*
X269622Y85597D01*
X269662Y85591D01*
X269781Y85602D01*
X269899Y85605D01*
X269938Y85617D01*
X269979Y85620D01*
X270091Y85661D01*
X270205Y85694D01*
X270240Y85714D01*
X270278Y85728D01*
X270377Y85795D01*
X270479Y85855D01*
X270524Y85895D01*
X270541Y85907D01*
X270554Y85922D01*
X270600Y85962D01*
X272332Y87694D01*
X276308Y87694D01*
X279119Y84883D01*
X279119Y80908D01*
X276308Y78097D01*
X272332Y78097D01*
G37*
%LPD*%
%LPC*%
G36*
X1185829Y162475D02*
X1185829Y162475D01*
X1183018Y165286D01*
X1183018Y169261D01*
X1185829Y172072D01*
X1189804Y172072D01*
X1190997Y170879D01*
X1191091Y170806D01*
X1191181Y170727D01*
X1191217Y170709D01*
X1191249Y170684D01*
X1191358Y170636D01*
X1191464Y170582D01*
X1191503Y170574D01*
X1191540Y170557D01*
X1191658Y170539D01*
X1191774Y170513D01*
X1191814Y170514D01*
X1191855Y170508D01*
X1191973Y170519D01*
X1192092Y170522D01*
X1192131Y170534D01*
X1192171Y170537D01*
X1192283Y170578D01*
X1192398Y170611D01*
X1192432Y170631D01*
X1192470Y170645D01*
X1192569Y170712D01*
X1192671Y170772D01*
X1192717Y170812D01*
X1192734Y170824D01*
X1192747Y170839D01*
X1192792Y170879D01*
X1194639Y172726D01*
X1194713Y172820D01*
X1194791Y172909D01*
X1194802Y172930D01*
X1194809Y172938D01*
X1194816Y172953D01*
X1194834Y172977D01*
X1194882Y173087D01*
X1194936Y173192D01*
X1194942Y173222D01*
X1194944Y173226D01*
X1194946Y173235D01*
X1194961Y173269D01*
X1194979Y173387D01*
X1195005Y173503D01*
X1195004Y173543D01*
X1195011Y173583D01*
X1194999Y173702D01*
X1194996Y173821D01*
X1194985Y173859D01*
X1194981Y173900D01*
X1194941Y174012D01*
X1194907Y174126D01*
X1194887Y174161D01*
X1194873Y174199D01*
X1194806Y174298D01*
X1194746Y174400D01*
X1194706Y174445D01*
X1194695Y174462D01*
X1194679Y174476D01*
X1194639Y174521D01*
X1192072Y177088D01*
X1192072Y181063D01*
X1194883Y183874D01*
X1198859Y183874D01*
X1201670Y181063D01*
X1201670Y177088D01*
X1198572Y173990D01*
X1198499Y173896D01*
X1198420Y173806D01*
X1198402Y173770D01*
X1198377Y173738D01*
X1198329Y173629D01*
X1198275Y173523D01*
X1198267Y173484D01*
X1198250Y173447D01*
X1198232Y173329D01*
X1198206Y173213D01*
X1198207Y173173D01*
X1198201Y173132D01*
X1198212Y173014D01*
X1198215Y172895D01*
X1198227Y172856D01*
X1198230Y172816D01*
X1198271Y172704D01*
X1198304Y172589D01*
X1198324Y172555D01*
X1198338Y172517D01*
X1198405Y172418D01*
X1198465Y172316D01*
X1198505Y172270D01*
X1198517Y172253D01*
X1198532Y172240D01*
X1198572Y172195D01*
X1201139Y169628D01*
X1201139Y165652D01*
X1198328Y162841D01*
X1194352Y162841D01*
X1193159Y164035D01*
X1193065Y164108D01*
X1192976Y164186D01*
X1192940Y164205D01*
X1192908Y164230D01*
X1192798Y164277D01*
X1192692Y164331D01*
X1192653Y164340D01*
X1192616Y164356D01*
X1192498Y164375D01*
X1192382Y164401D01*
X1192342Y164399D01*
X1192302Y164406D01*
X1192183Y164395D01*
X1192064Y164391D01*
X1192025Y164380D01*
X1191985Y164376D01*
X1191873Y164336D01*
X1191759Y164303D01*
X1191724Y164282D01*
X1191686Y164268D01*
X1191587Y164201D01*
X1191485Y164141D01*
X1191440Y164101D01*
X1191423Y164090D01*
X1191409Y164074D01*
X1191364Y164035D01*
X1189804Y162475D01*
X1185829Y162475D01*
G37*
%LPD*%
%LPC*%
G36*
X722382Y130893D02*
X722382Y130893D01*
X719571Y133704D01*
X719571Y137680D01*
X722246Y140355D01*
X722331Y140464D01*
X722420Y140571D01*
X722428Y140590D01*
X722441Y140606D01*
X722496Y140734D01*
X722555Y140859D01*
X722559Y140879D01*
X722567Y140898D01*
X722589Y141036D01*
X722615Y141172D01*
X722614Y141192D01*
X722617Y141212D01*
X722604Y141351D01*
X722595Y141489D01*
X722589Y141508D01*
X722587Y141528D01*
X722540Y141660D01*
X722497Y141791D01*
X722486Y141809D01*
X722480Y141828D01*
X722401Y141943D01*
X722327Y142060D01*
X722312Y142074D01*
X722301Y142091D01*
X722197Y142183D01*
X722095Y142278D01*
X722078Y142288D01*
X722063Y142301D01*
X721938Y142365D01*
X721817Y142432D01*
X721797Y142437D01*
X721779Y142446D01*
X721643Y142476D01*
X721509Y142511D01*
X721481Y142513D01*
X721469Y142516D01*
X721449Y142515D01*
X721348Y142521D01*
X720106Y142521D01*
X717295Y145332D01*
X717295Y149308D01*
X720106Y152119D01*
X724082Y152119D01*
X725145Y151055D01*
X725239Y150982D01*
X725329Y150903D01*
X725365Y150885D01*
X725397Y150860D01*
X725506Y150813D01*
X725612Y150759D01*
X725651Y150750D01*
X725688Y150734D01*
X725806Y150715D01*
X725922Y150689D01*
X725963Y150690D01*
X726003Y150684D01*
X726121Y150695D01*
X726240Y150699D01*
X726279Y150710D01*
X726319Y150714D01*
X726431Y150754D01*
X726546Y150787D01*
X726580Y150808D01*
X726618Y150821D01*
X726717Y150888D01*
X726819Y150949D01*
X726865Y150989D01*
X726882Y151000D01*
X726895Y151015D01*
X726940Y151055D01*
X728133Y152248D01*
X732108Y152248D01*
X734920Y149437D01*
X734920Y145462D01*
X732108Y142650D01*
X728133Y142650D01*
X727070Y143714D01*
X726975Y143787D01*
X726886Y143866D01*
X726850Y143884D01*
X726818Y143909D01*
X726709Y143956D01*
X726603Y144010D01*
X726564Y144019D01*
X726526Y144035D01*
X726409Y144054D01*
X726293Y144080D01*
X726252Y144079D01*
X726212Y144085D01*
X726094Y144074D01*
X725975Y144070D01*
X725936Y144059D01*
X725896Y144055D01*
X725784Y144015D01*
X725669Y143982D01*
X725634Y143961D01*
X725596Y143948D01*
X725498Y143881D01*
X725395Y143820D01*
X725350Y143781D01*
X725333Y143769D01*
X725320Y143754D01*
X725275Y143714D01*
X724218Y142657D01*
X724133Y142548D01*
X724044Y142441D01*
X724035Y142422D01*
X724023Y142406D01*
X723968Y142279D01*
X723908Y142153D01*
X723905Y142133D01*
X723897Y142114D01*
X723875Y141976D01*
X723849Y141840D01*
X723850Y141820D01*
X723847Y141800D01*
X723860Y141661D01*
X723868Y141523D01*
X723875Y141504D01*
X723877Y141484D01*
X723924Y141352D01*
X723966Y141221D01*
X723977Y141203D01*
X723984Y141184D01*
X724062Y141069D01*
X724137Y140952D01*
X724151Y140938D01*
X724163Y140921D01*
X724267Y140829D01*
X724368Y140734D01*
X724386Y140724D01*
X724401Y140711D01*
X724525Y140648D01*
X724647Y140580D01*
X724666Y140575D01*
X724684Y140566D01*
X724820Y140536D01*
X724955Y140501D01*
X724983Y140499D01*
X724995Y140496D01*
X725015Y140497D01*
X725115Y140491D01*
X726357Y140491D01*
X729168Y137680D01*
X729168Y133704D01*
X726357Y130893D01*
X722382Y130893D01*
G37*
%LPD*%
%LPC*%
G36*
X923842Y77469D02*
X923842Y77469D01*
X921031Y80280D01*
X921031Y84256D01*
X923367Y86592D01*
X923440Y86686D01*
X923519Y86775D01*
X923537Y86811D01*
X923562Y86843D01*
X923609Y86952D01*
X923663Y87058D01*
X923672Y87097D01*
X923688Y87135D01*
X923707Y87252D01*
X923733Y87368D01*
X923732Y87409D01*
X923738Y87449D01*
X923727Y87567D01*
X923723Y87686D01*
X923712Y87725D01*
X923708Y87765D01*
X923668Y87877D01*
X923635Y87992D01*
X923614Y88027D01*
X923601Y88065D01*
X923534Y88163D01*
X923473Y88266D01*
X923434Y88311D01*
X923422Y88328D01*
X923407Y88341D01*
X923367Y88387D01*
X922549Y89205D01*
X922549Y91976D01*
X922534Y92094D01*
X922527Y92213D01*
X922514Y92251D01*
X922509Y92292D01*
X922465Y92402D01*
X922429Y92515D01*
X922407Y92550D01*
X922392Y92587D01*
X922322Y92683D01*
X922258Y92784D01*
X922229Y92812D01*
X922205Y92845D01*
X922114Y92921D01*
X922027Y93002D01*
X921991Y93022D01*
X921960Y93047D01*
X921853Y93098D01*
X921748Y93156D01*
X921709Y93166D01*
X921673Y93183D01*
X921556Y93205D01*
X921440Y93235D01*
X921380Y93239D01*
X921360Y93243D01*
X921340Y93241D01*
X921280Y93245D01*
X920286Y93245D01*
X917475Y96056D01*
X917475Y100032D01*
X920286Y102843D01*
X924262Y102843D01*
X927073Y100032D01*
X927073Y97260D01*
X927088Y97142D01*
X927095Y97023D01*
X927108Y96985D01*
X927113Y96945D01*
X927156Y96834D01*
X927193Y96721D01*
X927215Y96687D01*
X927230Y96649D01*
X927299Y96553D01*
X927363Y96452D01*
X927393Y96424D01*
X927416Y96392D01*
X927508Y96316D01*
X927595Y96234D01*
X927630Y96215D01*
X927661Y96189D01*
X927769Y96138D01*
X927873Y96081D01*
X927913Y96071D01*
X927949Y96053D01*
X928066Y96031D01*
X928181Y96001D01*
X928241Y95997D01*
X928261Y95994D01*
X928282Y95995D01*
X928342Y95991D01*
X929335Y95991D01*
X932146Y93180D01*
X932146Y89205D01*
X929811Y86869D01*
X929738Y86775D01*
X929659Y86686D01*
X929640Y86650D01*
X929616Y86618D01*
X929568Y86508D01*
X929514Y86402D01*
X929505Y86363D01*
X929489Y86326D01*
X929471Y86208D01*
X929445Y86092D01*
X929446Y86052D01*
X929439Y86012D01*
X929451Y85893D01*
X929454Y85774D01*
X929466Y85735D01*
X929469Y85695D01*
X929510Y85583D01*
X929543Y85469D01*
X929563Y85434D01*
X929577Y85396D01*
X929644Y85297D01*
X929704Y85195D01*
X929744Y85149D01*
X929755Y85133D01*
X929771Y85119D01*
X929811Y85074D01*
X930629Y84256D01*
X930629Y80280D01*
X927818Y77469D01*
X923842Y77469D01*
G37*
%LPD*%
%LPC*%
G36*
X1224832Y119661D02*
X1224832Y119661D01*
X1222021Y122472D01*
X1222021Y122511D01*
X1222004Y122649D01*
X1221991Y122787D01*
X1221984Y122806D01*
X1221981Y122826D01*
X1221930Y122955D01*
X1221883Y123086D01*
X1221872Y123103D01*
X1221864Y123122D01*
X1221783Y123234D01*
X1221705Y123349D01*
X1221689Y123363D01*
X1221678Y123379D01*
X1221570Y123468D01*
X1221466Y123560D01*
X1221448Y123569D01*
X1221433Y123582D01*
X1221307Y123641D01*
X1221183Y123704D01*
X1221163Y123709D01*
X1221145Y123718D01*
X1221008Y123744D01*
X1220873Y123774D01*
X1220852Y123773D01*
X1220833Y123777D01*
X1220694Y123769D01*
X1220555Y123764D01*
X1220535Y123759D01*
X1220515Y123758D01*
X1220383Y123715D01*
X1220249Y123676D01*
X1220232Y123666D01*
X1220213Y123660D01*
X1220095Y123585D01*
X1219975Y123514D01*
X1219954Y123496D01*
X1219944Y123489D01*
X1219930Y123474D01*
X1219855Y123408D01*
X1218648Y122201D01*
X1214672Y122201D01*
X1211861Y125012D01*
X1211861Y126281D01*
X1211846Y126399D01*
X1211839Y126517D01*
X1211826Y126556D01*
X1211821Y126596D01*
X1211778Y126707D01*
X1211741Y126820D01*
X1211719Y126854D01*
X1211704Y126892D01*
X1211635Y126988D01*
X1211571Y127089D01*
X1211541Y127116D01*
X1211518Y127149D01*
X1211426Y127225D01*
X1211339Y127307D01*
X1211304Y127326D01*
X1211273Y127352D01*
X1211165Y127403D01*
X1211061Y127460D01*
X1211021Y127470D01*
X1210985Y127487D01*
X1210868Y127510D01*
X1210753Y127540D01*
X1210693Y127543D01*
X1210673Y127547D01*
X1210652Y127546D01*
X1210592Y127550D01*
X1209324Y127550D01*
X1206513Y130361D01*
X1206513Y134336D01*
X1209324Y137147D01*
X1213299Y137147D01*
X1216110Y134336D01*
X1216110Y133068D01*
X1216125Y132950D01*
X1216132Y132831D01*
X1216145Y132793D01*
X1216150Y132752D01*
X1216194Y132642D01*
X1216231Y132529D01*
X1216252Y132494D01*
X1216267Y132457D01*
X1216337Y132361D01*
X1216401Y132260D01*
X1216430Y132232D01*
X1216454Y132199D01*
X1216546Y132123D01*
X1216632Y132042D01*
X1216668Y132022D01*
X1216699Y131997D01*
X1216807Y131946D01*
X1216911Y131888D01*
X1216950Y131878D01*
X1216987Y131861D01*
X1217103Y131839D01*
X1217219Y131809D01*
X1217279Y131805D01*
X1217299Y131801D01*
X1217319Y131803D01*
X1217379Y131799D01*
X1218648Y131799D01*
X1221459Y128988D01*
X1221459Y128949D01*
X1221476Y128811D01*
X1221489Y128673D01*
X1221496Y128654D01*
X1221499Y128634D01*
X1221550Y128505D01*
X1221597Y128374D01*
X1221608Y128357D01*
X1221616Y128338D01*
X1221698Y128225D01*
X1221775Y128111D01*
X1221791Y128097D01*
X1221802Y128081D01*
X1221910Y127992D01*
X1222014Y127900D01*
X1222032Y127891D01*
X1222047Y127878D01*
X1222173Y127819D01*
X1222297Y127756D01*
X1222317Y127751D01*
X1222335Y127742D01*
X1222472Y127716D01*
X1222607Y127686D01*
X1222628Y127687D01*
X1222647Y127683D01*
X1222786Y127691D01*
X1222925Y127696D01*
X1222945Y127701D01*
X1222965Y127702D01*
X1223097Y127745D01*
X1223231Y127784D01*
X1223248Y127794D01*
X1223267Y127800D01*
X1223385Y127875D01*
X1223505Y127946D01*
X1223526Y127964D01*
X1223536Y127971D01*
X1223550Y127986D01*
X1223625Y128052D01*
X1224832Y129259D01*
X1228808Y129259D01*
X1231619Y126448D01*
X1231619Y122472D01*
X1228808Y119661D01*
X1224832Y119661D01*
G37*
%LPD*%
%LPC*%
G36*
X201212Y233961D02*
X201212Y233961D01*
X198401Y236772D01*
X198401Y240748D01*
X200596Y242943D01*
X200669Y243037D01*
X200748Y243126D01*
X200766Y243162D01*
X200791Y243194D01*
X200838Y243303D01*
X200892Y243409D01*
X200901Y243448D01*
X200917Y243486D01*
X200936Y243603D01*
X200962Y243719D01*
X200961Y243760D01*
X200967Y243800D01*
X200956Y243918D01*
X200952Y244037D01*
X200941Y244076D01*
X200937Y244116D01*
X200897Y244228D01*
X200864Y244343D01*
X200844Y244378D01*
X200830Y244416D01*
X200763Y244514D01*
X200702Y244617D01*
X200663Y244662D01*
X200651Y244679D01*
X200636Y244692D01*
X200596Y244738D01*
X198401Y246932D01*
X198401Y250908D01*
X201090Y253597D01*
X201164Y253691D01*
X201242Y253780D01*
X201261Y253816D01*
X201285Y253848D01*
X201333Y253958D01*
X201387Y254063D01*
X201396Y254103D01*
X201412Y254140D01*
X201430Y254257D01*
X201456Y254374D01*
X201455Y254414D01*
X201462Y254454D01*
X201450Y254573D01*
X201447Y254692D01*
X201436Y254730D01*
X201432Y254771D01*
X201391Y254883D01*
X201358Y254997D01*
X201338Y255032D01*
X201324Y255070D01*
X201257Y255168D01*
X201197Y255271D01*
X201157Y255316D01*
X201146Y255333D01*
X201130Y255347D01*
X201090Y255392D01*
X198881Y257601D01*
X198881Y261179D01*
X201411Y263709D01*
X204989Y263709D01*
X207519Y261179D01*
X207519Y257601D01*
X205310Y255392D01*
X205236Y255298D01*
X205158Y255209D01*
X205139Y255173D01*
X205115Y255141D01*
X205067Y255031D01*
X205013Y254925D01*
X205004Y254886D01*
X204988Y254849D01*
X204970Y254731D01*
X204944Y254615D01*
X204945Y254575D01*
X204938Y254535D01*
X204950Y254416D01*
X204953Y254297D01*
X204964Y254258D01*
X204968Y254218D01*
X205009Y254106D01*
X205042Y253992D01*
X205062Y253957D01*
X205076Y253919D01*
X205143Y253820D01*
X205203Y253718D01*
X205243Y253673D01*
X205254Y253656D01*
X205270Y253642D01*
X205310Y253597D01*
X207999Y250908D01*
X207999Y246932D01*
X205804Y244738D01*
X205731Y244643D01*
X205652Y244554D01*
X205634Y244518D01*
X205609Y244486D01*
X205562Y244377D01*
X205508Y244271D01*
X205499Y244232D01*
X205483Y244194D01*
X205464Y244077D01*
X205438Y243961D01*
X205439Y243920D01*
X205433Y243880D01*
X205444Y243762D01*
X205448Y243643D01*
X205459Y243604D01*
X205463Y243564D01*
X205503Y243451D01*
X205536Y243337D01*
X205557Y243303D01*
X205570Y243264D01*
X205637Y243166D01*
X205698Y243063D01*
X205737Y243018D01*
X205749Y243001D01*
X205764Y242988D01*
X205804Y242943D01*
X207999Y240748D01*
X207999Y236772D01*
X205188Y233961D01*
X201212Y233961D01*
G37*
%LPD*%
%LPC*%
G36*
X892092Y153951D02*
X892092Y153951D01*
X889281Y156762D01*
X889281Y160738D01*
X891476Y162933D01*
X891549Y163027D01*
X891628Y163116D01*
X891646Y163152D01*
X891671Y163184D01*
X891719Y163294D01*
X891773Y163400D01*
X891781Y163439D01*
X891797Y163476D01*
X891816Y163594D01*
X891842Y163710D01*
X891841Y163750D01*
X891847Y163790D01*
X891836Y163909D01*
X891832Y164028D01*
X891821Y164066D01*
X891821Y168358D01*
X893635Y170172D01*
X893708Y170266D01*
X893787Y170355D01*
X893805Y170391D01*
X893830Y170423D01*
X893877Y170532D01*
X893931Y170638D01*
X893940Y170677D01*
X893956Y170715D01*
X893975Y170832D01*
X894001Y170948D01*
X894000Y170989D01*
X894006Y171029D01*
X893995Y171147D01*
X893991Y171266D01*
X893980Y171305D01*
X893976Y171345D01*
X893936Y171457D01*
X893903Y171572D01*
X893882Y171607D01*
X893869Y171645D01*
X893802Y171743D01*
X893741Y171846D01*
X893708Y171883D01*
X893705Y171888D01*
X893700Y171893D01*
X893690Y171908D01*
X893675Y171921D01*
X893635Y171967D01*
X892329Y173272D01*
X892329Y177248D01*
X895140Y180059D01*
X899116Y180059D01*
X901927Y177248D01*
X901927Y173272D01*
X900113Y171459D01*
X900040Y171364D01*
X899961Y171275D01*
X899943Y171239D01*
X899918Y171207D01*
X899871Y171098D01*
X899817Y170992D01*
X899808Y170953D01*
X899792Y170915D01*
X899773Y170798D01*
X899747Y170682D01*
X899748Y170641D01*
X899742Y170601D01*
X899753Y170483D01*
X899757Y170364D01*
X899768Y170325D01*
X899772Y170285D01*
X899812Y170172D01*
X899845Y170058D01*
X899866Y170023D01*
X899879Y169985D01*
X899946Y169887D01*
X900007Y169784D01*
X900046Y169739D01*
X900058Y169722D01*
X900073Y169709D01*
X900113Y169664D01*
X901419Y168358D01*
X901419Y164382D01*
X899224Y162188D01*
X899151Y162093D01*
X899072Y162004D01*
X899054Y161968D01*
X899029Y161936D01*
X898982Y161827D01*
X898928Y161721D01*
X898919Y161682D01*
X898903Y161644D01*
X898884Y161527D01*
X898858Y161411D01*
X898859Y161370D01*
X898853Y161330D01*
X898864Y161212D01*
X898868Y161093D01*
X898879Y161054D01*
X898879Y156762D01*
X896068Y153951D01*
X892092Y153951D01*
G37*
%LPD*%
%LPC*%
G36*
X916758Y133631D02*
X916758Y133631D01*
X913947Y136442D01*
X913947Y140418D01*
X916758Y143229D01*
X918476Y143229D01*
X918594Y143244D01*
X918713Y143251D01*
X918752Y143264D01*
X918792Y143269D01*
X918903Y143312D01*
X919016Y143349D01*
X919050Y143371D01*
X919087Y143386D01*
X919184Y143455D01*
X919284Y143519D01*
X919312Y143549D01*
X919345Y143572D01*
X919421Y143664D01*
X919502Y143751D01*
X919522Y143786D01*
X919548Y143817D01*
X919598Y143925D01*
X919656Y144029D01*
X919666Y144069D01*
X919683Y144105D01*
X919706Y144222D01*
X919735Y144337D01*
X919739Y144397D01*
X919743Y144417D01*
X919742Y144438D01*
X919746Y144498D01*
X919746Y146161D01*
X922252Y148667D01*
X922325Y148761D01*
X922403Y148850D01*
X922422Y148886D01*
X922447Y148918D01*
X922494Y149027D01*
X922548Y149133D01*
X922557Y149173D01*
X922573Y149210D01*
X922592Y149328D01*
X922618Y149444D01*
X922616Y149484D01*
X922623Y149524D01*
X922612Y149643D01*
X922608Y149762D01*
X922597Y149800D01*
X922593Y149841D01*
X922553Y149953D01*
X922520Y150067D01*
X922499Y150102D01*
X922485Y150140D01*
X922419Y150238D01*
X922358Y150341D01*
X922318Y150386D01*
X922307Y150403D01*
X922301Y150408D01*
X922301Y154388D01*
X925112Y157199D01*
X929088Y157199D01*
X931899Y154388D01*
X931899Y150412D01*
X929393Y147906D01*
X929320Y147812D01*
X929241Y147723D01*
X929222Y147687D01*
X929198Y147655D01*
X929150Y147546D01*
X929096Y147440D01*
X929087Y147400D01*
X929071Y147363D01*
X929053Y147245D01*
X929027Y147129D01*
X929028Y147089D01*
X929021Y147049D01*
X929033Y146930D01*
X929036Y146811D01*
X929047Y146773D01*
X929051Y146732D01*
X929092Y146620D01*
X929125Y146506D01*
X929145Y146471D01*
X929159Y146433D01*
X929226Y146334D01*
X929286Y146232D01*
X929326Y146187D01*
X929337Y146170D01*
X929343Y146165D01*
X929343Y142185D01*
X926532Y139374D01*
X924814Y139374D01*
X924696Y139359D01*
X924577Y139352D01*
X924539Y139339D01*
X924498Y139334D01*
X924388Y139291D01*
X924275Y139254D01*
X924240Y139232D01*
X924203Y139217D01*
X924107Y139148D01*
X924006Y139084D01*
X923978Y139054D01*
X923945Y139031D01*
X923869Y138939D01*
X923788Y138852D01*
X923768Y138817D01*
X923743Y138786D01*
X923692Y138678D01*
X923634Y138574D01*
X923624Y138534D01*
X923607Y138498D01*
X923585Y138381D01*
X923555Y138266D01*
X923551Y138205D01*
X923547Y138186D01*
X923548Y138166D01*
X923547Y138160D01*
X923548Y138153D01*
X923545Y138105D01*
X923545Y136442D01*
X920734Y133631D01*
X916758Y133631D01*
G37*
%LPD*%
%LPC*%
G36*
X765545Y244601D02*
X765545Y244601D01*
X763015Y247131D01*
X763015Y250709D01*
X765545Y253239D01*
X769090Y253239D01*
X769208Y253254D01*
X769327Y253261D01*
X769365Y253274D01*
X769406Y253279D01*
X769516Y253322D01*
X769629Y253359D01*
X769664Y253381D01*
X769701Y253396D01*
X769797Y253465D01*
X769898Y253529D01*
X769926Y253559D01*
X769959Y253582D01*
X770034Y253674D01*
X770116Y253761D01*
X770136Y253796D01*
X770161Y253827D01*
X770212Y253935D01*
X770270Y254039D01*
X770280Y254079D01*
X770297Y254115D01*
X770319Y254232D01*
X770349Y254347D01*
X770353Y254407D01*
X770357Y254427D01*
X770355Y254448D01*
X770359Y254508D01*
X770359Y258129D01*
X773170Y260940D01*
X774827Y260940D01*
X774945Y260955D01*
X775064Y260963D01*
X775102Y260975D01*
X775142Y260980D01*
X775253Y261024D01*
X775366Y261061D01*
X775400Y261082D01*
X775438Y261097D01*
X775534Y261167D01*
X775635Y261231D01*
X775663Y261260D01*
X775695Y261284D01*
X775771Y261376D01*
X775853Y261463D01*
X775872Y261498D01*
X775898Y261529D01*
X775949Y261637D01*
X776006Y261741D01*
X776016Y261780D01*
X776034Y261817D01*
X776056Y261934D01*
X776086Y262049D01*
X776090Y262109D01*
X776093Y262129D01*
X776092Y262150D01*
X776096Y262210D01*
X776096Y263090D01*
X778907Y265901D01*
X782882Y265901D01*
X785694Y263090D01*
X785694Y259114D01*
X782882Y256303D01*
X781226Y256303D01*
X781108Y256288D01*
X780989Y256281D01*
X780951Y256268D01*
X780910Y256263D01*
X780800Y256220D01*
X780687Y256183D01*
X780652Y256161D01*
X780615Y256146D01*
X780518Y256077D01*
X780418Y256013D01*
X780390Y255983D01*
X780357Y255960D01*
X780281Y255868D01*
X780200Y255781D01*
X780180Y255746D01*
X780155Y255715D01*
X780104Y255607D01*
X780046Y255503D01*
X780036Y255463D01*
X780019Y255427D01*
X779997Y255310D01*
X779967Y255195D01*
X779963Y255135D01*
X779959Y255115D01*
X779961Y255094D01*
X779957Y255034D01*
X779957Y254154D01*
X777146Y251343D01*
X772922Y251343D01*
X772804Y251328D01*
X772685Y251321D01*
X772647Y251308D01*
X772606Y251303D01*
X772496Y251259D01*
X772383Y251223D01*
X772348Y251201D01*
X772311Y251186D01*
X772215Y251116D01*
X772114Y251052D01*
X772086Y251023D01*
X772053Y250999D01*
X771977Y250908D01*
X771896Y250821D01*
X771876Y250785D01*
X771851Y250754D01*
X771800Y250647D01*
X771742Y250542D01*
X771732Y250503D01*
X771715Y250467D01*
X771693Y250350D01*
X771663Y250234D01*
X771659Y250174D01*
X771655Y250154D01*
X771657Y250134D01*
X771653Y250074D01*
X771653Y247131D01*
X769123Y244601D01*
X765545Y244601D01*
G37*
%LPD*%
%LPC*%
G36*
X63153Y108711D02*
X63153Y108711D01*
X60165Y109949D01*
X57879Y112235D01*
X56641Y115223D01*
X56641Y118457D01*
X57879Y121445D01*
X60165Y123731D01*
X63153Y124969D01*
X66387Y124969D01*
X69375Y123731D01*
X71661Y121445D01*
X72899Y118457D01*
X72899Y115223D01*
X71661Y112235D01*
X69375Y109949D01*
X66387Y108711D01*
X63153Y108711D01*
G37*
%LPD*%
%LPC*%
G36*
X213013Y183641D02*
X213013Y183641D01*
X210025Y184879D01*
X207739Y187165D01*
X206501Y190153D01*
X206501Y193387D01*
X207739Y196375D01*
X210025Y198661D01*
X213013Y199899D01*
X216247Y199899D01*
X219235Y198661D01*
X221521Y196375D01*
X222759Y193387D01*
X222759Y190153D01*
X221521Y187165D01*
X219235Y184879D01*
X216247Y183641D01*
X213013Y183641D01*
G37*
%LPD*%
%LPC*%
G36*
X133349Y234549D02*
X133349Y234549D01*
X133349Y247881D01*
X133951Y247801D01*
X135985Y247256D01*
X137931Y246450D01*
X139755Y245397D01*
X141426Y244115D01*
X142915Y242626D01*
X143265Y242170D01*
X143309Y242125D01*
X143346Y242074D01*
X143421Y242012D01*
X143489Y241944D01*
X143543Y241912D01*
X143591Y241871D01*
X143679Y241830D01*
X143762Y241781D01*
X143822Y241763D01*
X143879Y241736D01*
X143974Y241718D01*
X144066Y241690D01*
X144130Y241688D01*
X144192Y241676D01*
X144288Y241682D01*
X144384Y241678D01*
X144446Y241692D01*
X144509Y241696D01*
X144601Y241725D01*
X144695Y241746D01*
X144751Y241774D01*
X144811Y241794D01*
X144893Y241845D01*
X144979Y241889D01*
X145027Y241930D01*
X145080Y241964D01*
X145146Y242034D01*
X145219Y242097D01*
X145255Y242149D01*
X145298Y242195D01*
X145345Y242280D01*
X145399Y242359D01*
X145421Y242419D01*
X145452Y242474D01*
X145476Y242567D01*
X145509Y242658D01*
X145515Y242721D01*
X145531Y242782D01*
X145541Y242943D01*
X145541Y245629D01*
X148071Y248159D01*
X151649Y248159D01*
X154179Y245629D01*
X154179Y242051D01*
X151649Y239521D01*
X148071Y239521D01*
X147492Y240101D01*
X147437Y240143D01*
X147388Y240194D01*
X147311Y240241D01*
X147240Y240296D01*
X147176Y240323D01*
X147117Y240360D01*
X147031Y240386D01*
X146949Y240422D01*
X146880Y240433D01*
X146813Y240453D01*
X146723Y240458D01*
X146635Y240472D01*
X146565Y240465D01*
X146495Y240469D01*
X146408Y240450D01*
X146318Y240442D01*
X146252Y240418D01*
X146184Y240404D01*
X146103Y240365D01*
X146019Y240334D01*
X145961Y240295D01*
X145898Y240264D01*
X145830Y240206D01*
X145756Y240156D01*
X145709Y240103D01*
X145656Y240058D01*
X145604Y239985D01*
X145545Y239917D01*
X145513Y239855D01*
X145473Y239798D01*
X145441Y239714D01*
X145400Y239634D01*
X145385Y239566D01*
X145360Y239501D01*
X145350Y239411D01*
X145331Y239324D01*
X145333Y239254D01*
X145325Y239185D01*
X145338Y239096D01*
X145340Y239006D01*
X145360Y238939D01*
X145370Y238870D01*
X145422Y238717D01*
X146056Y237185D01*
X146601Y235151D01*
X146681Y234549D01*
X133349Y234549D01*
G37*
%LPD*%
%LPC*%
G36*
X992906Y55459D02*
X992906Y55459D01*
X990884Y56297D01*
X989337Y57844D01*
X988499Y59866D01*
X988499Y62054D01*
X989337Y64076D01*
X990884Y65623D01*
X992906Y66461D01*
X995094Y66461D01*
X997116Y65623D01*
X998663Y64076D01*
X998963Y63352D01*
X998988Y63308D01*
X999005Y63262D01*
X999066Y63171D01*
X999121Y63075D01*
X999155Y63040D01*
X999183Y62999D01*
X999266Y62926D01*
X999342Y62847D01*
X999384Y62821D01*
X999422Y62788D01*
X999520Y62738D01*
X999613Y62681D01*
X999661Y62666D01*
X999705Y62644D01*
X999812Y62619D01*
X999917Y62587D01*
X999967Y62585D01*
X1000015Y62574D01*
X1000125Y62577D01*
X1000235Y62572D01*
X1000283Y62582D01*
X1000333Y62584D01*
X1000439Y62614D01*
X1000546Y62636D01*
X1000591Y62658D01*
X1000639Y62672D01*
X1000733Y62728D01*
X1000832Y62776D01*
X1000870Y62808D01*
X1000913Y62833D01*
X1001033Y62940D01*
X1003852Y65759D01*
X1007828Y65759D01*
X1010639Y62948D01*
X1010639Y58972D01*
X1007828Y56161D01*
X1003852Y56161D01*
X1001033Y58980D01*
X1000994Y59011D01*
X1000961Y59047D01*
X1000869Y59108D01*
X1000782Y59175D01*
X1000736Y59195D01*
X1000695Y59222D01*
X1000591Y59258D01*
X1000490Y59301D01*
X1000441Y59309D01*
X1000394Y59325D01*
X1000285Y59334D01*
X1000176Y59351D01*
X1000127Y59347D01*
X1000077Y59351D01*
X999969Y59332D01*
X999860Y59321D01*
X999813Y59305D01*
X999764Y59296D01*
X999664Y59251D01*
X999560Y59214D01*
X999519Y59186D01*
X999474Y59166D01*
X999388Y59097D01*
X999297Y59035D01*
X999264Y58998D01*
X999225Y58967D01*
X999159Y58879D01*
X999087Y58797D01*
X999064Y58753D01*
X999034Y58713D01*
X998963Y58568D01*
X998663Y57844D01*
X997116Y56297D01*
X995094Y55459D01*
X992906Y55459D01*
G37*
%LPD*%
%LPC*%
G36*
X894933Y267282D02*
X894933Y267282D01*
X892122Y270093D01*
X892122Y270132D01*
X892105Y270269D01*
X892092Y270408D01*
X892085Y270427D01*
X892083Y270447D01*
X892032Y270576D01*
X891984Y270707D01*
X891973Y270724D01*
X891966Y270743D01*
X891884Y270855D01*
X891806Y270971D01*
X891791Y270984D01*
X891779Y271000D01*
X891671Y271089D01*
X891567Y271181D01*
X891549Y271190D01*
X891534Y271203D01*
X891408Y271262D01*
X891284Y271326D01*
X891264Y271330D01*
X891246Y271339D01*
X891110Y271365D01*
X890974Y271395D01*
X890954Y271395D01*
X890934Y271398D01*
X890795Y271390D01*
X890656Y271386D01*
X890636Y271380D01*
X890616Y271379D01*
X890484Y271336D01*
X890350Y271297D01*
X890333Y271287D01*
X890314Y271281D01*
X890196Y271206D01*
X890076Y271136D01*
X890055Y271117D01*
X890045Y271110D01*
X890031Y271095D01*
X889956Y271029D01*
X888448Y269521D01*
X884472Y269521D01*
X881661Y272332D01*
X881661Y276308D01*
X884472Y279119D01*
X888448Y279119D01*
X891259Y276308D01*
X891259Y276269D01*
X891276Y276132D01*
X891289Y275993D01*
X891296Y275974D01*
X891299Y275954D01*
X891350Y275825D01*
X891397Y275694D01*
X891408Y275677D01*
X891416Y275658D01*
X891497Y275546D01*
X891575Y275431D01*
X891591Y275417D01*
X891602Y275401D01*
X891710Y275312D01*
X891814Y275220D01*
X891832Y275211D01*
X891847Y275198D01*
X891973Y275139D01*
X892097Y275076D01*
X892117Y275071D01*
X892135Y275062D01*
X892272Y275036D01*
X892407Y275006D01*
X892428Y275007D01*
X892447Y275003D01*
X892586Y275011D01*
X892725Y275016D01*
X892745Y275021D01*
X892765Y275022D01*
X892897Y275065D01*
X893031Y275104D01*
X893048Y275114D01*
X893067Y275120D01*
X893185Y275195D01*
X893305Y275266D01*
X893326Y275284D01*
X893336Y275291D01*
X893350Y275306D01*
X893425Y275372D01*
X894933Y276880D01*
X898909Y276880D01*
X901720Y274069D01*
X901720Y270093D01*
X898909Y267282D01*
X894933Y267282D01*
G37*
%LPD*%
%LPC*%
G36*
X897172Y244573D02*
X897172Y244573D01*
X894237Y247509D01*
X894223Y247546D01*
X894212Y247563D01*
X894204Y247582D01*
X894123Y247694D01*
X894045Y247809D01*
X894030Y247823D01*
X894018Y247839D01*
X893910Y247928D01*
X893806Y248020D01*
X893788Y248029D01*
X893773Y248042D01*
X893647Y248101D01*
X893523Y248164D01*
X893503Y248169D01*
X893485Y248178D01*
X893348Y248204D01*
X893213Y248234D01*
X893192Y248233D01*
X893173Y248237D01*
X893034Y248229D01*
X892895Y248224D01*
X892875Y248219D01*
X892855Y248218D01*
X892723Y248175D01*
X892589Y248136D01*
X892572Y248126D01*
X892553Y248120D01*
X892435Y248045D01*
X892315Y247974D01*
X892294Y247956D01*
X892284Y247949D01*
X892270Y247934D01*
X892195Y247868D01*
X890988Y246661D01*
X887012Y246661D01*
X884201Y249472D01*
X884201Y253448D01*
X887012Y256259D01*
X890988Y256259D01*
X893923Y253323D01*
X893937Y253286D01*
X893948Y253269D01*
X893956Y253250D01*
X894037Y253138D01*
X894115Y253023D01*
X894131Y253009D01*
X894142Y252993D01*
X894250Y252904D01*
X894354Y252812D01*
X894372Y252803D01*
X894387Y252790D01*
X894513Y252731D01*
X894637Y252668D01*
X894657Y252663D01*
X894675Y252654D01*
X894812Y252628D01*
X894947Y252598D01*
X894968Y252599D01*
X894987Y252595D01*
X895126Y252603D01*
X895265Y252608D01*
X895285Y252613D01*
X895305Y252614D01*
X895437Y252657D01*
X895571Y252696D01*
X895588Y252706D01*
X895607Y252712D01*
X895725Y252787D01*
X895845Y252858D01*
X895866Y252876D01*
X895876Y252883D01*
X895890Y252898D01*
X895965Y252964D01*
X897172Y254171D01*
X901148Y254171D01*
X903959Y251360D01*
X903959Y247384D01*
X901148Y244573D01*
X897172Y244573D01*
G37*
%LPD*%
%LPC*%
G36*
X1029252Y206851D02*
X1029252Y206851D01*
X1026441Y209662D01*
X1026441Y213638D01*
X1029252Y216449D01*
X1033228Y216449D01*
X1034567Y215109D01*
X1034662Y215036D01*
X1034751Y214957D01*
X1034787Y214939D01*
X1034819Y214914D01*
X1034928Y214867D01*
X1035034Y214813D01*
X1035073Y214804D01*
X1035111Y214788D01*
X1035228Y214769D01*
X1035344Y214743D01*
X1035385Y214744D01*
X1035425Y214738D01*
X1035543Y214749D01*
X1035662Y214753D01*
X1035701Y214764D01*
X1035741Y214768D01*
X1035854Y214808D01*
X1035968Y214841D01*
X1036002Y214862D01*
X1036041Y214875D01*
X1036139Y214942D01*
X1036242Y215003D01*
X1036287Y215042D01*
X1036304Y215054D01*
X1036317Y215069D01*
X1036362Y215109D01*
X1039412Y218159D01*
X1043388Y218159D01*
X1046199Y215348D01*
X1046199Y211372D01*
X1043388Y208561D01*
X1039412Y208561D01*
X1038072Y209901D01*
X1037978Y209974D01*
X1037889Y210053D01*
X1037853Y210071D01*
X1037821Y210096D01*
X1037712Y210143D01*
X1037606Y210197D01*
X1037567Y210206D01*
X1037529Y210222D01*
X1037412Y210241D01*
X1037296Y210267D01*
X1037255Y210266D01*
X1037215Y210272D01*
X1037097Y210261D01*
X1036978Y210257D01*
X1036939Y210246D01*
X1036899Y210242D01*
X1036786Y210202D01*
X1036672Y210169D01*
X1036637Y210149D01*
X1036599Y210135D01*
X1036501Y210068D01*
X1036398Y210007D01*
X1036353Y209968D01*
X1036336Y209956D01*
X1036323Y209941D01*
X1036277Y209901D01*
X1033228Y206851D01*
X1029252Y206851D01*
G37*
%LPD*%
%LPC*%
G36*
X844767Y239283D02*
X844767Y239283D01*
X841956Y242094D01*
X841956Y246092D01*
X841962Y246100D01*
X842051Y246207D01*
X842060Y246226D01*
X842072Y246242D01*
X842128Y246370D01*
X842187Y246495D01*
X842191Y246515D01*
X842199Y246534D01*
X842220Y246671D01*
X842247Y246808D01*
X842245Y246828D01*
X842248Y246848D01*
X842235Y246985D01*
X842227Y247125D01*
X842221Y247144D01*
X842219Y247164D01*
X842172Y247295D01*
X842129Y247427D01*
X842118Y247445D01*
X842111Y247464D01*
X842033Y247579D01*
X841959Y247696D01*
X841944Y247710D01*
X841933Y247727D01*
X841828Y247819D01*
X841727Y247914D01*
X841709Y247924D01*
X841694Y247937D01*
X841570Y248000D01*
X841448Y248068D01*
X841429Y248073D01*
X841411Y248082D01*
X841275Y248112D01*
X841141Y248147D01*
X841113Y248149D01*
X841101Y248152D01*
X841080Y248151D01*
X840980Y248157D01*
X840558Y248157D01*
X837747Y250968D01*
X837747Y254944D01*
X840558Y257755D01*
X844534Y257755D01*
X847345Y254944D01*
X847345Y250946D01*
X847338Y250937D01*
X847249Y250830D01*
X847241Y250812D01*
X847228Y250796D01*
X847173Y250667D01*
X847114Y250542D01*
X847110Y250522D01*
X847102Y250504D01*
X847080Y250366D01*
X847054Y250230D01*
X847055Y250210D01*
X847052Y250190D01*
X847065Y250051D01*
X847074Y249912D01*
X847080Y249893D01*
X847082Y249873D01*
X847129Y249742D01*
X847172Y249610D01*
X847183Y249593D01*
X847189Y249574D01*
X847267Y249459D01*
X847342Y249341D01*
X847357Y249327D01*
X847368Y249311D01*
X847472Y249218D01*
X847574Y249123D01*
X847591Y249113D01*
X847606Y249100D01*
X847730Y249037D01*
X847852Y248970D01*
X847872Y248965D01*
X847890Y248955D01*
X848025Y248925D01*
X848160Y248890D01*
X848188Y248888D01*
X848200Y248886D01*
X848220Y248886D01*
X848321Y248880D01*
X848742Y248880D01*
X851553Y246069D01*
X851553Y242094D01*
X848742Y239283D01*
X844767Y239283D01*
G37*
%LPD*%
%LPC*%
G36*
X633012Y192249D02*
X633012Y192249D01*
X630201Y195060D01*
X630201Y197132D01*
X630186Y197250D01*
X630179Y197369D01*
X630166Y197407D01*
X630161Y197448D01*
X630118Y197558D01*
X630081Y197671D01*
X630059Y197706D01*
X630044Y197743D01*
X629975Y197839D01*
X629911Y197940D01*
X629881Y197968D01*
X629858Y198001D01*
X629766Y198077D01*
X629679Y198158D01*
X629644Y198178D01*
X629613Y198203D01*
X629505Y198254D01*
X629401Y198312D01*
X629361Y198322D01*
X629325Y198339D01*
X629208Y198361D01*
X629093Y198391D01*
X629033Y198395D01*
X629013Y198399D01*
X628992Y198397D01*
X628932Y198401D01*
X625392Y198401D01*
X622581Y201212D01*
X622581Y205188D01*
X625392Y207999D01*
X629368Y207999D01*
X632179Y205188D01*
X632179Y203116D01*
X632194Y202998D01*
X632201Y202879D01*
X632214Y202841D01*
X632219Y202800D01*
X632262Y202690D01*
X632299Y202577D01*
X632321Y202542D01*
X632336Y202505D01*
X632405Y202409D01*
X632469Y202308D01*
X632499Y202280D01*
X632522Y202247D01*
X632614Y202171D01*
X632701Y202090D01*
X632736Y202070D01*
X632767Y202045D01*
X632875Y201994D01*
X632979Y201936D01*
X633019Y201926D01*
X633055Y201909D01*
X633172Y201887D01*
X633287Y201857D01*
X633347Y201853D01*
X633367Y201849D01*
X633388Y201851D01*
X633448Y201847D01*
X636988Y201847D01*
X639799Y199036D01*
X639799Y195060D01*
X636988Y192249D01*
X633012Y192249D01*
G37*
%LPD*%
%LPC*%
G36*
X909872Y218721D02*
X909872Y218721D01*
X907061Y221532D01*
X907061Y225508D01*
X909872Y228319D01*
X910138Y228319D01*
X910256Y228334D01*
X910375Y228341D01*
X910413Y228354D01*
X910454Y228359D01*
X910564Y228402D01*
X910677Y228439D01*
X910712Y228461D01*
X910749Y228476D01*
X910845Y228545D01*
X910946Y228609D01*
X910974Y228639D01*
X911007Y228662D01*
X911083Y228754D01*
X911164Y228841D01*
X911184Y228876D01*
X911209Y228907D01*
X911260Y229015D01*
X911318Y229119D01*
X911328Y229159D01*
X911345Y229195D01*
X911367Y229312D01*
X911397Y229427D01*
X911401Y229487D01*
X911405Y229507D01*
X911403Y229528D01*
X911407Y229588D01*
X911407Y233128D01*
X914218Y235939D01*
X918194Y235939D01*
X921005Y233128D01*
X921005Y229152D01*
X918194Y226341D01*
X917928Y226341D01*
X917810Y226326D01*
X917691Y226319D01*
X917653Y226306D01*
X917612Y226301D01*
X917502Y226258D01*
X917389Y226221D01*
X917354Y226199D01*
X917317Y226184D01*
X917221Y226115D01*
X917120Y226051D01*
X917092Y226021D01*
X917059Y225998D01*
X916983Y225906D01*
X916902Y225819D01*
X916882Y225784D01*
X916857Y225753D01*
X916806Y225645D01*
X916748Y225541D01*
X916738Y225501D01*
X916721Y225465D01*
X916699Y225348D01*
X916669Y225233D01*
X916665Y225173D01*
X916661Y225153D01*
X916663Y225132D01*
X916659Y225072D01*
X916659Y221532D01*
X913848Y218721D01*
X909872Y218721D01*
G37*
%LPD*%
%LPC*%
G36*
X907937Y180677D02*
X907937Y180677D01*
X903880Y180677D01*
X901069Y183488D01*
X901069Y187464D01*
X902295Y188690D01*
X902368Y188784D01*
X902447Y188873D01*
X902465Y188909D01*
X902490Y188941D01*
X902537Y189050D01*
X902591Y189156D01*
X902600Y189196D01*
X902616Y189233D01*
X902635Y189351D01*
X902661Y189466D01*
X902660Y189507D01*
X902666Y189547D01*
X902655Y189665D01*
X902651Y189784D01*
X902640Y189823D01*
X902636Y189863D01*
X902596Y189976D01*
X902563Y190090D01*
X902542Y190125D01*
X902529Y190163D01*
X902462Y190261D01*
X902401Y190364D01*
X902362Y190409D01*
X902350Y190426D01*
X902335Y190439D01*
X902295Y190485D01*
X900457Y192322D01*
X900457Y196298D01*
X903268Y199109D01*
X907244Y199109D01*
X910055Y196298D01*
X910055Y192322D01*
X908829Y191096D01*
X908756Y191002D01*
X908677Y190913D01*
X908659Y190877D01*
X908634Y190845D01*
X908587Y190736D01*
X908532Y190630D01*
X908524Y190590D01*
X908508Y190553D01*
X908489Y190436D01*
X908463Y190320D01*
X908464Y190279D01*
X908458Y190239D01*
X908469Y190121D01*
X908472Y190002D01*
X908484Y189963D01*
X908487Y189923D01*
X908528Y189810D01*
X908561Y189696D01*
X908581Y189661D01*
X908595Y189623D01*
X908662Y189525D01*
X908722Y189422D01*
X908762Y189377D01*
X908774Y189360D01*
X908789Y189347D01*
X908829Y189301D01*
X910666Y187464D01*
X910666Y183488D01*
X908362Y181184D01*
X908277Y181074D01*
X908188Y180967D01*
X908180Y180949D01*
X908167Y180933D01*
X908112Y180805D01*
X908053Y180680D01*
X908051Y180671D01*
X908038Y180671D01*
X907937Y180677D01*
G37*
%LPD*%
%LPC*%
G36*
X1153712Y236501D02*
X1153712Y236501D01*
X1150901Y239312D01*
X1150901Y243288D01*
X1153712Y246099D01*
X1155446Y246099D01*
X1155564Y246114D01*
X1155683Y246121D01*
X1155721Y246134D01*
X1155762Y246139D01*
X1155872Y246182D01*
X1155985Y246219D01*
X1156020Y246241D01*
X1156057Y246256D01*
X1156153Y246325D01*
X1156254Y246389D01*
X1156282Y246419D01*
X1156315Y246442D01*
X1156391Y246534D01*
X1156472Y246621D01*
X1156492Y246656D01*
X1156517Y246687D01*
X1156568Y246795D01*
X1156626Y246899D01*
X1156636Y246939D01*
X1156653Y246975D01*
X1156675Y247092D01*
X1156705Y247207D01*
X1156709Y247267D01*
X1156713Y247287D01*
X1156711Y247308D01*
X1156715Y247368D01*
X1156715Y249638D01*
X1159526Y252449D01*
X1163502Y252449D01*
X1166313Y249638D01*
X1166313Y245662D01*
X1163502Y242851D01*
X1161768Y242851D01*
X1161650Y242836D01*
X1161531Y242829D01*
X1161493Y242816D01*
X1161452Y242811D01*
X1161342Y242768D01*
X1161229Y242731D01*
X1161194Y242709D01*
X1161157Y242694D01*
X1161061Y242625D01*
X1160960Y242561D01*
X1160932Y242531D01*
X1160899Y242508D01*
X1160823Y242416D01*
X1160742Y242329D01*
X1160722Y242294D01*
X1160697Y242263D01*
X1160646Y242155D01*
X1160588Y242051D01*
X1160578Y242011D01*
X1160561Y241975D01*
X1160539Y241858D01*
X1160509Y241743D01*
X1160505Y241683D01*
X1160501Y241663D01*
X1160503Y241642D01*
X1160499Y241582D01*
X1160499Y239312D01*
X1157688Y236501D01*
X1153712Y236501D01*
G37*
%LPD*%
%LPC*%
G36*
X647392Y192249D02*
X647392Y192249D01*
X644581Y195060D01*
X644581Y199036D01*
X647392Y201847D01*
X651367Y201847D01*
X652593Y200621D01*
X652680Y200553D01*
X652720Y200516D01*
X652729Y200511D01*
X652776Y200469D01*
X652812Y200451D01*
X652844Y200426D01*
X652954Y200378D01*
X653060Y200324D01*
X653099Y200316D01*
X653136Y200300D01*
X653254Y200281D01*
X653370Y200255D01*
X653410Y200256D01*
X653450Y200250D01*
X653569Y200261D01*
X653688Y200264D01*
X653727Y200276D01*
X653767Y200279D01*
X653879Y200320D01*
X653993Y200353D01*
X654028Y200373D01*
X654066Y200387D01*
X654165Y200454D01*
X654267Y200514D01*
X654312Y200554D01*
X654329Y200566D01*
X654343Y200581D01*
X654388Y200621D01*
X655614Y201847D01*
X659589Y201847D01*
X662400Y199036D01*
X662400Y195060D01*
X659589Y192249D01*
X655614Y192249D01*
X654388Y193475D01*
X654294Y193548D01*
X654205Y193627D01*
X654169Y193645D01*
X654137Y193670D01*
X654028Y193717D01*
X653922Y193772D01*
X653882Y193780D01*
X653845Y193796D01*
X653727Y193815D01*
X653611Y193841D01*
X653571Y193840D01*
X653531Y193846D01*
X653412Y193835D01*
X653293Y193832D01*
X653255Y193820D01*
X653214Y193817D01*
X653102Y193776D01*
X652988Y193743D01*
X652953Y193723D01*
X652915Y193709D01*
X652817Y193642D01*
X652714Y193582D01*
X652669Y193542D01*
X652652Y193530D01*
X652638Y193515D01*
X652593Y193475D01*
X651367Y192249D01*
X647392Y192249D01*
G37*
%LPD*%
%LPC*%
G36*
X650058Y170753D02*
X650058Y170753D01*
X647247Y173564D01*
X647247Y177540D01*
X650058Y180351D01*
X651792Y180351D01*
X651910Y180366D01*
X652029Y180373D01*
X652067Y180386D01*
X652108Y180391D01*
X652218Y180434D01*
X652331Y180471D01*
X652366Y180493D01*
X652403Y180508D01*
X652499Y180577D01*
X652600Y180641D01*
X652628Y180671D01*
X652661Y180694D01*
X652737Y180786D01*
X652818Y180873D01*
X652838Y180908D01*
X652863Y180939D01*
X652914Y181047D01*
X652972Y181151D01*
X652982Y181191D01*
X652999Y181227D01*
X653021Y181344D01*
X653051Y181459D01*
X653055Y181519D01*
X653059Y181539D01*
X653057Y181560D01*
X653061Y181620D01*
X653061Y183344D01*
X655872Y186155D01*
X659848Y186155D01*
X662659Y183344D01*
X662659Y179368D01*
X659848Y176557D01*
X658114Y176557D01*
X657996Y176542D01*
X657877Y176535D01*
X657839Y176522D01*
X657798Y176517D01*
X657688Y176474D01*
X657575Y176437D01*
X657540Y176415D01*
X657503Y176400D01*
X657407Y176331D01*
X657306Y176267D01*
X657278Y176237D01*
X657245Y176214D01*
X657169Y176122D01*
X657088Y176035D01*
X657068Y176000D01*
X657043Y175969D01*
X656992Y175861D01*
X656934Y175757D01*
X656924Y175717D01*
X656907Y175681D01*
X656885Y175564D01*
X656855Y175449D01*
X656851Y175388D01*
X656847Y175369D01*
X656849Y175348D01*
X656845Y175288D01*
X656845Y173564D01*
X654034Y170753D01*
X650058Y170753D01*
G37*
%LPD*%
%LPC*%
G36*
X1019092Y260377D02*
X1019092Y260377D01*
X1016281Y263188D01*
X1016281Y267687D01*
X1016269Y267785D01*
X1016266Y267884D01*
X1016249Y267942D01*
X1016241Y268002D01*
X1016205Y268094D01*
X1016177Y268189D01*
X1016147Y268241D01*
X1016124Y268298D01*
X1016066Y268378D01*
X1016016Y268463D01*
X1015950Y268539D01*
X1015938Y268555D01*
X1015928Y268563D01*
X1015910Y268584D01*
X1013741Y270752D01*
X1013741Y274728D01*
X1016552Y277539D01*
X1020528Y277539D01*
X1023339Y274728D01*
X1023339Y270229D01*
X1023351Y270131D01*
X1023354Y270032D01*
X1023371Y269974D01*
X1023379Y269914D01*
X1023415Y269822D01*
X1023443Y269727D01*
X1023473Y269675D01*
X1023496Y269618D01*
X1023554Y269538D01*
X1023604Y269453D01*
X1023670Y269377D01*
X1023682Y269361D01*
X1023692Y269353D01*
X1023710Y269332D01*
X1025879Y267164D01*
X1025879Y263188D01*
X1023068Y260377D01*
X1019092Y260377D01*
G37*
%LPD*%
%LPC*%
G36*
X1204512Y12981D02*
X1204512Y12981D01*
X1201701Y15792D01*
X1201701Y19855D01*
X1201725Y19910D01*
X1201779Y20016D01*
X1201788Y20055D01*
X1201804Y20092D01*
X1201823Y20210D01*
X1201849Y20326D01*
X1201848Y20367D01*
X1201854Y20407D01*
X1201843Y20525D01*
X1201839Y20644D01*
X1201828Y20683D01*
X1201824Y20723D01*
X1201784Y20835D01*
X1201751Y20950D01*
X1201731Y20984D01*
X1201717Y21022D01*
X1201650Y21121D01*
X1201589Y21224D01*
X1201550Y21269D01*
X1201538Y21286D01*
X1201523Y21299D01*
X1201483Y21344D01*
X1199415Y23412D01*
X1199415Y27388D01*
X1202226Y30199D01*
X1206202Y30199D01*
X1209013Y27388D01*
X1209013Y23325D01*
X1208989Y23270D01*
X1208935Y23164D01*
X1208926Y23125D01*
X1208910Y23087D01*
X1208891Y22970D01*
X1208865Y22854D01*
X1208866Y22813D01*
X1208860Y22773D01*
X1208871Y22655D01*
X1208875Y22536D01*
X1208886Y22497D01*
X1208890Y22457D01*
X1208930Y22345D01*
X1208963Y22230D01*
X1208983Y22195D01*
X1208997Y22157D01*
X1209064Y22059D01*
X1209125Y21956D01*
X1209164Y21911D01*
X1209176Y21894D01*
X1209191Y21881D01*
X1209231Y21835D01*
X1211299Y19768D01*
X1211299Y15792D01*
X1208488Y12981D01*
X1204512Y12981D01*
G37*
%LPD*%
%LPC*%
G36*
X846372Y190879D02*
X846372Y190879D01*
X843561Y193690D01*
X843561Y198147D01*
X843549Y198245D01*
X843546Y198344D01*
X843529Y198402D01*
X843521Y198462D01*
X843485Y198554D01*
X843457Y198649D01*
X843427Y198701D01*
X843404Y198758D01*
X843346Y198838D01*
X843296Y198923D01*
X843230Y198999D01*
X843218Y199015D01*
X843208Y199023D01*
X843190Y199044D01*
X841021Y201212D01*
X841021Y205188D01*
X843832Y207999D01*
X847808Y207999D01*
X850619Y205188D01*
X850619Y200731D01*
X850631Y200633D01*
X850634Y200534D01*
X850651Y200476D01*
X850659Y200416D01*
X850695Y200324D01*
X850723Y200229D01*
X850753Y200177D01*
X850776Y200120D01*
X850834Y200040D01*
X850884Y199955D01*
X850950Y199879D01*
X850962Y199863D01*
X850972Y199855D01*
X850990Y199834D01*
X853159Y197666D01*
X853159Y193690D01*
X850348Y190879D01*
X846372Y190879D01*
G37*
%LPD*%
%LPC*%
G36*
X968430Y275196D02*
X968430Y275196D01*
X965619Y278007D01*
X965619Y281983D01*
X968430Y284794D01*
X971070Y284794D01*
X971188Y284809D01*
X971307Y284816D01*
X971345Y284828D01*
X971386Y284833D01*
X971496Y284877D01*
X971609Y284914D01*
X971644Y284936D01*
X971681Y284950D01*
X971777Y285020D01*
X971878Y285084D01*
X971906Y285114D01*
X971939Y285137D01*
X972015Y285229D01*
X972096Y285316D01*
X972116Y285351D01*
X972141Y285382D01*
X972192Y285490D01*
X972250Y285594D01*
X972257Y285624D01*
X975150Y288517D01*
X979126Y288517D01*
X981937Y285706D01*
X981937Y281730D01*
X979126Y278919D01*
X976486Y278919D01*
X976368Y278904D01*
X976249Y278897D01*
X976211Y278884D01*
X976170Y278879D01*
X976060Y278836D01*
X975947Y278799D01*
X975912Y278777D01*
X975875Y278762D01*
X975779Y278693D01*
X975678Y278629D01*
X975650Y278599D01*
X975617Y278576D01*
X975541Y278484D01*
X975460Y278397D01*
X975440Y278362D01*
X975415Y278331D01*
X975364Y278223D01*
X975306Y278119D01*
X975299Y278089D01*
X972406Y275196D01*
X968430Y275196D01*
G37*
%LPD*%
%LPC*%
G36*
X945432Y127281D02*
X945432Y127281D01*
X942621Y130092D01*
X942621Y131826D01*
X942606Y131944D01*
X942599Y132063D01*
X942586Y132101D01*
X942581Y132142D01*
X942538Y132252D01*
X942501Y132365D01*
X942479Y132400D01*
X942464Y132437D01*
X942395Y132533D01*
X942331Y132634D01*
X942301Y132662D01*
X942278Y132695D01*
X942186Y132771D01*
X942099Y132852D01*
X942064Y132872D01*
X942033Y132897D01*
X941925Y132948D01*
X941821Y133006D01*
X941781Y133016D01*
X941745Y133033D01*
X941628Y133055D01*
X941513Y133085D01*
X941453Y133089D01*
X941433Y133093D01*
X941412Y133091D01*
X941352Y133095D01*
X940352Y133095D01*
X937541Y135906D01*
X937541Y139882D01*
X940352Y142693D01*
X944328Y142693D01*
X947139Y139882D01*
X947139Y138148D01*
X947154Y138030D01*
X947161Y137911D01*
X947174Y137873D01*
X947179Y137832D01*
X947222Y137722D01*
X947259Y137609D01*
X947281Y137574D01*
X947296Y137537D01*
X947365Y137441D01*
X947429Y137340D01*
X947459Y137312D01*
X947482Y137279D01*
X947574Y137203D01*
X947661Y137122D01*
X947696Y137102D01*
X947727Y137077D01*
X947835Y137026D01*
X947939Y136968D01*
X947979Y136958D01*
X948015Y136941D01*
X948132Y136919D01*
X948247Y136889D01*
X948307Y136885D01*
X948327Y136881D01*
X948348Y136883D01*
X948408Y136879D01*
X949408Y136879D01*
X952219Y134068D01*
X952219Y130092D01*
X949408Y127281D01*
X945432Y127281D01*
G37*
%LPD*%
%LPC*%
G36*
X876852Y85879D02*
X876852Y85879D01*
X874041Y88690D01*
X874041Y92666D01*
X876852Y95477D01*
X880828Y95477D01*
X881371Y94933D01*
X881465Y94860D01*
X881555Y94781D01*
X881591Y94763D01*
X881623Y94738D01*
X881732Y94691D01*
X881838Y94637D01*
X881877Y94628D01*
X881915Y94612D01*
X882032Y94593D01*
X882148Y94567D01*
X882189Y94568D01*
X882229Y94562D01*
X882347Y94573D01*
X882466Y94577D01*
X882505Y94588D01*
X882545Y94592D01*
X882658Y94632D01*
X882772Y94665D01*
X882806Y94686D01*
X882845Y94699D01*
X882943Y94766D01*
X883046Y94827D01*
X883091Y94866D01*
X883108Y94878D01*
X883121Y94893D01*
X883166Y94933D01*
X884472Y96239D01*
X888448Y96239D01*
X891259Y93428D01*
X891259Y89452D01*
X888448Y86641D01*
X884472Y86641D01*
X883928Y87185D01*
X883834Y87258D01*
X883745Y87337D01*
X883709Y87355D01*
X883677Y87380D01*
X883568Y87427D01*
X883462Y87481D01*
X883423Y87490D01*
X883385Y87506D01*
X883268Y87525D01*
X883152Y87551D01*
X883111Y87550D01*
X883071Y87556D01*
X882953Y87545D01*
X882834Y87541D01*
X882795Y87530D01*
X882755Y87526D01*
X882643Y87486D01*
X882528Y87453D01*
X882493Y87432D01*
X882455Y87419D01*
X882357Y87352D01*
X882254Y87291D01*
X882209Y87252D01*
X882192Y87240D01*
X882179Y87225D01*
X882133Y87185D01*
X880828Y85879D01*
X876852Y85879D01*
G37*
%LPD*%
%LPC*%
G36*
X574592Y287301D02*
X574592Y287301D01*
X571781Y290112D01*
X571781Y294088D01*
X574592Y296899D01*
X578568Y296899D01*
X579492Y295974D01*
X579587Y295901D01*
X579676Y295822D01*
X579712Y295804D01*
X579744Y295779D01*
X579853Y295732D01*
X579959Y295678D01*
X579998Y295669D01*
X580036Y295653D01*
X580153Y295634D01*
X580269Y295608D01*
X580310Y295609D01*
X580350Y295603D01*
X580468Y295614D01*
X580587Y295618D01*
X580626Y295629D01*
X580666Y295633D01*
X580779Y295673D01*
X580893Y295706D01*
X580927Y295727D01*
X580966Y295740D01*
X581064Y295807D01*
X581167Y295868D01*
X581212Y295907D01*
X581229Y295919D01*
X581242Y295934D01*
X581287Y295974D01*
X582212Y296899D01*
X586188Y296899D01*
X588999Y294088D01*
X588999Y290112D01*
X586188Y287301D01*
X582212Y287301D01*
X581287Y288226D01*
X581193Y288299D01*
X581104Y288378D01*
X581068Y288396D01*
X581036Y288421D01*
X580927Y288468D01*
X580821Y288522D01*
X580782Y288531D01*
X580744Y288547D01*
X580627Y288566D01*
X580511Y288592D01*
X580470Y288591D01*
X580430Y288597D01*
X580312Y288586D01*
X580193Y288582D01*
X580154Y288571D01*
X580114Y288567D01*
X580002Y288527D01*
X579887Y288494D01*
X579852Y288473D01*
X579814Y288460D01*
X579716Y288393D01*
X579613Y288332D01*
X579568Y288293D01*
X579551Y288281D01*
X579538Y288266D01*
X579492Y288226D01*
X578568Y287301D01*
X574592Y287301D01*
G37*
%LPD*%
%LPC*%
G36*
X574592Y269521D02*
X574592Y269521D01*
X571781Y272332D01*
X571781Y276308D01*
X574592Y279119D01*
X578568Y279119D01*
X579492Y278194D01*
X579587Y278121D01*
X579676Y278042D01*
X579712Y278024D01*
X579744Y277999D01*
X579853Y277952D01*
X579959Y277898D01*
X579998Y277889D01*
X580036Y277873D01*
X580153Y277854D01*
X580269Y277828D01*
X580310Y277829D01*
X580350Y277823D01*
X580468Y277834D01*
X580587Y277838D01*
X580626Y277849D01*
X580666Y277853D01*
X580779Y277893D01*
X580893Y277926D01*
X580927Y277947D01*
X580966Y277960D01*
X581064Y278027D01*
X581167Y278088D01*
X581212Y278127D01*
X581229Y278139D01*
X581242Y278154D01*
X581287Y278194D01*
X582212Y279119D01*
X586188Y279119D01*
X588999Y276308D01*
X588999Y272332D01*
X586188Y269521D01*
X582212Y269521D01*
X581287Y270446D01*
X581193Y270519D01*
X581104Y270598D01*
X581068Y270616D01*
X581036Y270641D01*
X580927Y270688D01*
X580821Y270742D01*
X580782Y270751D01*
X580744Y270767D01*
X580627Y270786D01*
X580511Y270812D01*
X580470Y270811D01*
X580430Y270817D01*
X580312Y270806D01*
X580193Y270802D01*
X580154Y270791D01*
X580114Y270787D01*
X580002Y270747D01*
X579887Y270714D01*
X579852Y270693D01*
X579814Y270680D01*
X579716Y270613D01*
X579613Y270552D01*
X579568Y270513D01*
X579551Y270501D01*
X579538Y270486D01*
X579492Y270446D01*
X578568Y269521D01*
X574592Y269521D01*
G37*
%LPD*%
%LPC*%
G36*
X429812Y122201D02*
X429812Y122201D01*
X427001Y125012D01*
X427001Y128988D01*
X429812Y131799D01*
X433788Y131799D01*
X434713Y130874D01*
X434807Y130801D01*
X434896Y130722D01*
X434932Y130704D01*
X434964Y130679D01*
X435073Y130632D01*
X435179Y130578D01*
X435218Y130569D01*
X435256Y130553D01*
X435373Y130534D01*
X435489Y130508D01*
X435530Y130509D01*
X435570Y130503D01*
X435688Y130514D01*
X435807Y130518D01*
X435846Y130529D01*
X435886Y130533D01*
X435998Y130573D01*
X436113Y130606D01*
X436148Y130627D01*
X436186Y130640D01*
X436284Y130707D01*
X436387Y130768D01*
X436432Y130807D01*
X436449Y130819D01*
X436462Y130834D01*
X436508Y130874D01*
X437432Y131799D01*
X441408Y131799D01*
X444219Y128988D01*
X444219Y125012D01*
X441408Y122201D01*
X437432Y122201D01*
X436508Y123126D01*
X436413Y123199D01*
X436324Y123278D01*
X436288Y123296D01*
X436256Y123321D01*
X436147Y123368D01*
X436041Y123422D01*
X436002Y123431D01*
X435964Y123447D01*
X435847Y123466D01*
X435731Y123492D01*
X435690Y123491D01*
X435650Y123497D01*
X435532Y123486D01*
X435413Y123482D01*
X435374Y123471D01*
X435334Y123467D01*
X435221Y123427D01*
X435107Y123394D01*
X435073Y123373D01*
X435034Y123360D01*
X434936Y123293D01*
X434833Y123232D01*
X434788Y123193D01*
X434771Y123181D01*
X434758Y123166D01*
X434713Y123126D01*
X433788Y122201D01*
X429812Y122201D01*
G37*
%LPD*%
%LPC*%
G36*
X662421Y205231D02*
X662421Y205231D01*
X659891Y207761D01*
X659891Y211671D01*
X659879Y211769D01*
X659876Y211868D01*
X659859Y211926D01*
X659851Y211986D01*
X659815Y212078D01*
X659787Y212173D01*
X659757Y212225D01*
X659734Y212282D01*
X659676Y212362D01*
X659626Y212447D01*
X659560Y212523D01*
X659548Y212539D01*
X659538Y212547D01*
X659520Y212568D01*
X656871Y215216D01*
X656871Y219192D01*
X659682Y222003D01*
X663658Y222003D01*
X666469Y219192D01*
X666469Y215216D01*
X666458Y215205D01*
X666384Y215111D01*
X666306Y215022D01*
X666287Y214986D01*
X666263Y214954D01*
X666215Y214844D01*
X666161Y214739D01*
X666152Y214699D01*
X666136Y214662D01*
X666118Y214544D01*
X666092Y214428D01*
X666093Y214388D01*
X666086Y214348D01*
X666098Y214229D01*
X666101Y214110D01*
X666112Y214071D01*
X666116Y214031D01*
X666157Y213919D01*
X666190Y213805D01*
X666210Y213770D01*
X666224Y213732D01*
X666291Y213633D01*
X666351Y213531D01*
X666391Y213486D01*
X666402Y213469D01*
X666418Y213455D01*
X666458Y213410D01*
X668529Y211339D01*
X668529Y207761D01*
X665999Y205231D01*
X662421Y205231D01*
G37*
%LPD*%
%LPC*%
G36*
X114939Y234549D02*
X114939Y234549D01*
X115019Y235151D01*
X115564Y237185D01*
X116370Y239131D01*
X117423Y240955D01*
X118705Y242626D01*
X120194Y244115D01*
X121865Y245397D01*
X123689Y246450D01*
X125635Y247256D01*
X127669Y247801D01*
X128271Y247881D01*
X128271Y234549D01*
X114939Y234549D01*
G37*
%LPD*%
%LPC*%
G36*
X133349Y229471D02*
X133349Y229471D01*
X146681Y229471D01*
X146601Y228869D01*
X146056Y226835D01*
X145250Y224889D01*
X144197Y223065D01*
X142915Y221394D01*
X141426Y219905D01*
X139755Y218623D01*
X137931Y217570D01*
X135985Y216764D01*
X133951Y216219D01*
X133349Y216139D01*
X133349Y229471D01*
G37*
%LPD*%
%LPC*%
G36*
X127669Y216219D02*
X127669Y216219D01*
X125635Y216764D01*
X123689Y217570D01*
X121865Y218623D01*
X120194Y219905D01*
X118705Y221394D01*
X117423Y223065D01*
X116370Y224889D01*
X115564Y226835D01*
X115019Y228869D01*
X114939Y229471D01*
X128271Y229471D01*
X128271Y216139D01*
X127669Y216219D01*
G37*
%LPD*%
%LPC*%
G36*
X755893Y109219D02*
X755893Y109219D01*
X753363Y111749D01*
X753363Y115327D01*
X755893Y117857D01*
X759471Y117857D01*
X760467Y116860D01*
X760551Y116795D01*
X760604Y116746D01*
X760616Y116739D01*
X760651Y116708D01*
X760687Y116690D01*
X760719Y116665D01*
X760828Y116618D01*
X760934Y116564D01*
X760973Y116555D01*
X761011Y116539D01*
X761128Y116520D01*
X761244Y116494D01*
X761285Y116495D01*
X761325Y116489D01*
X761443Y116500D01*
X761562Y116504D01*
X761601Y116515D01*
X761641Y116519D01*
X761754Y116559D01*
X761868Y116592D01*
X761902Y116613D01*
X761941Y116626D01*
X761988Y116658D01*
X761990Y116659D01*
X762007Y116671D01*
X762039Y116693D01*
X762142Y116754D01*
X762187Y116794D01*
X762204Y116805D01*
X762217Y116820D01*
X762242Y116842D01*
X762248Y116846D01*
X762250Y116849D01*
X762262Y116860D01*
X764021Y118619D01*
X767599Y118619D01*
X770129Y116089D01*
X770129Y112511D01*
X767599Y109981D01*
X764021Y109981D01*
X763024Y110978D01*
X762930Y111051D01*
X762841Y111130D01*
X762805Y111148D01*
X762773Y111173D01*
X762664Y111220D01*
X762558Y111274D01*
X762519Y111283D01*
X762481Y111299D01*
X762364Y111318D01*
X762248Y111344D01*
X762207Y111343D01*
X762167Y111349D01*
X762049Y111338D01*
X761930Y111334D01*
X761891Y111323D01*
X761851Y111319D01*
X761739Y111279D01*
X761624Y111246D01*
X761589Y111225D01*
X761551Y111212D01*
X761453Y111145D01*
X761350Y111084D01*
X761305Y111044D01*
X761288Y111033D01*
X761275Y111018D01*
X761229Y110978D01*
X759471Y109219D01*
X755893Y109219D01*
G37*
%LPD*%
%LPC*%
G36*
X798311Y235711D02*
X798311Y235711D01*
X796337Y237686D01*
X796243Y237759D01*
X796153Y237837D01*
X796117Y237856D01*
X796085Y237881D01*
X795976Y237928D01*
X795870Y237982D01*
X795831Y237991D01*
X795794Y238007D01*
X795676Y238026D01*
X795560Y238052D01*
X795520Y238050D01*
X795480Y238057D01*
X795361Y238046D01*
X795242Y238042D01*
X795203Y238031D01*
X795163Y238027D01*
X795051Y237987D01*
X794937Y237954D01*
X794902Y237933D01*
X794864Y237919D01*
X794765Y237852D01*
X794663Y237792D01*
X794617Y237752D01*
X794601Y237741D01*
X794587Y237725D01*
X794542Y237686D01*
X794091Y237235D01*
X790514Y237235D01*
X787984Y239765D01*
X787984Y243343D01*
X790514Y245873D01*
X794091Y245873D01*
X796066Y243898D01*
X796160Y243825D01*
X796249Y243747D01*
X796285Y243728D01*
X796317Y243703D01*
X796426Y243656D01*
X796532Y243602D01*
X796572Y243593D01*
X796609Y243577D01*
X796727Y243558D01*
X796843Y243532D01*
X796883Y243534D01*
X796923Y243527D01*
X797042Y243538D01*
X797160Y243542D01*
X797199Y243553D01*
X797240Y243557D01*
X797352Y243597D01*
X797466Y243630D01*
X797501Y243651D01*
X797539Y243665D01*
X797637Y243732D01*
X797740Y243792D01*
X797785Y243832D01*
X797802Y243843D01*
X797815Y243859D01*
X797861Y243898D01*
X798311Y244349D01*
X801889Y244349D01*
X804419Y241819D01*
X804419Y238241D01*
X801889Y235711D01*
X798311Y235711D01*
G37*
%LPD*%
%LPC*%
G36*
X767831Y69087D02*
X767831Y69087D01*
X765301Y71617D01*
X765301Y75195D01*
X767831Y77725D01*
X771409Y77725D01*
X772533Y76601D01*
X772627Y76528D01*
X772716Y76449D01*
X772752Y76431D01*
X772784Y76406D01*
X772893Y76359D01*
X772999Y76305D01*
X773038Y76296D01*
X773076Y76280D01*
X773193Y76261D01*
X773309Y76235D01*
X773350Y76236D01*
X773390Y76230D01*
X773508Y76241D01*
X773627Y76245D01*
X773666Y76256D01*
X773706Y76260D01*
X773818Y76300D01*
X773933Y76333D01*
X773968Y76354D01*
X774006Y76367D01*
X774104Y76434D01*
X774207Y76495D01*
X774252Y76535D01*
X774269Y76546D01*
X774282Y76561D01*
X774328Y76601D01*
X775451Y77725D01*
X779029Y77725D01*
X781559Y75195D01*
X781559Y71617D01*
X779029Y69087D01*
X775451Y69087D01*
X774328Y70211D01*
X774233Y70284D01*
X774144Y70363D01*
X774108Y70381D01*
X774076Y70406D01*
X773967Y70453D01*
X773861Y70507D01*
X773822Y70516D01*
X773784Y70532D01*
X773667Y70551D01*
X773551Y70577D01*
X773510Y70576D01*
X773470Y70582D01*
X773352Y70571D01*
X773233Y70567D01*
X773194Y70556D01*
X773154Y70552D01*
X773041Y70512D01*
X772927Y70479D01*
X772893Y70458D01*
X772854Y70445D01*
X772756Y70378D01*
X772653Y70317D01*
X772608Y70277D01*
X772591Y70266D01*
X772578Y70251D01*
X772533Y70211D01*
X771409Y69087D01*
X767831Y69087D01*
G37*
%LPD*%
%LPC*%
G36*
X767831Y82041D02*
X767831Y82041D01*
X765301Y84571D01*
X765301Y88149D01*
X767831Y90679D01*
X771409Y90679D01*
X772533Y89555D01*
X772627Y89482D01*
X772716Y89403D01*
X772752Y89385D01*
X772784Y89360D01*
X772893Y89313D01*
X772999Y89259D01*
X773038Y89250D01*
X773076Y89234D01*
X773193Y89215D01*
X773309Y89189D01*
X773350Y89190D01*
X773390Y89184D01*
X773508Y89195D01*
X773627Y89199D01*
X773666Y89210D01*
X773706Y89214D01*
X773818Y89254D01*
X773933Y89287D01*
X773968Y89308D01*
X774006Y89321D01*
X774104Y89388D01*
X774207Y89449D01*
X774252Y89489D01*
X774269Y89500D01*
X774282Y89515D01*
X774328Y89555D01*
X775451Y90679D01*
X779029Y90679D01*
X781559Y88149D01*
X781559Y84571D01*
X779029Y82041D01*
X775451Y82041D01*
X774328Y83165D01*
X774237Y83235D01*
X774212Y83259D01*
X774206Y83262D01*
X774144Y83317D01*
X774108Y83335D01*
X774076Y83360D01*
X773967Y83407D01*
X773861Y83461D01*
X773822Y83470D01*
X773784Y83486D01*
X773667Y83505D01*
X773551Y83531D01*
X773510Y83530D01*
X773470Y83536D01*
X773352Y83525D01*
X773233Y83521D01*
X773194Y83510D01*
X773154Y83506D01*
X773041Y83466D01*
X772927Y83433D01*
X772893Y83412D01*
X772854Y83399D01*
X772756Y83332D01*
X772653Y83271D01*
X772608Y83231D01*
X772591Y83220D01*
X772578Y83205D01*
X772533Y83165D01*
X771409Y82041D01*
X767831Y82041D01*
G37*
%LPD*%
%LPC*%
G36*
X1036906Y55459D02*
X1036906Y55459D01*
X1034884Y56297D01*
X1033337Y57844D01*
X1032499Y59866D01*
X1032499Y62054D01*
X1033337Y64076D01*
X1034884Y65623D01*
X1036906Y66461D01*
X1039094Y66461D01*
X1041116Y65623D01*
X1042663Y64076D01*
X1043501Y62054D01*
X1043501Y59866D01*
X1042663Y57844D01*
X1041116Y56297D01*
X1039094Y55459D01*
X1036906Y55459D01*
G37*
%LPD*%
%LPC*%
G36*
X549192Y132361D02*
X549192Y132361D01*
X546381Y135172D01*
X546381Y139148D01*
X549192Y141959D01*
X552526Y141959D01*
X552663Y141976D01*
X552802Y141989D01*
X552822Y141996D01*
X552842Y141999D01*
X552970Y142050D01*
X553102Y142097D01*
X553118Y142108D01*
X553137Y142116D01*
X553250Y142197D01*
X553338Y142257D01*
X553350Y142188D01*
X553352Y142118D01*
X553377Y142032D01*
X553393Y141943D01*
X553421Y141880D01*
X553441Y141813D01*
X553486Y141735D01*
X553523Y141653D01*
X553567Y141599D01*
X553602Y141539D01*
X553709Y141418D01*
X555979Y139148D01*
X555979Y135172D01*
X553168Y132361D01*
X549192Y132361D01*
G37*
%LPD*%
%LPC*%
G36*
X909342Y169420D02*
X909342Y169420D01*
X906531Y172231D01*
X906531Y176206D01*
X908835Y178511D01*
X908920Y178620D01*
X909009Y178727D01*
X909017Y178746D01*
X909030Y178762D01*
X909085Y178890D01*
X909144Y179015D01*
X909146Y179023D01*
X909160Y179024D01*
X909260Y179017D01*
X913317Y179017D01*
X916128Y176206D01*
X916128Y172231D01*
X913317Y169420D01*
X909342Y169420D01*
G37*
%LPD*%
%LPC*%
G36*
X986072Y302541D02*
X986072Y302541D01*
X983261Y305352D01*
X983261Y309328D01*
X986072Y312139D01*
X990048Y312139D01*
X992859Y309328D01*
X992859Y305352D01*
X990048Y302541D01*
X986072Y302541D01*
G37*
%LPD*%
%LPC*%
G36*
X960672Y294921D02*
X960672Y294921D01*
X957861Y297732D01*
X957861Y301708D01*
X960672Y304519D01*
X964648Y304519D01*
X967459Y301708D01*
X967459Y297732D01*
X964648Y294921D01*
X960672Y294921D01*
G37*
%LPD*%
%LPC*%
G36*
X511092Y292381D02*
X511092Y292381D01*
X508281Y295192D01*
X508281Y299168D01*
X511092Y301979D01*
X515068Y301979D01*
X517879Y299168D01*
X517879Y295192D01*
X515068Y292381D01*
X511092Y292381D01*
G37*
%LPD*%
%LPC*%
G36*
X864152Y289841D02*
X864152Y289841D01*
X861341Y292652D01*
X861341Y296628D01*
X864152Y299439D01*
X868128Y299439D01*
X870939Y296628D01*
X870939Y292652D01*
X868128Y289841D01*
X864152Y289841D01*
G37*
%LPD*%
%LPC*%
G36*
X1425492Y287301D02*
X1425492Y287301D01*
X1422681Y290112D01*
X1422681Y294088D01*
X1425492Y296899D01*
X1429468Y296899D01*
X1432279Y294088D01*
X1432279Y290112D01*
X1429468Y287301D01*
X1425492Y287301D01*
G37*
%LPD*%
%LPC*%
G36*
X351072Y287301D02*
X351072Y287301D01*
X348261Y290112D01*
X348261Y294088D01*
X351072Y296899D01*
X355048Y296899D01*
X357859Y294088D01*
X357859Y290112D01*
X355048Y287301D01*
X351072Y287301D01*
G37*
%LPD*%
%LPC*%
G36*
X1186732Y284761D02*
X1186732Y284761D01*
X1183921Y287572D01*
X1183921Y291548D01*
X1186732Y294359D01*
X1190708Y294359D01*
X1193519Y291548D01*
X1193519Y287572D01*
X1190708Y284761D01*
X1186732Y284761D01*
G37*
%LPD*%
%LPC*%
G36*
X742232Y277141D02*
X742232Y277141D01*
X739421Y279952D01*
X739421Y283928D01*
X742232Y286739D01*
X746208Y286739D01*
X749019Y283928D01*
X749019Y279952D01*
X746208Y277141D01*
X742232Y277141D01*
G37*
%LPD*%
%LPC*%
G36*
X699052Y277141D02*
X699052Y277141D01*
X696241Y279952D01*
X696241Y283928D01*
X699052Y286739D01*
X703028Y286739D01*
X705839Y283928D01*
X705839Y279952D01*
X703028Y277141D01*
X699052Y277141D01*
G37*
%LPD*%
%LPC*%
G36*
X856532Y272061D02*
X856532Y272061D01*
X853721Y274872D01*
X853721Y278848D01*
X856532Y281659D01*
X860508Y281659D01*
X863319Y278848D01*
X863319Y274872D01*
X860508Y272061D01*
X856532Y272061D01*
G37*
%LPD*%
%LPC*%
G36*
X1334052Y261901D02*
X1334052Y261901D01*
X1331241Y264712D01*
X1331241Y268688D01*
X1334052Y271499D01*
X1338028Y271499D01*
X1340839Y268688D01*
X1340839Y264712D01*
X1338028Y261901D01*
X1334052Y261901D01*
G37*
%LPD*%
%LPC*%
G36*
X1281638Y261901D02*
X1281638Y261901D01*
X1278827Y264712D01*
X1278827Y268688D01*
X1281638Y271499D01*
X1285614Y271499D01*
X1288425Y268688D01*
X1288425Y264712D01*
X1285614Y261901D01*
X1281638Y261901D01*
G37*
%LPD*%
%LPC*%
G36*
X1247692Y261901D02*
X1247692Y261901D01*
X1244881Y264712D01*
X1244881Y268688D01*
X1247692Y271499D01*
X1251668Y271499D01*
X1254479Y268688D01*
X1254479Y264712D01*
X1251668Y261901D01*
X1247692Y261901D01*
G37*
%LPD*%
%LPC*%
G36*
X1105452Y261901D02*
X1105452Y261901D01*
X1102641Y264712D01*
X1102641Y268688D01*
X1105452Y271499D01*
X1109428Y271499D01*
X1112239Y268688D01*
X1112239Y264712D01*
X1109428Y261901D01*
X1105452Y261901D01*
G37*
%LPD*%
%LPC*%
G36*
X1031792Y261901D02*
X1031792Y261901D01*
X1028981Y264712D01*
X1028981Y268688D01*
X1031792Y271499D01*
X1035768Y271499D01*
X1038579Y268688D01*
X1038579Y264712D01*
X1035768Y261901D01*
X1031792Y261901D01*
G37*
%LPD*%
%LPC*%
G36*
X1049572Y259361D02*
X1049572Y259361D01*
X1046761Y262172D01*
X1046761Y266148D01*
X1049572Y268959D01*
X1053548Y268959D01*
X1056359Y266148D01*
X1056359Y262172D01*
X1053548Y259361D01*
X1049572Y259361D01*
G37*
%LPD*%
%LPC*%
G36*
X1222292Y256821D02*
X1222292Y256821D01*
X1219481Y259632D01*
X1219481Y263608D01*
X1222292Y266419D01*
X1226268Y266419D01*
X1229079Y263608D01*
X1229079Y259632D01*
X1226268Y256821D01*
X1222292Y256821D01*
G37*
%LPD*%
%LPC*%
G36*
X1321428Y254357D02*
X1321428Y254357D01*
X1318617Y257168D01*
X1318617Y261144D01*
X1321428Y263955D01*
X1325404Y263955D01*
X1328215Y261144D01*
X1328215Y257168D01*
X1325404Y254357D01*
X1321428Y254357D01*
G37*
%LPD*%
%LPC*%
G36*
X1308652Y254281D02*
X1308652Y254281D01*
X1305841Y257092D01*
X1305841Y261068D01*
X1308652Y263879D01*
X1312628Y263879D01*
X1315439Y261068D01*
X1315439Y257092D01*
X1312628Y254281D01*
X1308652Y254281D01*
G37*
%LPD*%
%LPC*%
G36*
X1128312Y254281D02*
X1128312Y254281D01*
X1125501Y257092D01*
X1125501Y261068D01*
X1128312Y263879D01*
X1132288Y263879D01*
X1135099Y261068D01*
X1135099Y257092D01*
X1132288Y254281D01*
X1128312Y254281D01*
G37*
%LPD*%
%LPC*%
G36*
X582212Y239041D02*
X582212Y239041D01*
X579401Y241852D01*
X579401Y245828D01*
X582212Y248639D01*
X586188Y248639D01*
X588999Y245828D01*
X588999Y241852D01*
X586188Y239041D01*
X582212Y239041D01*
G37*
%LPD*%
%LPC*%
G36*
X1107992Y236501D02*
X1107992Y236501D01*
X1105181Y239312D01*
X1105181Y243288D01*
X1107992Y246099D01*
X1111968Y246099D01*
X1114779Y243288D01*
X1114779Y239312D01*
X1111968Y236501D01*
X1107992Y236501D01*
G37*
%LPD*%
%LPC*%
G36*
X988076Y236501D02*
X988076Y236501D01*
X985265Y239312D01*
X985265Y243288D01*
X988076Y246099D01*
X992052Y246099D01*
X994863Y243288D01*
X994863Y239312D01*
X992052Y236501D01*
X988076Y236501D01*
G37*
%LPD*%
%LPC*%
G36*
X818432Y235231D02*
X818432Y235231D01*
X815621Y238042D01*
X815621Y242018D01*
X818432Y244829D01*
X822408Y244829D01*
X825219Y242018D01*
X825219Y238042D01*
X822408Y235231D01*
X818432Y235231D01*
G37*
%LPD*%
%LPC*%
G36*
X574527Y228291D02*
X574527Y228291D01*
X571716Y231102D01*
X571716Y235077D01*
X574527Y237888D01*
X578503Y237888D01*
X581314Y235077D01*
X581314Y231102D01*
X578503Y228291D01*
X574527Y228291D01*
G37*
%LPD*%
%LPC*%
G36*
X1214874Y226341D02*
X1214874Y226341D01*
X1212063Y229152D01*
X1212063Y233128D01*
X1214874Y235939D01*
X1218850Y235939D01*
X1221661Y233128D01*
X1221661Y229152D01*
X1218850Y226341D01*
X1214874Y226341D01*
G37*
%LPD*%
%LPC*%
G36*
X742486Y225325D02*
X742486Y225325D01*
X739675Y228136D01*
X739675Y232112D01*
X742486Y234923D01*
X746462Y234923D01*
X749273Y232112D01*
X749273Y228136D01*
X746462Y225325D01*
X742486Y225325D01*
G37*
%LPD*%
%LPC*%
G36*
X1229649Y223538D02*
X1229649Y223538D01*
X1226838Y226349D01*
X1226838Y230325D01*
X1229649Y233136D01*
X1233625Y233136D01*
X1236436Y230325D01*
X1236436Y226349D01*
X1233625Y223538D01*
X1229649Y223538D01*
G37*
%LPD*%
%LPC*%
G36*
X851452Y218721D02*
X851452Y218721D01*
X848641Y221532D01*
X848641Y225508D01*
X851452Y228319D01*
X855428Y228319D01*
X858239Y225508D01*
X858239Y221532D01*
X855428Y218721D01*
X851452Y218721D01*
G37*
%LPD*%
%LPC*%
G36*
X335832Y213641D02*
X335832Y213641D01*
X333021Y216452D01*
X333021Y220428D01*
X335832Y223239D01*
X339808Y223239D01*
X342619Y220428D01*
X342619Y216452D01*
X339808Y213641D01*
X335832Y213641D01*
G37*
%LPD*%
%LPC*%
G36*
X996232Y208561D02*
X996232Y208561D01*
X993421Y211372D01*
X993421Y215348D01*
X996232Y218159D01*
X1000208Y218159D01*
X1003019Y215348D01*
X1003019Y211372D01*
X1000208Y208561D01*
X996232Y208561D01*
G37*
%LPD*%
%LPC*%
G36*
X703624Y208053D02*
X703624Y208053D01*
X700813Y210864D01*
X700813Y214840D01*
X703624Y217651D01*
X707600Y217651D01*
X710411Y214840D01*
X710411Y210864D01*
X707600Y208053D01*
X703624Y208053D01*
G37*
%LPD*%
%LPC*%
G36*
X724452Y203481D02*
X724452Y203481D01*
X721641Y206292D01*
X721641Y210268D01*
X724452Y213079D01*
X728428Y213079D01*
X731239Y210268D01*
X731239Y206292D01*
X728428Y203481D01*
X724452Y203481D01*
G37*
%LPD*%
%LPC*%
G36*
X1321352Y200941D02*
X1321352Y200941D01*
X1318541Y203752D01*
X1318541Y207728D01*
X1321352Y210539D01*
X1325328Y210539D01*
X1328139Y207728D01*
X1328139Y203752D01*
X1325328Y200941D01*
X1321352Y200941D01*
G37*
%LPD*%
%LPC*%
G36*
X1133392Y193321D02*
X1133392Y193321D01*
X1130581Y196132D01*
X1130581Y200108D01*
X1133392Y202919D01*
X1137368Y202919D01*
X1140179Y200108D01*
X1140179Y196132D01*
X1137368Y193321D01*
X1133392Y193321D01*
G37*
%LPD*%
%LPC*%
G36*
X947972Y193321D02*
X947972Y193321D01*
X945161Y196132D01*
X945161Y200108D01*
X947972Y202919D01*
X951948Y202919D01*
X954759Y200108D01*
X954759Y196132D01*
X951948Y193321D01*
X947972Y193321D01*
G37*
%LPD*%
%LPC*%
G36*
X682174Y192249D02*
X682174Y192249D01*
X679363Y195060D01*
X679363Y199036D01*
X682174Y201847D01*
X686150Y201847D01*
X688961Y199036D01*
X688961Y195060D01*
X686150Y192249D01*
X682174Y192249D01*
G37*
%LPD*%
%LPC*%
G36*
X1031534Y191159D02*
X1031534Y191159D01*
X1028723Y193970D01*
X1028723Y197946D01*
X1031534Y200757D01*
X1035510Y200757D01*
X1038321Y197946D01*
X1038321Y193970D01*
X1035510Y191159D01*
X1031534Y191159D01*
G37*
%LPD*%
%LPC*%
G36*
X781742Y190781D02*
X781742Y190781D01*
X778931Y193592D01*
X778931Y197568D01*
X781742Y200379D01*
X785718Y200379D01*
X788529Y197568D01*
X788529Y193592D01*
X785718Y190781D01*
X781742Y190781D01*
G37*
%LPD*%
%LPC*%
G36*
X1282518Y188241D02*
X1282518Y188241D01*
X1279707Y191052D01*
X1279707Y195028D01*
X1282518Y197839D01*
X1286494Y197839D01*
X1289305Y195028D01*
X1289305Y191052D01*
X1286494Y188241D01*
X1282518Y188241D01*
G37*
%LPD*%
%LPC*%
G36*
X885808Y183227D02*
X885808Y183227D01*
X882997Y186038D01*
X882997Y190013D01*
X885808Y192824D01*
X889783Y192824D01*
X892594Y190013D01*
X892594Y186038D01*
X889783Y183227D01*
X885808Y183227D01*
G37*
%LPD*%
%LPC*%
G36*
X680256Y176557D02*
X680256Y176557D01*
X677445Y179368D01*
X677445Y183344D01*
X680256Y186155D01*
X684232Y186155D01*
X687043Y183344D01*
X687043Y179368D01*
X684232Y176557D01*
X680256Y176557D01*
G37*
%LPD*%
%LPC*%
G36*
X706267Y176557D02*
X706267Y176557D01*
X703456Y179368D01*
X703456Y183344D01*
X706267Y186155D01*
X710242Y186155D01*
X713053Y183344D01*
X713053Y179368D01*
X710242Y176557D01*
X706267Y176557D01*
G37*
%LPD*%
%LPC*%
G36*
X1316272Y86641D02*
X1316272Y86641D01*
X1313461Y89452D01*
X1313461Y93428D01*
X1316272Y96239D01*
X1320248Y96239D01*
X1323059Y93428D01*
X1323059Y89452D01*
X1320248Y86641D01*
X1316272Y86641D01*
G37*
%LPD*%
%LPC*%
G36*
X724858Y174533D02*
X724858Y174533D01*
X722047Y177344D01*
X722047Y181320D01*
X724858Y184131D01*
X728833Y184131D01*
X731645Y181320D01*
X731645Y177344D01*
X728833Y174533D01*
X724858Y174533D01*
G37*
%LPD*%
%LPC*%
G36*
X1237532Y174148D02*
X1237532Y174148D01*
X1234721Y176959D01*
X1234721Y180935D01*
X1237532Y183746D01*
X1241508Y183746D01*
X1244319Y180935D01*
X1244319Y176959D01*
X1241508Y174148D01*
X1237532Y174148D01*
G37*
%LPD*%
%LPC*%
G36*
X836282Y173071D02*
X836282Y173071D01*
X833471Y175882D01*
X833471Y179858D01*
X836282Y182669D01*
X840258Y182669D01*
X843069Y179858D01*
X843069Y175882D01*
X840258Y173071D01*
X836282Y173071D01*
G37*
%LPD*%
%LPC*%
G36*
X1425492Y173001D02*
X1425492Y173001D01*
X1422681Y175812D01*
X1422681Y179788D01*
X1425492Y182599D01*
X1429468Y182599D01*
X1432279Y179788D01*
X1432279Y175812D01*
X1429468Y173001D01*
X1425492Y173001D01*
G37*
%LPD*%
%LPC*%
G36*
X633012Y173001D02*
X633012Y173001D01*
X630201Y175812D01*
X630201Y179788D01*
X633012Y182599D01*
X636988Y182599D01*
X639799Y179788D01*
X639799Y175812D01*
X636988Y173001D01*
X633012Y173001D01*
G37*
%LPD*%
%LPC*%
G36*
X615232Y173001D02*
X615232Y173001D01*
X612421Y175812D01*
X612421Y179788D01*
X615232Y182599D01*
X619208Y182599D01*
X622019Y179788D01*
X622019Y175812D01*
X619208Y173001D01*
X615232Y173001D01*
G37*
%LPD*%
%LPC*%
G36*
X783943Y172662D02*
X783943Y172662D01*
X781132Y175473D01*
X781132Y179448D01*
X783943Y182259D01*
X787918Y182259D01*
X790729Y179448D01*
X790729Y175473D01*
X787918Y172662D01*
X783943Y172662D01*
G37*
%LPD*%
%LPC*%
G36*
X992570Y169339D02*
X992570Y169339D01*
X989759Y172150D01*
X989759Y176125D01*
X992570Y178936D01*
X996545Y178936D01*
X999356Y176125D01*
X999356Y172150D01*
X996545Y169339D01*
X992570Y169339D01*
G37*
%LPD*%
%LPC*%
G36*
X295192Y169053D02*
X295192Y169053D01*
X292381Y171864D01*
X292381Y175840D01*
X295192Y178651D01*
X299168Y178651D01*
X301979Y175840D01*
X301979Y171864D01*
X299168Y169053D01*
X295192Y169053D01*
G37*
%LPD*%
%LPC*%
G36*
X1053050Y168859D02*
X1053050Y168859D01*
X1050239Y171670D01*
X1050239Y175645D01*
X1053050Y178456D01*
X1057025Y178456D01*
X1059836Y175645D01*
X1059836Y171670D01*
X1057025Y168859D01*
X1053050Y168859D01*
G37*
%LPD*%
%LPC*%
G36*
X1014000Y167909D02*
X1014000Y167909D01*
X1011189Y170720D01*
X1011189Y174695D01*
X1014000Y177506D01*
X1017975Y177506D01*
X1020786Y174695D01*
X1020786Y170720D01*
X1017975Y167909D01*
X1014000Y167909D01*
G37*
%LPD*%
%LPC*%
G36*
X876852Y165419D02*
X876852Y165419D01*
X874041Y168230D01*
X874041Y172206D01*
X876852Y175017D01*
X880828Y175017D01*
X883639Y172206D01*
X883639Y168230D01*
X880828Y165419D01*
X876852Y165419D01*
G37*
%LPD*%
%LPC*%
G36*
X815892Y165381D02*
X815892Y165381D01*
X813081Y168192D01*
X813081Y172168D01*
X815892Y174979D01*
X819868Y174979D01*
X822679Y172168D01*
X822679Y168192D01*
X819868Y165381D01*
X815892Y165381D01*
G37*
%LPD*%
%LPC*%
G36*
X803190Y165381D02*
X803190Y165381D01*
X800379Y168192D01*
X800379Y172168D01*
X803190Y174979D01*
X807166Y174979D01*
X809977Y172168D01*
X809977Y168192D01*
X807166Y165381D01*
X803190Y165381D01*
G37*
%LPD*%
%LPC*%
G36*
X1100372Y162209D02*
X1100372Y162209D01*
X1097561Y165020D01*
X1097561Y168996D01*
X1100372Y171807D01*
X1104348Y171807D01*
X1107159Y168996D01*
X1107159Y165020D01*
X1104348Y162209D01*
X1100372Y162209D01*
G37*
%LPD*%
%LPC*%
G36*
X850252Y159101D02*
X850252Y159101D01*
X847441Y161912D01*
X847441Y165888D01*
X850252Y168699D01*
X854228Y168699D01*
X857039Y165888D01*
X857039Y161912D01*
X854228Y159101D01*
X850252Y159101D01*
G37*
%LPD*%
%LPC*%
G36*
X462832Y157761D02*
X462832Y157761D01*
X460021Y160572D01*
X460021Y164548D01*
X462832Y167359D01*
X466808Y167359D01*
X469619Y164548D01*
X469619Y160572D01*
X466808Y157761D01*
X462832Y157761D01*
G37*
%LPD*%
%LPC*%
G36*
X709005Y155428D02*
X709005Y155428D01*
X706194Y158239D01*
X706194Y162215D01*
X709005Y165026D01*
X712981Y165026D01*
X715792Y162215D01*
X715792Y158239D01*
X712981Y155428D01*
X709005Y155428D01*
G37*
%LPD*%
%LPC*%
G36*
X1059732Y155221D02*
X1059732Y155221D01*
X1056921Y158032D01*
X1056921Y162008D01*
X1059732Y164819D01*
X1063708Y164819D01*
X1066519Y162008D01*
X1066519Y158032D01*
X1063708Y155221D01*
X1059732Y155221D01*
G37*
%LPD*%
%LPC*%
G36*
X485692Y152681D02*
X485692Y152681D01*
X482881Y155492D01*
X482881Y159468D01*
X485692Y162279D01*
X489668Y162279D01*
X492479Y159468D01*
X492479Y155492D01*
X489668Y152681D01*
X485692Y152681D01*
G37*
%LPD*%
%LPC*%
G36*
X753690Y152681D02*
X753690Y152681D01*
X750879Y155492D01*
X750879Y159468D01*
X753690Y162279D01*
X757666Y162279D01*
X760477Y159468D01*
X760477Y155492D01*
X757666Y152681D01*
X753690Y152681D01*
G37*
%LPD*%
%LPC*%
G36*
X1207052Y150141D02*
X1207052Y150141D01*
X1204241Y152952D01*
X1204241Y156928D01*
X1207052Y159739D01*
X1211028Y159739D01*
X1213839Y156928D01*
X1213839Y152952D01*
X1211028Y150141D01*
X1207052Y150141D01*
G37*
%LPD*%
%LPC*%
G36*
X305352Y150141D02*
X305352Y150141D01*
X302541Y152952D01*
X302541Y156928D01*
X305352Y159739D01*
X309328Y159739D01*
X312139Y156928D01*
X312139Y152952D01*
X309328Y150141D01*
X305352Y150141D01*
G37*
%LPD*%
%LPC*%
G36*
X1152316Y148745D02*
X1152316Y148745D01*
X1149505Y151556D01*
X1149505Y155531D01*
X1152316Y158342D01*
X1156291Y158342D01*
X1159102Y155531D01*
X1159102Y151556D01*
X1156291Y148745D01*
X1152316Y148745D01*
G37*
%LPD*%
%LPC*%
G36*
X1331512Y147601D02*
X1331512Y147601D01*
X1328701Y150412D01*
X1328701Y154388D01*
X1331512Y157199D01*
X1335488Y157199D01*
X1338299Y154388D01*
X1338299Y150412D01*
X1335488Y147601D01*
X1331512Y147601D01*
G37*
%LPD*%
%LPC*%
G36*
X1284014Y145315D02*
X1284014Y145315D01*
X1281203Y148126D01*
X1281203Y152102D01*
X1284014Y154913D01*
X1287990Y154913D01*
X1290801Y152102D01*
X1290801Y148126D01*
X1287990Y145315D01*
X1284014Y145315D01*
G37*
%LPD*%
%LPC*%
G36*
X1245152Y145099D02*
X1245152Y145099D01*
X1242341Y147910D01*
X1242341Y151886D01*
X1245152Y154697D01*
X1249128Y154697D01*
X1251939Y151886D01*
X1251939Y147910D01*
X1249128Y145099D01*
X1245152Y145099D01*
G37*
%LPD*%
%LPC*%
G36*
X1255312Y175579D02*
X1255312Y175579D01*
X1252501Y178390D01*
X1252501Y182366D01*
X1255312Y185177D01*
X1259288Y185177D01*
X1262099Y182366D01*
X1262099Y178390D01*
X1259288Y175579D01*
X1255312Y175579D01*
G37*
%LPD*%
%LPC*%
G36*
X1054652Y142521D02*
X1054652Y142521D01*
X1051841Y145332D01*
X1051841Y149308D01*
X1054652Y152119D01*
X1058628Y152119D01*
X1061439Y149308D01*
X1061439Y145332D01*
X1058628Y142521D01*
X1054652Y142521D01*
G37*
%LPD*%
%LPC*%
G36*
X1322698Y138787D02*
X1322698Y138787D01*
X1319887Y141598D01*
X1319887Y145574D01*
X1322698Y148385D01*
X1326674Y148385D01*
X1329485Y145574D01*
X1329485Y141598D01*
X1326674Y138787D01*
X1322698Y138787D01*
G37*
%LPD*%
%LPC*%
G36*
X1309526Y137441D02*
X1309526Y137441D01*
X1306715Y140252D01*
X1306715Y144228D01*
X1309526Y147039D01*
X1313502Y147039D01*
X1316313Y144228D01*
X1316313Y140252D01*
X1313502Y137441D01*
X1309526Y137441D01*
G37*
%LPD*%
%LPC*%
G36*
X810868Y137441D02*
X810868Y137441D01*
X808057Y140252D01*
X808057Y144228D01*
X810868Y147039D01*
X814844Y147039D01*
X817655Y144228D01*
X817655Y140252D01*
X814844Y137441D01*
X810868Y137441D01*
G37*
%LPD*%
%LPC*%
G36*
X826560Y132361D02*
X826560Y132361D01*
X823749Y135172D01*
X823749Y139148D01*
X826560Y141959D01*
X830536Y141959D01*
X833347Y139148D01*
X833347Y135172D01*
X830536Y132361D01*
X826560Y132361D01*
G37*
%LPD*%
%LPC*%
G36*
X688892Y130865D02*
X688892Y130865D01*
X686081Y133676D01*
X686081Y137652D01*
X688892Y140463D01*
X692868Y140463D01*
X695679Y137652D01*
X695679Y133676D01*
X692868Y130865D01*
X688892Y130865D01*
G37*
%LPD*%
%LPC*%
G36*
X1072432Y127281D02*
X1072432Y127281D01*
X1069621Y130092D01*
X1069621Y134068D01*
X1072432Y136879D01*
X1076408Y136879D01*
X1079219Y134068D01*
X1079219Y130092D01*
X1076408Y127281D01*
X1072432Y127281D01*
G37*
%LPD*%
%LPC*%
G36*
X615232Y127281D02*
X615232Y127281D01*
X612421Y130092D01*
X612421Y134068D01*
X615232Y136879D01*
X619208Y136879D01*
X622019Y134068D01*
X622019Y130092D01*
X619208Y127281D01*
X615232Y127281D01*
G37*
%LPD*%
%LPC*%
G36*
X811113Y125042D02*
X811113Y125042D01*
X808302Y127853D01*
X808302Y131829D01*
X811113Y134640D01*
X815089Y134640D01*
X817900Y131829D01*
X817900Y127853D01*
X815089Y125042D01*
X811113Y125042D01*
G37*
%LPD*%
%LPC*%
G36*
X345992Y122201D02*
X345992Y122201D01*
X343181Y125012D01*
X343181Y128988D01*
X345992Y131799D01*
X349968Y131799D01*
X352779Y128988D01*
X352779Y125012D01*
X349968Y122201D01*
X345992Y122201D01*
G37*
%LPD*%
%LPC*%
G36*
X668318Y113311D02*
X668318Y113311D01*
X665507Y116122D01*
X665507Y120098D01*
X668318Y122909D01*
X672294Y122909D01*
X675105Y120098D01*
X675105Y116122D01*
X672294Y113311D01*
X668318Y113311D01*
G37*
%LPD*%
%LPC*%
G36*
X512616Y112295D02*
X512616Y112295D01*
X509805Y115106D01*
X509805Y119082D01*
X512616Y121893D01*
X516592Y121893D01*
X519403Y119082D01*
X519403Y115106D01*
X516592Y112295D01*
X512616Y112295D01*
G37*
%LPD*%
%LPC*%
G36*
X923842Y110771D02*
X923842Y110771D01*
X921031Y113582D01*
X921031Y117558D01*
X923842Y120369D01*
X927818Y120369D01*
X930629Y117558D01*
X930629Y113582D01*
X927818Y110771D01*
X923842Y110771D01*
G37*
%LPD*%
%LPC*%
G36*
X800652Y109501D02*
X800652Y109501D01*
X797841Y112312D01*
X797841Y116288D01*
X800652Y119099D01*
X804628Y119099D01*
X807439Y116288D01*
X807439Y112312D01*
X804628Y109501D01*
X800652Y109501D01*
G37*
%LPD*%
%LPC*%
G36*
X833600Y109065D02*
X833600Y109065D01*
X830789Y111876D01*
X830789Y115852D01*
X833600Y118663D01*
X837576Y118663D01*
X840387Y115852D01*
X840387Y111876D01*
X837576Y109065D01*
X833600Y109065D01*
G37*
%LPD*%
%LPC*%
G36*
X1072432Y106961D02*
X1072432Y106961D01*
X1069621Y109772D01*
X1069621Y113748D01*
X1072432Y116559D01*
X1076408Y116559D01*
X1079219Y113748D01*
X1079219Y109772D01*
X1076408Y106961D01*
X1072432Y106961D01*
G37*
%LPD*%
%LPC*%
G36*
X469451Y101594D02*
X469451Y101594D01*
X466640Y104405D01*
X466640Y108380D01*
X469451Y111191D01*
X473426Y111191D01*
X476237Y108380D01*
X476237Y104405D01*
X473426Y101594D01*
X469451Y101594D01*
G37*
%LPD*%
%LPC*%
G36*
X835555Y93748D02*
X835555Y93748D01*
X832744Y96559D01*
X832744Y100534D01*
X835555Y103345D01*
X839530Y103345D01*
X842341Y100534D01*
X842341Y96559D01*
X839530Y93748D01*
X835555Y93748D01*
G37*
%LPD*%
%LPC*%
G36*
X732279Y93292D02*
X732279Y93292D01*
X729468Y96103D01*
X729468Y100079D01*
X732279Y102890D01*
X736255Y102890D01*
X739066Y100079D01*
X739066Y96103D01*
X736255Y93292D01*
X732279Y93292D01*
G37*
%LPD*%
%LPC*%
G36*
X681272Y93245D02*
X681272Y93245D01*
X678461Y96056D01*
X678461Y100032D01*
X681272Y102843D01*
X685248Y102843D01*
X688059Y100032D01*
X688059Y96056D01*
X685248Y93245D01*
X681272Y93245D01*
G37*
%LPD*%
%LPC*%
G36*
X1073815Y88024D02*
X1073815Y88024D01*
X1071004Y90835D01*
X1071004Y94810D01*
X1073815Y97621D01*
X1077790Y97621D01*
X1080601Y94810D01*
X1080601Y90835D01*
X1077790Y88024D01*
X1073815Y88024D01*
G37*
%LPD*%
%LPC*%
G36*
X448877Y85195D02*
X448877Y85195D01*
X446066Y88006D01*
X446066Y91982D01*
X448877Y94793D01*
X452852Y94793D01*
X455663Y91982D01*
X455663Y88006D01*
X452852Y85195D01*
X448877Y85195D01*
G37*
%LPD*%
%LPC*%
G36*
X518712Y81561D02*
X518712Y81561D01*
X515901Y84372D01*
X515901Y88348D01*
X518712Y91159D01*
X522688Y91159D01*
X525499Y88348D01*
X525499Y84372D01*
X522688Y81561D01*
X518712Y81561D01*
G37*
%LPD*%
%LPC*%
G36*
X949759Y77215D02*
X949759Y77215D01*
X946948Y80026D01*
X946948Y84002D01*
X949759Y86813D01*
X953734Y86813D01*
X956545Y84002D01*
X956545Y80026D01*
X953734Y77215D01*
X949759Y77215D01*
G37*
%LPD*%
%LPC*%
G36*
X495852Y73941D02*
X495852Y73941D01*
X493041Y76752D01*
X493041Y80728D01*
X495852Y83539D01*
X499828Y83539D01*
X502639Y80728D01*
X502639Y76752D01*
X499828Y73941D01*
X495852Y73941D01*
G37*
%LPD*%
%LPC*%
G36*
X1074215Y67079D02*
X1074215Y67079D01*
X1071404Y69890D01*
X1071404Y73865D01*
X1074215Y76676D01*
X1078190Y76676D01*
X1081001Y73865D01*
X1081001Y69890D01*
X1078190Y67079D01*
X1074215Y67079D01*
G37*
%LPD*%
%LPC*%
G36*
X821273Y62210D02*
X821273Y62210D01*
X818462Y65021D01*
X818462Y68997D01*
X821273Y71808D01*
X825249Y71808D01*
X828060Y68997D01*
X828060Y65021D01*
X825249Y62210D01*
X821273Y62210D01*
G37*
%LPD*%
%LPC*%
G36*
X1425492Y58701D02*
X1425492Y58701D01*
X1422681Y61512D01*
X1422681Y65488D01*
X1425492Y68299D01*
X1429468Y68299D01*
X1432279Y65488D01*
X1432279Y61512D01*
X1429468Y58701D01*
X1425492Y58701D01*
G37*
%LPD*%
%LPC*%
G36*
X274872Y58701D02*
X274872Y58701D01*
X272061Y61512D01*
X272061Y65488D01*
X274872Y68299D01*
X278848Y68299D01*
X281659Y65488D01*
X281659Y61512D01*
X278848Y58701D01*
X274872Y58701D01*
G37*
%LPD*%
%LPC*%
G36*
X262172Y58701D02*
X262172Y58701D01*
X259361Y61512D01*
X259361Y65488D01*
X262172Y68299D01*
X266148Y68299D01*
X268959Y65488D01*
X268959Y61512D01*
X266148Y58701D01*
X262172Y58701D01*
G37*
%LPD*%
%LPC*%
G36*
X1230664Y56299D02*
X1230664Y56299D01*
X1227853Y59110D01*
X1227853Y63086D01*
X1230664Y65897D01*
X1234640Y65897D01*
X1237451Y63086D01*
X1237451Y59110D01*
X1234640Y56299D01*
X1230664Y56299D01*
G37*
%LPD*%
%LPC*%
G36*
X488232Y56161D02*
X488232Y56161D01*
X485421Y58972D01*
X485421Y62948D01*
X488232Y65759D01*
X492208Y65759D01*
X495019Y62948D01*
X495019Y58972D01*
X492208Y56161D01*
X488232Y56161D01*
G37*
%LPD*%
%LPC*%
G36*
X465372Y48541D02*
X465372Y48541D01*
X462561Y51352D01*
X462561Y55328D01*
X465372Y58139D01*
X469348Y58139D01*
X472159Y55328D01*
X472159Y51352D01*
X469348Y48541D01*
X465372Y48541D01*
G37*
%LPD*%
%LPC*%
G36*
X1334052Y33301D02*
X1334052Y33301D01*
X1331241Y36112D01*
X1331241Y40088D01*
X1334052Y42899D01*
X1338028Y42899D01*
X1340839Y40088D01*
X1340839Y36112D01*
X1338028Y33301D01*
X1334052Y33301D01*
G37*
%LPD*%
%LPC*%
G36*
X1283252Y33301D02*
X1283252Y33301D01*
X1280441Y36112D01*
X1280441Y40088D01*
X1283252Y42899D01*
X1287228Y42899D01*
X1290039Y40088D01*
X1290039Y36112D01*
X1287228Y33301D01*
X1283252Y33301D01*
G37*
%LPD*%
%LPC*%
G36*
X1153712Y327941D02*
X1153712Y327941D01*
X1150901Y330752D01*
X1150901Y334728D01*
X1153712Y337539D01*
X1157688Y337539D01*
X1160499Y334728D01*
X1160499Y330752D01*
X1157688Y327941D01*
X1153712Y327941D01*
G37*
%LPD*%
%LPC*%
G36*
X1318812Y317781D02*
X1318812Y317781D01*
X1316001Y320592D01*
X1316001Y324568D01*
X1318812Y327379D01*
X1322788Y327379D01*
X1325599Y324568D01*
X1325599Y320592D01*
X1322788Y317781D01*
X1318812Y317781D01*
G37*
%LPD*%
%LPC*%
G36*
X1114900Y315241D02*
X1114900Y315241D01*
X1112089Y318052D01*
X1112089Y322028D01*
X1114900Y324839D01*
X1118876Y324839D01*
X1121687Y322028D01*
X1121687Y318052D01*
X1118876Y315241D01*
X1114900Y315241D01*
G37*
%LPD*%
%LPC*%
G36*
X1322698Y24487D02*
X1322698Y24487D01*
X1319887Y27298D01*
X1319887Y31274D01*
X1322698Y34085D01*
X1326674Y34085D01*
X1329485Y31274D01*
X1329485Y27298D01*
X1326674Y24487D01*
X1322698Y24487D01*
G37*
%LPD*%
%LPC*%
G36*
X1308652Y23141D02*
X1308652Y23141D01*
X1305841Y25952D01*
X1305841Y29928D01*
X1308652Y32739D01*
X1312628Y32739D01*
X1315439Y29928D01*
X1315439Y25952D01*
X1312628Y23141D01*
X1308652Y23141D01*
G37*
%LPD*%
%LPC*%
G36*
X999285Y305594D02*
X999285Y305594D01*
X996474Y308405D01*
X996474Y312380D01*
X999285Y315191D01*
X1003260Y315191D01*
X1006071Y312380D01*
X1006071Y308405D01*
X1003260Y305594D01*
X999285Y305594D01*
G37*
%LPD*%
%LPC*%
G36*
X782872Y15521D02*
X782872Y15521D01*
X780061Y18332D01*
X780061Y22308D01*
X782872Y25119D01*
X786848Y25119D01*
X789659Y22308D01*
X789659Y18332D01*
X786848Y15521D01*
X782872Y15521D01*
G37*
%LPD*%
%LPC*%
G36*
X770172Y12981D02*
X770172Y12981D01*
X767361Y15792D01*
X767361Y19768D01*
X770172Y22579D01*
X774148Y22579D01*
X776959Y19768D01*
X776959Y15792D01*
X774148Y12981D01*
X770172Y12981D01*
G37*
%LPD*%
%LPC*%
G36*
X570048Y9905D02*
X570048Y9905D01*
X567237Y12716D01*
X567237Y16692D01*
X570048Y19503D01*
X574024Y19503D01*
X576835Y16692D01*
X576835Y12716D01*
X574024Y9905D01*
X570048Y9905D01*
G37*
%LPD*%
%LPC*%
G36*
X508552Y5361D02*
X508552Y5361D01*
X505741Y8172D01*
X505741Y12148D01*
X508552Y14959D01*
X512528Y14959D01*
X515339Y12148D01*
X515339Y8172D01*
X512528Y5361D01*
X508552Y5361D01*
G37*
%LPD*%
%LPC*%
G36*
X824020Y4091D02*
X824020Y4091D01*
X821209Y6902D01*
X821209Y10878D01*
X824020Y13689D01*
X827996Y13689D01*
X830807Y10878D01*
X830807Y6902D01*
X827996Y4091D01*
X824020Y4091D01*
G37*
%LPD*%
%LPC*%
G36*
X267451Y189991D02*
X267451Y189991D01*
X264921Y192521D01*
X264921Y196099D01*
X267451Y198629D01*
X271029Y198629D01*
X273559Y196099D01*
X273559Y192521D01*
X271029Y189991D01*
X267451Y189991D01*
G37*
%LPD*%
%LPC*%
G36*
X176011Y254761D02*
X176011Y254761D01*
X173481Y257291D01*
X173481Y260869D01*
X176011Y263399D01*
X179589Y263399D01*
X182119Y260869D01*
X182119Y257291D01*
X179589Y254761D01*
X176011Y254761D01*
G37*
%LPD*%
%LPC*%
G36*
X861811Y123951D02*
X861811Y123951D01*
X859281Y126481D01*
X859281Y130059D01*
X861811Y132589D01*
X865389Y132589D01*
X867919Y130059D01*
X867919Y126481D01*
X865389Y123951D01*
X861811Y123951D01*
G37*
%LPD*%
%LPC*%
G36*
X325871Y300481D02*
X325871Y300481D01*
X323341Y303011D01*
X323341Y306589D01*
X325871Y309119D01*
X329449Y309119D01*
X331979Y306589D01*
X331979Y303011D01*
X329449Y300481D01*
X325871Y300481D01*
G37*
%LPD*%
%LPC*%
G36*
X148071Y257301D02*
X148071Y257301D01*
X145541Y259831D01*
X145541Y263409D01*
X148071Y265939D01*
X151649Y265939D01*
X154179Y263409D01*
X154179Y259831D01*
X151649Y257301D01*
X148071Y257301D01*
G37*
%LPD*%
%LPC*%
G36*
X236971Y295401D02*
X236971Y295401D01*
X234441Y297931D01*
X234441Y301509D01*
X236971Y304039D01*
X240549Y304039D01*
X243079Y301509D01*
X243079Y297931D01*
X240549Y295401D01*
X236971Y295401D01*
G37*
%LPD*%
%LPC*%
G36*
X236971Y282447D02*
X236971Y282447D01*
X234441Y284977D01*
X234441Y288555D01*
X236971Y291085D01*
X240549Y291085D01*
X243079Y288555D01*
X243079Y284977D01*
X240549Y282447D01*
X236971Y282447D01*
G37*
%LPD*%
%LPC*%
G36*
X226811Y236981D02*
X226811Y236981D01*
X224281Y239511D01*
X224281Y243089D01*
X226811Y245619D01*
X230389Y245619D01*
X232919Y243089D01*
X232919Y239511D01*
X230389Y236981D01*
X226811Y236981D01*
G37*
%LPD*%
%LPC*%
G36*
X178551Y239521D02*
X178551Y239521D01*
X176021Y242051D01*
X176021Y245629D01*
X178551Y248159D01*
X182129Y248159D01*
X184659Y245629D01*
X184659Y242051D01*
X182129Y239521D01*
X178551Y239521D01*
G37*
%LPD*%
%LPC*%
G36*
X658865Y128523D02*
X658865Y128523D01*
X656335Y131053D01*
X656335Y134631D01*
X658865Y137161D01*
X662443Y137161D01*
X664973Y134631D01*
X664973Y131053D01*
X662443Y128523D01*
X658865Y128523D01*
G37*
%LPD*%
%LPC*%
G36*
X561339Y311621D02*
X561339Y311621D01*
X561339Y318941D01*
X562700Y318498D01*
X564125Y317772D01*
X564793Y317287D01*
X565419Y316832D01*
X566550Y315701D01*
X567490Y314407D01*
X568216Y312982D01*
X568659Y311621D01*
X561339Y311621D01*
G37*
%LPD*%
%LPC*%
G36*
X637539Y247649D02*
X637539Y247649D01*
X637539Y254969D01*
X638900Y254526D01*
X640325Y253800D01*
X641619Y252860D01*
X642750Y251729D01*
X643690Y250435D01*
X644416Y249010D01*
X644859Y247649D01*
X637539Y247649D01*
G37*
%LPD*%
%LPC*%
G36*
X448309Y165099D02*
X448309Y165099D01*
X448309Y172419D01*
X449670Y171976D01*
X451095Y171250D01*
X452389Y170310D01*
X453520Y169179D01*
X454460Y167885D01*
X455186Y166460D01*
X455629Y165099D01*
X448309Y165099D01*
G37*
%LPD*%
%LPC*%
G36*
X598169Y30479D02*
X598169Y30479D01*
X598169Y37799D01*
X599530Y37356D01*
X600955Y36630D01*
X602249Y35690D01*
X603380Y34559D01*
X604320Y33265D01*
X605046Y31840D01*
X605489Y30479D01*
X598169Y30479D01*
G37*
%LPD*%
%LPC*%
G36*
X662939Y247649D02*
X662939Y247649D01*
X662939Y254969D01*
X664300Y254526D01*
X665725Y253800D01*
X667019Y252860D01*
X668150Y251729D01*
X669090Y250435D01*
X669816Y249010D01*
X670259Y247649D01*
X662939Y247649D01*
G37*
%LPD*%
%LPC*%
G36*
X444499Y60559D02*
X444499Y60559D01*
X444499Y67879D01*
X445860Y67436D01*
X447285Y66710D01*
X448579Y65770D01*
X449710Y64639D01*
X450650Y63345D01*
X451376Y61920D01*
X451819Y60559D01*
X444499Y60559D01*
G37*
%LPD*%
%LPC*%
G36*
X447344Y297433D02*
X447344Y297433D01*
X447344Y304753D01*
X448705Y304310D01*
X450130Y303584D01*
X451424Y302644D01*
X452555Y301513D01*
X453495Y300219D01*
X454221Y298794D01*
X454663Y297433D01*
X447344Y297433D01*
G37*
%LPD*%
%LPC*%
G36*
X598169Y55879D02*
X598169Y55879D01*
X598169Y63199D01*
X599530Y62756D01*
X600955Y62030D01*
X602249Y61090D01*
X603380Y59959D01*
X604320Y58665D01*
X605046Y57240D01*
X605489Y55879D01*
X598169Y55879D01*
G37*
%LPD*%
%LPC*%
G36*
X561339Y98261D02*
X561339Y98261D01*
X561339Y105581D01*
X562700Y105138D01*
X564125Y104412D01*
X565419Y103472D01*
X566550Y102341D01*
X567490Y101047D01*
X568216Y99622D01*
X568659Y98261D01*
X561339Y98261D01*
G37*
%LPD*%
%LPC*%
G36*
X561339Y204941D02*
X561339Y204941D01*
X561339Y212261D01*
X562700Y211818D01*
X564125Y211092D01*
X565419Y210152D01*
X566550Y209021D01*
X567490Y207727D01*
X568216Y206302D01*
X568659Y204941D01*
X561339Y204941D01*
G37*
%LPD*%
%LPC*%
G36*
X612139Y247649D02*
X612139Y247649D01*
X612139Y254969D01*
X613500Y254526D01*
X614925Y253800D01*
X616219Y252860D01*
X617350Y251729D01*
X618290Y250435D01*
X619016Y249010D01*
X619459Y247649D01*
X612139Y247649D01*
G37*
%LPD*%
%LPC*%
G36*
X866139Y322579D02*
X866139Y322579D01*
X866139Y329899D01*
X867500Y329456D01*
X868925Y328730D01*
X870219Y327790D01*
X871350Y326659D01*
X872290Y325365D01*
X873016Y323940D01*
X873459Y322579D01*
X866139Y322579D01*
G37*
%LPD*%
%LPC*%
G36*
X548941Y204941D02*
X548941Y204941D01*
X549384Y206302D01*
X550110Y207727D01*
X551050Y209021D01*
X552181Y210152D01*
X553475Y211092D01*
X554900Y211818D01*
X556261Y212261D01*
X556261Y204941D01*
X548941Y204941D01*
G37*
%LPD*%
%LPC*%
G36*
X662939Y242571D02*
X662939Y242571D01*
X670259Y242571D01*
X669816Y241210D01*
X669090Y239785D01*
X668150Y238491D01*
X667019Y237360D01*
X665725Y236420D01*
X664300Y235694D01*
X662939Y235251D01*
X662939Y242571D01*
G37*
%LPD*%
%LPC*%
G36*
X434946Y297433D02*
X434946Y297433D01*
X435388Y298794D01*
X436115Y300219D01*
X437055Y301513D01*
X438186Y302644D01*
X439479Y303584D01*
X440904Y304310D01*
X442266Y304753D01*
X442266Y297433D01*
X434946Y297433D01*
G37*
%LPD*%
%LPC*%
G36*
X444499Y55481D02*
X444499Y55481D01*
X451819Y55481D01*
X451376Y54120D01*
X450650Y52695D01*
X449710Y51401D01*
X448579Y50270D01*
X447285Y49330D01*
X445860Y48604D01*
X444499Y48161D01*
X444499Y55481D01*
G37*
%LPD*%
%LPC*%
G36*
X598169Y50801D02*
X598169Y50801D01*
X605489Y50801D01*
X605046Y49440D01*
X604320Y48015D01*
X603380Y46721D01*
X602249Y45590D01*
X600955Y44650D01*
X599530Y43924D01*
X598169Y43481D01*
X598169Y50801D01*
G37*
%LPD*%
%LPC*%
G36*
X585771Y30479D02*
X585771Y30479D01*
X586214Y31840D01*
X586940Y33265D01*
X587880Y34559D01*
X589011Y35690D01*
X590305Y36630D01*
X591730Y37356D01*
X593091Y37799D01*
X593091Y30479D01*
X585771Y30479D01*
G37*
%LPD*%
%LPC*%
G36*
X548941Y311621D02*
X548941Y311621D01*
X549384Y312982D01*
X550110Y314407D01*
X551050Y315701D01*
X552181Y316832D01*
X553475Y317772D01*
X554900Y318498D01*
X556261Y318941D01*
X556261Y311621D01*
X548941Y311621D01*
G37*
%LPD*%
%LPC*%
G36*
X853741Y322579D02*
X853741Y322579D01*
X854184Y323940D01*
X854910Y325365D01*
X855850Y326659D01*
X856981Y327790D01*
X858275Y328730D01*
X859700Y329456D01*
X861061Y329899D01*
X861061Y322579D01*
X853741Y322579D01*
G37*
%LPD*%
%LPC*%
G36*
X637539Y242571D02*
X637539Y242571D01*
X644859Y242571D01*
X644416Y241210D01*
X643690Y239785D01*
X642750Y238491D01*
X641619Y237360D01*
X640325Y236420D01*
X638900Y235694D01*
X637539Y235251D01*
X637539Y242571D01*
G37*
%LPD*%
%LPC*%
G36*
X598169Y25401D02*
X598169Y25401D01*
X605489Y25401D01*
X605046Y24040D01*
X604320Y22615D01*
X603380Y21321D01*
X602249Y20190D01*
X600955Y19250D01*
X599530Y18524D01*
X598169Y18081D01*
X598169Y25401D01*
G37*
%LPD*%
%LPC*%
G36*
X650541Y247649D02*
X650541Y247649D01*
X650984Y249010D01*
X651710Y250435D01*
X652650Y251729D01*
X653781Y252860D01*
X655075Y253800D01*
X656500Y254526D01*
X657861Y254969D01*
X657861Y247649D01*
X650541Y247649D01*
G37*
%LPD*%
%LPC*%
G36*
X561339Y93183D02*
X561339Y93183D01*
X568659Y93183D01*
X568216Y91822D01*
X567490Y90397D01*
X566550Y89103D01*
X565419Y87972D01*
X564125Y87032D01*
X562700Y86306D01*
X561339Y85863D01*
X561339Y93183D01*
G37*
%LPD*%
%LPC*%
G36*
X448309Y160021D02*
X448309Y160021D01*
X455629Y160021D01*
X455186Y158660D01*
X454460Y157235D01*
X453520Y155941D01*
X452389Y154810D01*
X451095Y153870D01*
X449670Y153144D01*
X448309Y152701D01*
X448309Y160021D01*
G37*
%LPD*%
%LPC*%
G36*
X548941Y98261D02*
X548941Y98261D01*
X549384Y99622D01*
X550110Y101047D01*
X551050Y102341D01*
X552181Y103472D01*
X553475Y104412D01*
X554900Y105138D01*
X556261Y105581D01*
X556261Y98261D01*
X548941Y98261D01*
G37*
%LPD*%
%LPC*%
G36*
X435911Y165099D02*
X435911Y165099D01*
X436354Y166460D01*
X437080Y167885D01*
X438020Y169179D01*
X439151Y170310D01*
X440445Y171250D01*
X441870Y171976D01*
X443231Y172419D01*
X443231Y165099D01*
X435911Y165099D01*
G37*
%LPD*%
%LPC*%
G36*
X432101Y60559D02*
X432101Y60559D01*
X432544Y61920D01*
X433270Y63345D01*
X434210Y64639D01*
X435341Y65770D01*
X436635Y66710D01*
X438060Y67436D01*
X439421Y67879D01*
X439421Y60559D01*
X432101Y60559D01*
G37*
%LPD*%
%LPC*%
G36*
X625141Y247649D02*
X625141Y247649D01*
X625584Y249010D01*
X626310Y250435D01*
X627250Y251729D01*
X628381Y252860D01*
X629675Y253800D01*
X631100Y254526D01*
X632461Y254969D01*
X632461Y247649D01*
X625141Y247649D01*
G37*
%LPD*%
%LPC*%
G36*
X599741Y247649D02*
X599741Y247649D01*
X600184Y249010D01*
X600910Y250435D01*
X601850Y251729D01*
X602981Y252860D01*
X604275Y253800D01*
X605700Y254526D01*
X607061Y254969D01*
X607061Y247649D01*
X599741Y247649D01*
G37*
%LPD*%
%LPC*%
G36*
X612139Y242571D02*
X612139Y242571D01*
X619459Y242571D01*
X619016Y241210D01*
X618290Y239785D01*
X617350Y238491D01*
X616219Y237360D01*
X614925Y236420D01*
X613500Y235694D01*
X612139Y235251D01*
X612139Y242571D01*
G37*
%LPD*%
%LPC*%
G36*
X585771Y55879D02*
X585771Y55879D01*
X586214Y57240D01*
X586940Y58665D01*
X587880Y59959D01*
X589011Y61090D01*
X590305Y62030D01*
X591730Y62756D01*
X593091Y63199D01*
X593091Y55879D01*
X585771Y55879D01*
G37*
%LPD*%
%LPC*%
G36*
X561339Y306543D02*
X561339Y306543D01*
X568659Y306543D01*
X568216Y305182D01*
X567490Y303757D01*
X566550Y302463D01*
X565419Y301332D01*
X564125Y300392D01*
X562700Y299666D01*
X561339Y299223D01*
X561339Y306543D01*
G37*
%LPD*%
%LPC*%
G36*
X447344Y292355D02*
X447344Y292355D01*
X454663Y292355D01*
X454221Y290994D01*
X453495Y289569D01*
X452555Y288275D01*
X451424Y287144D01*
X450130Y286204D01*
X448705Y285478D01*
X447344Y285035D01*
X447344Y292355D01*
G37*
%LPD*%
%LPC*%
G36*
X866139Y317501D02*
X866139Y317501D01*
X873459Y317501D01*
X873016Y316140D01*
X872290Y314715D01*
X871350Y313421D01*
X870219Y312290D01*
X868925Y311350D01*
X867500Y310624D01*
X866139Y310181D01*
X866139Y317501D01*
G37*
%LPD*%
%LPC*%
G36*
X561339Y199863D02*
X561339Y199863D01*
X568659Y199863D01*
X568507Y199397D01*
X568216Y198502D01*
X567490Y197077D01*
X566550Y195783D01*
X565419Y194652D01*
X564125Y193712D01*
X562700Y192986D01*
X561339Y192543D01*
X561339Y199863D01*
G37*
%LPD*%
%LPC*%
G36*
X438060Y48604D02*
X438060Y48604D01*
X436635Y49330D01*
X435341Y50270D01*
X434210Y51401D01*
X433270Y52695D01*
X432544Y54120D01*
X432101Y55481D01*
X439421Y55481D01*
X439421Y48161D01*
X438060Y48604D01*
G37*
%LPD*%
%LPC*%
G36*
X656500Y235694D02*
X656500Y235694D01*
X655075Y236420D01*
X653781Y237360D01*
X652650Y238491D01*
X651710Y239785D01*
X650984Y241210D01*
X650541Y242571D01*
X657861Y242571D01*
X657861Y235251D01*
X656500Y235694D01*
G37*
%LPD*%
%LPC*%
G36*
X554900Y299666D02*
X554900Y299666D01*
X553475Y300392D01*
X552181Y301332D01*
X551050Y302463D01*
X550110Y303757D01*
X549384Y305182D01*
X548941Y306543D01*
X556261Y306543D01*
X556261Y299223D01*
X554900Y299666D01*
G37*
%LPD*%
%LPC*%
G36*
X441870Y153144D02*
X441870Y153144D01*
X440445Y153870D01*
X439151Y154810D01*
X438020Y155941D01*
X437080Y157235D01*
X436354Y158660D01*
X435911Y160021D01*
X443231Y160021D01*
X443231Y152701D01*
X441870Y153144D01*
G37*
%LPD*%
%LPC*%
G36*
X591730Y18524D02*
X591730Y18524D01*
X590305Y19250D01*
X589011Y20190D01*
X587880Y21321D01*
X586940Y22615D01*
X586214Y24040D01*
X585771Y25401D01*
X593091Y25401D01*
X593091Y18081D01*
X591730Y18524D01*
G37*
%LPD*%
%LPC*%
G36*
X631100Y235694D02*
X631100Y235694D01*
X629675Y236420D01*
X628381Y237360D01*
X627250Y238491D01*
X626310Y239785D01*
X625584Y241210D01*
X625141Y242571D01*
X632461Y242571D01*
X632461Y235251D01*
X631100Y235694D01*
G37*
%LPD*%
%LPC*%
G36*
X859700Y310624D02*
X859700Y310624D01*
X858275Y311350D01*
X856981Y312290D01*
X855850Y313421D01*
X854910Y314715D01*
X854184Y316140D01*
X853741Y317501D01*
X861061Y317501D01*
X861061Y310181D01*
X859700Y310624D01*
G37*
%LPD*%
%LPC*%
G36*
X554900Y86306D02*
X554900Y86306D01*
X553475Y87032D01*
X552181Y87972D01*
X551050Y89103D01*
X550110Y90397D01*
X549384Y91822D01*
X548941Y93183D01*
X556261Y93183D01*
X556261Y85863D01*
X554900Y86306D01*
G37*
%LPD*%
%LPC*%
G36*
X554900Y192986D02*
X554900Y192986D01*
X553475Y193712D01*
X552181Y194652D01*
X551050Y195783D01*
X550110Y197077D01*
X549384Y198502D01*
X548941Y199863D01*
X556261Y199863D01*
X556261Y192543D01*
X554900Y192986D01*
G37*
%LPD*%
%LPC*%
G36*
X605700Y235694D02*
X605700Y235694D01*
X604275Y236420D01*
X602981Y237360D01*
X601850Y238491D01*
X600910Y239785D01*
X600184Y241210D01*
X599741Y242571D01*
X607061Y242571D01*
X607061Y235251D01*
X605700Y235694D01*
G37*
%LPD*%
%LPC*%
G36*
X440904Y285478D02*
X440904Y285478D01*
X439479Y286204D01*
X438186Y287144D01*
X437055Y288275D01*
X436115Y289569D01*
X435388Y290994D01*
X434946Y292355D01*
X442266Y292355D01*
X442266Y285035D01*
X440904Y285478D01*
G37*
%LPD*%
%LPC*%
G36*
X591730Y43924D02*
X591730Y43924D01*
X590305Y44650D01*
X589011Y45590D01*
X587880Y46721D01*
X586940Y48015D01*
X586214Y49440D01*
X585771Y50801D01*
X593091Y50801D01*
X593091Y43481D01*
X591730Y43924D01*
G37*
%LPD*%
%LPC*%
G36*
X66801Y98871D02*
X66801Y98871D01*
X66801Y105242D01*
X67289Y105145D01*
X68861Y104494D01*
X70276Y103549D01*
X71479Y102346D01*
X72424Y100931D01*
X73075Y99359D01*
X73172Y98871D01*
X66801Y98871D01*
G37*
%LPD*%
%LPC*%
G36*
X1067561Y243331D02*
X1067561Y243331D01*
X1067561Y249702D01*
X1068049Y249605D01*
X1069621Y248954D01*
X1071036Y248009D01*
X1072239Y246806D01*
X1073184Y245391D01*
X1073835Y243819D01*
X1073932Y243331D01*
X1067561Y243331D01*
G37*
%LPD*%
%LPC*%
G36*
X183641Y193801D02*
X183641Y193801D01*
X183641Y200172D01*
X184129Y200075D01*
X185701Y199424D01*
X187116Y198479D01*
X188319Y197276D01*
X189264Y195861D01*
X189915Y194289D01*
X190012Y193801D01*
X183641Y193801D01*
G37*
%LPD*%
%LPC*%
G36*
X66801Y94809D02*
X66801Y94809D01*
X73172Y94809D01*
X73075Y94321D01*
X72424Y92749D01*
X71479Y91334D01*
X70276Y90131D01*
X68861Y89186D01*
X67289Y88535D01*
X66801Y88438D01*
X66801Y94809D01*
G37*
%LPD*%
%LPC*%
G36*
X1067561Y239269D02*
X1067561Y239269D01*
X1073932Y239269D01*
X1073835Y238781D01*
X1073184Y237209D01*
X1072239Y235794D01*
X1071036Y234591D01*
X1069621Y233646D01*
X1068049Y232995D01*
X1067561Y232898D01*
X1067561Y239269D01*
G37*
%LPD*%
%LPC*%
G36*
X173208Y193801D02*
X173208Y193801D01*
X173305Y194289D01*
X173956Y195861D01*
X174901Y197276D01*
X176104Y198479D01*
X177519Y199424D01*
X179091Y200075D01*
X179579Y200172D01*
X179579Y193801D01*
X173208Y193801D01*
G37*
%LPD*%
%LPC*%
G36*
X183641Y189739D02*
X183641Y189739D01*
X190012Y189739D01*
X189915Y189251D01*
X189264Y187679D01*
X188319Y186264D01*
X187116Y185061D01*
X185701Y184116D01*
X184129Y183465D01*
X183641Y183368D01*
X183641Y189739D01*
G37*
%LPD*%
%LPC*%
G36*
X1057128Y243331D02*
X1057128Y243331D01*
X1057225Y243819D01*
X1057876Y245391D01*
X1058821Y246806D01*
X1060024Y248009D01*
X1061439Y248954D01*
X1063011Y249605D01*
X1063499Y249702D01*
X1063499Y243331D01*
X1057128Y243331D01*
G37*
%LPD*%
%LPC*%
G36*
X56368Y98871D02*
X56368Y98871D01*
X56465Y99359D01*
X57116Y100931D01*
X58061Y102346D01*
X59264Y103549D01*
X60679Y104494D01*
X62251Y105145D01*
X62739Y105242D01*
X62739Y98871D01*
X56368Y98871D01*
G37*
%LPD*%
%LPC*%
G36*
X1063011Y232995D02*
X1063011Y232995D01*
X1061439Y233646D01*
X1060024Y234591D01*
X1058821Y235794D01*
X1057876Y237209D01*
X1057225Y238781D01*
X1057128Y239269D01*
X1063499Y239269D01*
X1063499Y232898D01*
X1063011Y232995D01*
G37*
%LPD*%
%LPC*%
G36*
X62251Y88535D02*
X62251Y88535D01*
X60679Y89186D01*
X59264Y90131D01*
X58061Y91334D01*
X57116Y92749D01*
X56465Y94321D01*
X56368Y94809D01*
X62739Y94809D01*
X62739Y88438D01*
X62251Y88535D01*
G37*
%LPD*%
%LPC*%
G36*
X179091Y183465D02*
X179091Y183465D01*
X177519Y184116D01*
X176104Y185061D01*
X174901Y186264D01*
X173956Y187679D01*
X173305Y189251D01*
X173208Y189739D01*
X179579Y189739D01*
X179579Y183368D01*
X179091Y183465D01*
G37*
%LPD*%
%LPC*%
G36*
X130809Y232009D02*
X130809Y232009D01*
X130809Y232011D01*
X130811Y232011D01*
X130811Y232009D01*
X130809Y232009D01*
G37*
%LPD*%
%LPC*%
G36*
X609599Y245109D02*
X609599Y245109D01*
X609599Y245111D01*
X609601Y245111D01*
X609601Y245109D01*
X609599Y245109D01*
G37*
%LPD*%
%LPC*%
G36*
X634999Y245109D02*
X634999Y245109D01*
X634999Y245111D01*
X635001Y245111D01*
X635001Y245109D01*
X634999Y245109D01*
G37*
%LPD*%
%LPC*%
G36*
X660399Y245109D02*
X660399Y245109D01*
X660399Y245111D01*
X660401Y245111D01*
X660401Y245109D01*
X660399Y245109D01*
G37*
%LPD*%
%LPC*%
G36*
X1473199Y36829D02*
X1473199Y36829D01*
X1473199Y36831D01*
X1473201Y36831D01*
X1473201Y36829D01*
X1473199Y36829D01*
G37*
%LPD*%
%LPC*%
G36*
X914399Y36829D02*
X914399Y36829D01*
X914399Y36831D01*
X914401Y36831D01*
X914401Y36829D01*
X914399Y36829D01*
G37*
%LPD*%
%LPC*%
G36*
X38099Y36829D02*
X38099Y36829D01*
X38099Y36831D01*
X38101Y36831D01*
X38101Y36829D01*
X38099Y36829D01*
G37*
%LPD*%
%LPC*%
G36*
X863599Y320039D02*
X863599Y320039D01*
X863599Y320041D01*
X863601Y320041D01*
X863601Y320039D01*
X863599Y320039D01*
G37*
%LPD*%
%LPC*%
G36*
X1473199Y312419D02*
X1473199Y312419D01*
X1473199Y312421D01*
X1473201Y312421D01*
X1473201Y312419D01*
X1473199Y312419D01*
G37*
%LPD*%
%LPC*%
G36*
X441959Y58019D02*
X441959Y58019D01*
X441959Y58021D01*
X441961Y58021D01*
X441961Y58019D01*
X441959Y58019D01*
G37*
%LPD*%
%LPC*%
G36*
X445769Y162559D02*
X445769Y162559D01*
X445769Y162561D01*
X445771Y162561D01*
X445771Y162559D01*
X445769Y162559D01*
G37*
%LPD*%
%LPC*%
G36*
X914399Y312419D02*
X914399Y312419D01*
X914399Y312421D01*
X914401Y312421D01*
X914401Y312419D01*
X914399Y312419D01*
G37*
%LPD*%
%LPC*%
G36*
X38099Y312419D02*
X38099Y312419D01*
X38099Y312421D01*
X38101Y312421D01*
X38101Y312419D01*
X38099Y312419D01*
G37*
%LPD*%
%LPC*%
G36*
X595629Y27939D02*
X595629Y27939D01*
X595629Y27941D01*
X595631Y27941D01*
X595631Y27939D01*
X595629Y27939D01*
G37*
%LPD*%
%LPC*%
G36*
X444804Y294893D02*
X444804Y294893D01*
X444804Y294895D01*
X444806Y294895D01*
X444806Y294893D01*
X444804Y294893D01*
G37*
%LPD*%
%LPC*%
G36*
X558799Y95721D02*
X558799Y95721D01*
X558799Y95723D01*
X558801Y95723D01*
X558801Y95721D01*
X558799Y95721D01*
G37*
%LPD*%
%LPC*%
G36*
X558799Y202401D02*
X558799Y202401D01*
X558799Y202403D01*
X558801Y202403D01*
X558801Y202401D01*
X558799Y202401D01*
G37*
%LPD*%
%LPC*%
G36*
X595629Y53339D02*
X595629Y53339D01*
X595629Y53341D01*
X595631Y53341D01*
X595631Y53339D01*
X595629Y53339D01*
G37*
%LPD*%
%LPC*%
G36*
X558799Y309081D02*
X558799Y309081D01*
X558799Y309083D01*
X558801Y309083D01*
X558801Y309081D01*
X558799Y309081D01*
G37*
%LPD*%
D10*
X445770Y187960D03*
X445770Y162560D03*
X444805Y320294D03*
X444805Y294894D03*
X723900Y78740D03*
X723900Y53340D03*
X723900Y27940D03*
D11*
X530860Y145300D03*
X530860Y210300D03*
D12*
X181610Y191770D03*
X214630Y191770D03*
D10*
X595630Y27940D03*
X595630Y53340D03*
X622300Y53340D03*
X647700Y53340D03*
X673100Y53340D03*
X698500Y53340D03*
D13*
X1473200Y312420D03*
X1473200Y36830D03*
X38100Y36830D03*
D10*
X647700Y27940D03*
X622300Y27940D03*
X308610Y135890D03*
X308610Y110890D03*
X685800Y321310D03*
X685800Y245110D03*
X660400Y321310D03*
X660400Y245110D03*
X635000Y321310D03*
X635000Y245110D03*
X609600Y321310D03*
X609600Y245110D03*
D14*
X130810Y182010D03*
X130810Y232010D03*
D15*
X30810Y152010D03*
X30810Y262010D03*
D12*
X64770Y116840D03*
X64770Y96840D03*
D10*
X749300Y78740D03*
X749300Y53340D03*
X749300Y27940D03*
X558800Y259080D03*
X558800Y284081D03*
X558800Y309082D03*
X558800Y152400D03*
X558800Y177401D03*
X558800Y202402D03*
X736600Y320040D03*
X762000Y320040D03*
X787400Y320040D03*
X812800Y320040D03*
X838200Y320040D03*
X863600Y320040D03*
X698500Y27940D03*
X673100Y27940D03*
D12*
X1065530Y241300D03*
X1040130Y241300D03*
D13*
X914400Y312420D03*
X914400Y36830D03*
D10*
X1306830Y279400D03*
X1306830Y304400D03*
X558800Y45720D03*
X558800Y70721D03*
X558800Y95722D03*
X441960Y33020D03*
X441960Y58020D03*
X1306830Y165100D03*
X1306830Y190100D03*
X1308100Y50800D03*
X1308100Y75800D03*
D13*
X38100Y312420D03*
D16*
X744474Y230124D03*
X915559Y256937D03*
X984893Y295534D03*
X977900Y273474D03*
X825500Y213360D03*
X825500Y195580D03*
X805178Y195580D03*
X798294Y176812D03*
X779852Y132152D03*
X833120Y162814D03*
X868680Y162814D03*
X848360Y182880D03*
X868680Y208280D03*
X723900Y93980D03*
X675640Y71120D03*
X838200Y63500D03*
X510540Y60960D03*
X412343Y112543D03*
X416560Y25400D03*
X1372870Y151130D03*
X1374140Y35560D03*
X1374140Y266700D03*
X1239520Y139700D03*
X1259586Y150114D03*
X1066800Y211650D03*
X1031758Y220373D03*
X850862Y291536D03*
X673735Y172085D03*
X929033Y170511D03*
X751840Y246380D03*
X729968Y229334D03*
X1008380Y193040D03*
X201930Y273558D03*
X76200Y7620D03*
X88900Y30480D03*
X83820Y55880D03*
X63500Y71120D03*
X35560Y86360D03*
X12700Y76200D03*
X12700Y104140D03*
X12700Y132080D03*
X12700Y162560D03*
X12700Y187960D03*
X12700Y213360D03*
X12700Y241300D03*
X12700Y274320D03*
X60960Y274320D03*
X78740Y287020D03*
X86360Y309880D03*
X109220Y269240D03*
X76200Y243840D03*
X50800Y223520D03*
X76200Y340360D03*
X335280Y337820D03*
X365760Y337820D03*
X398780Y337820D03*
X363220Y238760D03*
X345440Y243840D03*
X35560Y114300D03*
X185420Y86360D03*
X175260Y66040D03*
X228600Y121920D03*
X243840Y124460D03*
X269240Y167640D03*
X309880Y210820D03*
X312420Y165100D03*
X426720Y22860D03*
X345440Y25400D03*
X474980Y12700D03*
X490220Y12700D03*
X518160Y99060D03*
X551180Y218440D03*
X558800Y220980D03*
X434340Y205740D03*
X452120Y269240D03*
X457200Y276860D03*
X462280Y337820D03*
X571500Y337820D03*
X543560Y327660D03*
X429260Y337820D03*
X297180Y337820D03*
X952500Y335280D03*
X955040Y320040D03*
X965200Y335280D03*
X949960Y10160D03*
X855980Y12700D03*
X868680Y20320D03*
X871220Y12700D03*
X1272540Y10160D03*
X1292860Y10160D03*
X1297940Y119380D03*
X1318260Y119380D03*
X1318260Y233680D03*
X1297940Y233680D03*
X1183640Y271780D03*
X952500Y50800D03*
X772160Y38100D03*
X901700Y231140D03*
X1496060Y279400D03*
X1501140Y337820D03*
X1496060Y71120D03*
X1445260Y279400D03*
X1442720Y337820D03*
X1445260Y12700D03*
X1308100Y340360D03*
X1407160Y233680D03*
X1386840Y233680D03*
X1363980Y233680D03*
X1341120Y233680D03*
X1338580Y119380D03*
X1358900Y119380D03*
X1381760Y119380D03*
X1402080Y119380D03*
X1501140Y10160D03*
X1447800Y68580D03*
X1031240Y337820D03*
X1051560Y337820D03*
X7620Y340360D03*
X7620Y7620D03*
X33020Y185420D03*
D17*
X757682Y113538D03*
D16*
X755678Y157480D03*
X785930Y177460D03*
X739140Y185420D03*
X783730Y195580D03*
X835588Y113864D03*
X852240Y163900D03*
X838270Y177870D03*
X911329Y174219D03*
X848360Y195678D03*
X827902Y266700D03*
X845820Y203200D03*
X1296134Y180340D03*
X1284506Y193040D03*
X337820Y218440D03*
X203200Y248920D03*
X297180Y173852D03*
X347980Y127000D03*
X276860Y63500D03*
X439420Y127000D03*
X693420Y256540D03*
X617220Y132080D03*
X707758Y128128D03*
X684162Y197048D03*
X627380Y203200D03*
X701040Y281940D03*
X899160Y249372D03*
X998220Y213360D03*
X990064Y241300D03*
X1226820Y124460D03*
X1061720Y160020D03*
X1135380Y198120D03*
X994557Y174137D03*
X1109980Y241300D03*
X1188720Y289560D03*
X942340Y137894D03*
X431800Y127000D03*
X837543Y98547D03*
X744220Y281940D03*
D17*
X765810Y114300D03*
D16*
X744756Y191770D03*
X889000Y251460D03*
X780895Y261102D03*
X828548Y137160D03*
X775158Y256142D03*
X812856Y142240D03*
X572036Y14704D03*
X886460Y91440D03*
X894080Y158750D03*
X514604Y117094D03*
X826008Y8890D03*
X823261Y67009D03*
X1056640Y147320D03*
X925830Y115570D03*
X949960Y198120D03*
X867410Y83820D03*
X820420Y240030D03*
X825500Y254000D03*
X1018540Y272740D03*
X896921Y272081D03*
X1021080Y265176D03*
X886460Y274320D03*
X1187816Y167273D03*
X942876Y229380D03*
X1257300Y180378D03*
X1239520Y178947D03*
X1196871Y179076D03*
X933450Y239372D03*
X1209040Y154940D03*
X928272Y244977D03*
X1196340Y167640D03*
X941014Y236944D03*
X1076203Y71877D03*
X856714Y66040D03*
X1074420Y132080D03*
X947420Y132080D03*
X918746Y138430D03*
X896620Y166370D03*
X1075803Y92823D03*
X951747Y82014D03*
X925830Y82268D03*
X868680Y76200D03*
X1074420Y111760D03*
X862796Y70655D03*
D17*
X769620Y73406D03*
X769620Y86360D03*
X761492Y206502D03*
X767559Y215900D03*
X792303Y241554D03*
X863600Y128270D03*
X777240Y73406D03*
X777240Y86360D03*
X766826Y198628D03*
X776703Y215167D03*
X800100Y240030D03*
D16*
X924544Y144173D03*
X916206Y231140D03*
X574096Y113284D03*
X574040Y124968D03*
X574040Y157480D03*
X576515Y233089D03*
X576580Y274320D03*
X576580Y292100D03*
X911860Y223520D03*
X927100Y152400D03*
X581914Y113284D03*
X581914Y125222D03*
X582202Y157480D03*
X584200Y243840D03*
X584200Y274320D03*
X584200Y292100D03*
X734267Y98091D03*
X905256Y194310D03*
X842546Y252956D03*
X905868Y185476D03*
X846755Y244081D03*
D17*
X822960Y271780D03*
X821690Y260350D03*
X767334Y248920D03*
D16*
X817880Y170180D03*
X805178Y170180D03*
X802640Y114300D03*
X813101Y129841D03*
X897128Y175260D03*
X878840Y170218D03*
X858520Y276860D03*
X853440Y223520D03*
X1055037Y173657D03*
X1033780Y266700D03*
X866140Y294640D03*
X307340Y154940D03*
X203200Y238760D03*
X297180Y124460D03*
X274320Y82896D03*
X450864Y89994D03*
X490220Y60960D03*
X487680Y157480D03*
X520700Y198120D03*
X513080Y297180D03*
X464820Y162560D03*
X454660Y309880D03*
X1015987Y172707D03*
X1001272Y310392D03*
X471438Y106393D03*
X1232652Y61098D03*
X1318260Y91440D03*
X1247140Y149898D03*
X1323340Y205740D03*
X1249680Y266700D03*
X1320800Y322580D03*
X922274Y98044D03*
X683260Y98044D03*
X927348Y91192D03*
X682244Y181356D03*
D17*
X327660Y304800D03*
X269240Y194310D03*
X238760Y299720D03*
X238760Y286766D03*
X149860Y261620D03*
X149860Y243840D03*
X180340Y243840D03*
X228600Y241300D03*
X203200Y259390D03*
X177800Y259080D03*
D16*
X1033522Y195958D03*
X1031240Y211650D03*
X1005840Y60960D03*
X1041400Y213360D03*
X1048667Y236220D03*
X1051560Y264160D03*
X970418Y279995D03*
X962660Y299720D03*
X977138Y283718D03*
X988060Y307340D03*
X749274Y197950D03*
X690880Y135664D03*
X710993Y160227D03*
X708254Y181356D03*
X754622Y203298D03*
X705612Y212852D03*
D17*
X664210Y209550D03*
X660654Y132842D03*
D16*
X1211311Y132349D03*
X1206500Y17780D03*
X1191260Y3766D03*
X1216660Y127000D03*
X1204214Y25400D03*
X1323416Y259156D03*
X1310640Y259080D03*
X1336040Y266700D03*
X1283626Y266700D03*
X1427480Y292100D03*
X353060Y292100D03*
X726846Y179332D03*
X746760Y184150D03*
X878840Y90678D03*
X887795Y188025D03*
X264160Y63500D03*
X264160Y83820D03*
X266969Y94249D03*
X551180Y137160D03*
X670306Y118110D03*
X744756Y172204D03*
X772160Y17780D03*
X467360Y53340D03*
X510540Y10160D03*
X784860Y20320D03*
X497840Y78740D03*
X520700Y86360D03*
X726440Y208280D03*
X1324686Y143586D03*
X1311514Y142240D03*
X1333500Y152400D03*
X1286002Y150114D03*
X1427480Y177800D03*
X1324686Y29286D03*
X1310640Y27940D03*
X1336040Y38100D03*
X1285240Y38100D03*
X1427480Y63500D03*
X1154304Y153544D03*
X1102360Y167008D03*
X649380Y197048D03*
X652046Y175552D03*
X708660Y147320D03*
X722094Y147320D03*
X661670Y217204D03*
X617220Y177800D03*
X710466Y135692D03*
X724370Y135692D03*
X635000Y197048D03*
X635000Y177800D03*
X703311Y141971D03*
X730121Y147449D03*
X657602Y197048D03*
X657860Y181356D03*
X1161514Y247650D03*
X1155700Y241300D03*
X1231637Y228337D03*
X1130300Y259080D03*
X1224280Y261620D03*
X1216862Y231140D03*
X1107440Y266700D03*
X1116888Y320040D03*
X1155700Y332740D03*
M02*
