G04 EAGLE Gerber RS-274X export*
G75*
%MOMM*%
%FSLAX34Y34*%
%LPD*%
%IN*%
%IPPOS*%
%AMOC8*
5,1,8,0,0,1.08239X$1,22.5*%
G01*
%ADD10C,0.254000*%


D10*
X0Y0D02*
X1511100Y0D01*
X1511100Y349250D01*
X0Y349250D01*
X0Y0D01*
X994295Y65460D02*
X994880Y65383D01*
X995450Y65230D01*
X995995Y65005D01*
X996505Y64710D01*
X996973Y64351D01*
X997391Y63933D01*
X997750Y63465D01*
X998045Y62955D01*
X998270Y62410D01*
X998423Y61840D01*
X998500Y61255D01*
X998500Y60665D01*
X998423Y60080D01*
X998270Y59510D01*
X998045Y58965D01*
X997750Y58455D01*
X997391Y57987D01*
X996973Y57569D01*
X996505Y57210D01*
X995995Y56915D01*
X995450Y56690D01*
X994880Y56537D01*
X994295Y56460D01*
X993705Y56460D01*
X993120Y56537D01*
X992550Y56690D01*
X992005Y56915D01*
X991495Y57210D01*
X991027Y57569D01*
X990609Y57987D01*
X990250Y58455D01*
X989955Y58965D01*
X989730Y59510D01*
X989577Y60080D01*
X989500Y60665D01*
X989500Y61255D01*
X989577Y61840D01*
X989730Y62410D01*
X989955Y62955D01*
X990250Y63465D01*
X990609Y63933D01*
X991027Y64351D01*
X991495Y64710D01*
X992005Y65005D01*
X992550Y65230D01*
X993120Y65383D01*
X993705Y65460D01*
X994295Y65460D01*
X1038295Y65460D02*
X1038880Y65383D01*
X1039450Y65230D01*
X1039995Y65005D01*
X1040505Y64710D01*
X1040973Y64351D01*
X1041391Y63933D01*
X1041750Y63465D01*
X1042045Y62955D01*
X1042270Y62410D01*
X1042423Y61840D01*
X1042500Y61255D01*
X1042500Y60665D01*
X1042423Y60080D01*
X1042270Y59510D01*
X1042045Y58965D01*
X1041750Y58455D01*
X1041391Y57987D01*
X1040973Y57569D01*
X1040505Y57210D01*
X1039995Y56915D01*
X1039450Y56690D01*
X1038880Y56537D01*
X1038295Y56460D01*
X1037705Y56460D01*
X1037120Y56537D01*
X1036550Y56690D01*
X1036005Y56915D01*
X1035495Y57210D01*
X1035027Y57569D01*
X1034609Y57987D01*
X1034250Y58455D01*
X1033955Y58965D01*
X1033730Y59510D01*
X1033577Y60080D01*
X1033500Y60665D01*
X1033500Y61255D01*
X1033577Y61840D01*
X1033730Y62410D01*
X1033955Y62955D01*
X1034250Y63465D01*
X1034609Y63933D01*
X1035027Y64351D01*
X1035495Y64710D01*
X1036005Y65005D01*
X1036550Y65230D01*
X1037120Y65383D01*
X1037705Y65460D01*
X1038295Y65460D01*
M02*
