G04 EAGLE Gerber RS-274X export*
G75*
%MOMM*%
%FSLAX34Y34*%
%LPD*%
%INSolderpaste Top*%
%IPPOS*%
%AMOC8*
5,1,8,0,0,1.08239X$1,22.5*%
G01*
%ADD10R,1.600000X1.400000*%
%ADD11R,2.000000X1.200000*%
%ADD12R,1.080000X1.050000*%
%ADD13R,1.600000X1.300000*%
%ADD14R,1.300000X1.600000*%
%ADD15R,1.050000X1.080000*%
%ADD16R,1.460000X1.310000*%
%ADD17C,0.610000*%
%ADD18R,1.200000X1.400000*%
%ADD19R,1.400000X1.200000*%
%ADD20R,0.900000X0.950000*%
%ADD21R,1.778000X2.540000*%
%ADD22R,1.000000X1.100000*%
%ADD23R,1.100000X1.000000*%
%ADD24R,1.270000X0.292100*%
%ADD25R,0.500000X0.750000*%
%ADD26R,1.200000X1.800000*%
%ADD27R,1.200000X2.200000*%
%ADD28R,1.600000X1.500000*%
%ADD29R,0.558000X1.970000*%
%ADD30R,1.302500X0.431800*%
%ADD31R,0.500000X2.500000*%
%ADD32R,2.000000X2.500000*%
%ADD33R,1.200000X0.800000*%
%ADD34R,0.800000X1.200000*%
%ADD35C,0.609600*%
%ADD36R,9.600000X6.800000*%
%ADD37R,0.198119X0.660400*%
%ADD38R,0.660400X0.198119*%
%ADD39R,0.350000X0.500000*%
%ADD40R,0.800000X1.800000*%


D10*
X595000Y130450D03*
X595000Y85450D03*
X675000Y85450D03*
X675000Y130450D03*
D11*
X455960Y110490D03*
X427960Y110490D03*
D12*
X265430Y258940D03*
X265430Y241440D03*
X1043940Y190360D03*
X1043940Y172860D03*
D13*
X960120Y242410D03*
X960120Y222410D03*
D14*
X1001870Y256540D03*
X981870Y256540D03*
D13*
X1064260Y296070D03*
X1064260Y316070D03*
D15*
X988200Y332740D03*
X1005700Y332740D03*
X1084440Y193040D03*
X1066940Y193040D03*
D11*
X455960Y245110D03*
X427960Y245110D03*
D16*
X393400Y63500D03*
X393400Y82300D03*
X393400Y44700D03*
X413700Y82300D03*
X413700Y63500D03*
X413700Y44700D03*
X373100Y82300D03*
X373100Y63500D03*
X373100Y44700D03*
D17*
X338000Y83350D02*
X315800Y83350D01*
X315800Y89450D01*
X338000Y89450D01*
X338000Y83350D01*
X338000Y89145D02*
X315800Y89145D01*
X315800Y37550D02*
X338000Y37550D01*
X315800Y37550D02*
X315800Y43650D01*
X338000Y43650D01*
X338000Y37550D01*
X338000Y43345D02*
X315800Y43345D01*
D18*
X142000Y25400D03*
X112000Y25400D03*
X150100Y327660D03*
X180100Y327660D03*
D19*
X938530Y91680D03*
X938530Y121680D03*
D18*
X200900Y327660D03*
X230900Y327660D03*
X251700Y327660D03*
X281700Y327660D03*
D20*
X939040Y266700D03*
X907540Y266700D03*
D18*
X142000Y76200D03*
X112000Y76200D03*
X142000Y50800D03*
X112000Y50800D03*
D19*
X913130Y91680D03*
X913130Y121680D03*
X695960Y94220D03*
X695960Y124220D03*
X695960Y171690D03*
X695960Y201690D03*
D18*
X99300Y327660D03*
X129300Y327660D03*
D21*
X1012190Y195580D03*
X1012190Y154940D03*
X974090Y195580D03*
X974090Y154940D03*
D22*
X255660Y50800D03*
X272660Y50800D03*
X105800Y304800D03*
X122800Y304800D03*
D23*
X1000862Y110880D03*
X1000862Y127880D03*
X1023163Y110474D03*
X1023163Y127474D03*
D22*
X255660Y25400D03*
X272660Y25400D03*
X156600Y304800D03*
X173600Y304800D03*
X207400Y304800D03*
X224400Y304800D03*
X258200Y304800D03*
X275200Y304800D03*
D23*
X1158240Y174380D03*
X1158240Y191380D03*
X1140460Y174380D03*
X1140460Y191380D03*
X1122680Y174380D03*
X1122680Y191380D03*
X1176020Y174380D03*
X1176020Y191380D03*
D22*
X1001640Y228600D03*
X984640Y228600D03*
X1005450Y278130D03*
X988450Y278130D03*
D23*
X1038860Y314570D03*
X1038860Y297570D03*
X1045362Y109915D03*
X1045362Y126915D03*
X960120Y263280D03*
X960120Y280280D03*
D22*
X255660Y74930D03*
X272660Y74930D03*
D10*
X595000Y209190D03*
X595000Y164190D03*
X675000Y164190D03*
X675000Y209190D03*
D24*
G36*
X733795Y171423D02*
X724816Y162444D01*
X722751Y164509D01*
X731730Y173488D01*
X733795Y171423D01*
G37*
G36*
X737330Y167887D02*
X728351Y158908D01*
X726286Y160973D01*
X735265Y169952D01*
X737330Y167887D01*
G37*
G36*
X740866Y164352D02*
X731887Y155373D01*
X729822Y157438D01*
X738801Y166417D01*
X740866Y164352D01*
G37*
G36*
X744401Y160816D02*
X735422Y151837D01*
X733357Y153902D01*
X742336Y162881D01*
X744401Y160816D01*
G37*
G36*
X747937Y157280D02*
X738958Y148301D01*
X736893Y150366D01*
X745872Y159345D01*
X747937Y157280D01*
G37*
G36*
X751472Y153745D02*
X742493Y144766D01*
X740428Y146831D01*
X749407Y155810D01*
X751472Y153745D01*
G37*
G36*
X755008Y150209D02*
X746029Y141230D01*
X743964Y143295D01*
X752943Y152274D01*
X755008Y150209D01*
G37*
G36*
X758544Y146674D02*
X749565Y137695D01*
X747500Y139760D01*
X756479Y148739D01*
X758544Y146674D01*
G37*
G36*
X762079Y143138D02*
X753100Y134159D01*
X751035Y136224D01*
X760014Y145203D01*
X762079Y143138D01*
G37*
G36*
X765615Y139603D02*
X756636Y130624D01*
X754571Y132689D01*
X763550Y141668D01*
X765615Y139603D01*
G37*
G36*
X769150Y136067D02*
X760171Y127088D01*
X758106Y129153D01*
X767085Y138132D01*
X769150Y136067D01*
G37*
G36*
X772686Y132532D02*
X763707Y123553D01*
X761642Y125618D01*
X770621Y134597D01*
X772686Y132532D01*
G37*
G36*
X776221Y128996D02*
X767242Y120017D01*
X765177Y122082D01*
X774156Y131061D01*
X776221Y128996D01*
G37*
G36*
X779757Y125461D02*
X770778Y116482D01*
X768713Y118547D01*
X777692Y127526D01*
X779757Y125461D01*
G37*
G36*
X783292Y121925D02*
X774313Y112946D01*
X772248Y115011D01*
X781227Y123990D01*
X783292Y121925D01*
G37*
G36*
X786828Y118390D02*
X777849Y109411D01*
X775784Y111476D01*
X784763Y120455D01*
X786828Y118390D01*
G37*
G36*
X790363Y114854D02*
X781384Y105875D01*
X779319Y107940D01*
X788298Y116919D01*
X790363Y114854D01*
G37*
G36*
X793899Y111319D02*
X784920Y102340D01*
X782855Y104405D01*
X791834Y113384D01*
X793899Y111319D01*
G37*
G36*
X797434Y107783D02*
X788455Y98804D01*
X786390Y100869D01*
X795369Y109848D01*
X797434Y107783D01*
G37*
G36*
X800970Y104247D02*
X791991Y95268D01*
X789926Y97333D01*
X798905Y106312D01*
X800970Y104247D01*
G37*
G36*
X804505Y100712D02*
X795526Y91733D01*
X793461Y93798D01*
X802440Y102777D01*
X804505Y100712D01*
G37*
G36*
X808041Y97176D02*
X799062Y88197D01*
X796997Y90262D01*
X805976Y99241D01*
X808041Y97176D01*
G37*
G36*
X811577Y93641D02*
X802598Y84662D01*
X800533Y86727D01*
X809512Y95706D01*
X811577Y93641D01*
G37*
G36*
X815112Y90105D02*
X806133Y81126D01*
X804068Y83191D01*
X813047Y92170D01*
X815112Y90105D01*
G37*
G36*
X818648Y86570D02*
X809669Y77591D01*
X807604Y79656D01*
X816583Y88635D01*
X818648Y86570D01*
G37*
G36*
X834417Y88635D02*
X843396Y79656D01*
X841331Y77591D01*
X832352Y86570D01*
X834417Y88635D01*
G37*
G36*
X837953Y92170D02*
X846932Y83191D01*
X844867Y81126D01*
X835888Y90105D01*
X837953Y92170D01*
G37*
G36*
X841488Y95706D02*
X850467Y86727D01*
X848402Y84662D01*
X839423Y93641D01*
X841488Y95706D01*
G37*
G36*
X845024Y99241D02*
X854003Y90262D01*
X851938Y88197D01*
X842959Y97176D01*
X845024Y99241D01*
G37*
G36*
X848560Y102777D02*
X857539Y93798D01*
X855474Y91733D01*
X846495Y100712D01*
X848560Y102777D01*
G37*
G36*
X852095Y106312D02*
X861074Y97333D01*
X859009Y95268D01*
X850030Y104247D01*
X852095Y106312D01*
G37*
G36*
X855631Y109848D02*
X864610Y100869D01*
X862545Y98804D01*
X853566Y107783D01*
X855631Y109848D01*
G37*
G36*
X859166Y113384D02*
X868145Y104405D01*
X866080Y102340D01*
X857101Y111319D01*
X859166Y113384D01*
G37*
G36*
X862702Y116919D02*
X871681Y107940D01*
X869616Y105875D01*
X860637Y114854D01*
X862702Y116919D01*
G37*
G36*
X866237Y120455D02*
X875216Y111476D01*
X873151Y109411D01*
X864172Y118390D01*
X866237Y120455D01*
G37*
G36*
X869773Y123990D02*
X878752Y115011D01*
X876687Y112946D01*
X867708Y121925D01*
X869773Y123990D01*
G37*
G36*
X873308Y127526D02*
X882287Y118547D01*
X880222Y116482D01*
X871243Y125461D01*
X873308Y127526D01*
G37*
G36*
X876844Y131061D02*
X885823Y122082D01*
X883758Y120017D01*
X874779Y128996D01*
X876844Y131061D01*
G37*
G36*
X880379Y134597D02*
X889358Y125618D01*
X887293Y123553D01*
X878314Y132532D01*
X880379Y134597D01*
G37*
G36*
X883915Y138132D02*
X892894Y129153D01*
X890829Y127088D01*
X881850Y136067D01*
X883915Y138132D01*
G37*
G36*
X887450Y141668D02*
X896429Y132689D01*
X894364Y130624D01*
X885385Y139603D01*
X887450Y141668D01*
G37*
G36*
X890986Y145203D02*
X899965Y136224D01*
X897900Y134159D01*
X888921Y143138D01*
X890986Y145203D01*
G37*
G36*
X894521Y148739D02*
X903500Y139760D01*
X901435Y137695D01*
X892456Y146674D01*
X894521Y148739D01*
G37*
G36*
X898057Y152274D02*
X907036Y143295D01*
X904971Y141230D01*
X895992Y150209D01*
X898057Y152274D01*
G37*
G36*
X901593Y155810D02*
X910572Y146831D01*
X908507Y144766D01*
X899528Y153745D01*
X901593Y155810D01*
G37*
G36*
X905128Y159345D02*
X914107Y150366D01*
X912042Y148301D01*
X903063Y157280D01*
X905128Y159345D01*
G37*
G36*
X908664Y162881D02*
X917643Y153902D01*
X915578Y151837D01*
X906599Y160816D01*
X908664Y162881D01*
G37*
G36*
X912199Y166417D02*
X921178Y157438D01*
X919113Y155373D01*
X910134Y164352D01*
X912199Y166417D01*
G37*
G36*
X915735Y169952D02*
X924714Y160973D01*
X922649Y158908D01*
X913670Y167887D01*
X915735Y169952D01*
G37*
G36*
X919270Y173488D02*
X928249Y164509D01*
X926184Y162444D01*
X917205Y171423D01*
X919270Y173488D01*
G37*
G36*
X917205Y189257D02*
X926184Y198236D01*
X928249Y196171D01*
X919270Y187192D01*
X917205Y189257D01*
G37*
G36*
X913670Y192793D02*
X922649Y201772D01*
X924714Y199707D01*
X915735Y190728D01*
X913670Y192793D01*
G37*
G36*
X910134Y196328D02*
X919113Y205307D01*
X921178Y203242D01*
X912199Y194263D01*
X910134Y196328D01*
G37*
G36*
X906599Y199864D02*
X915578Y208843D01*
X917643Y206778D01*
X908664Y197799D01*
X906599Y199864D01*
G37*
G36*
X903063Y203400D02*
X912042Y212379D01*
X914107Y210314D01*
X905128Y201335D01*
X903063Y203400D01*
G37*
G36*
X899528Y206935D02*
X908507Y215914D01*
X910572Y213849D01*
X901593Y204870D01*
X899528Y206935D01*
G37*
G36*
X895992Y210471D02*
X904971Y219450D01*
X907036Y217385D01*
X898057Y208406D01*
X895992Y210471D01*
G37*
G36*
X892456Y214006D02*
X901435Y222985D01*
X903500Y220920D01*
X894521Y211941D01*
X892456Y214006D01*
G37*
G36*
X888921Y217542D02*
X897900Y226521D01*
X899965Y224456D01*
X890986Y215477D01*
X888921Y217542D01*
G37*
G36*
X885385Y221077D02*
X894364Y230056D01*
X896429Y227991D01*
X887450Y219012D01*
X885385Y221077D01*
G37*
G36*
X881850Y224613D02*
X890829Y233592D01*
X892894Y231527D01*
X883915Y222548D01*
X881850Y224613D01*
G37*
G36*
X878314Y228148D02*
X887293Y237127D01*
X889358Y235062D01*
X880379Y226083D01*
X878314Y228148D01*
G37*
G36*
X874779Y231684D02*
X883758Y240663D01*
X885823Y238598D01*
X876844Y229619D01*
X874779Y231684D01*
G37*
G36*
X871243Y235219D02*
X880222Y244198D01*
X882287Y242133D01*
X873308Y233154D01*
X871243Y235219D01*
G37*
G36*
X867708Y238755D02*
X876687Y247734D01*
X878752Y245669D01*
X869773Y236690D01*
X867708Y238755D01*
G37*
G36*
X864172Y242290D02*
X873151Y251269D01*
X875216Y249204D01*
X866237Y240225D01*
X864172Y242290D01*
G37*
G36*
X860637Y245826D02*
X869616Y254805D01*
X871681Y252740D01*
X862702Y243761D01*
X860637Y245826D01*
G37*
G36*
X857101Y249361D02*
X866080Y258340D01*
X868145Y256275D01*
X859166Y247296D01*
X857101Y249361D01*
G37*
G36*
X853566Y252897D02*
X862545Y261876D01*
X864610Y259811D01*
X855631Y250832D01*
X853566Y252897D01*
G37*
G36*
X850030Y256433D02*
X859009Y265412D01*
X861074Y263347D01*
X852095Y254368D01*
X850030Y256433D01*
G37*
G36*
X846495Y259968D02*
X855474Y268947D01*
X857539Y266882D01*
X848560Y257903D01*
X846495Y259968D01*
G37*
G36*
X842959Y263504D02*
X851938Y272483D01*
X854003Y270418D01*
X845024Y261439D01*
X842959Y263504D01*
G37*
G36*
X839423Y267039D02*
X848402Y276018D01*
X850467Y273953D01*
X841488Y264974D01*
X839423Y267039D01*
G37*
G36*
X835888Y270575D02*
X844867Y279554D01*
X846932Y277489D01*
X837953Y268510D01*
X835888Y270575D01*
G37*
G36*
X832352Y274110D02*
X841331Y283089D01*
X843396Y281024D01*
X834417Y272045D01*
X832352Y274110D01*
G37*
G36*
X816583Y272045D02*
X807604Y281024D01*
X809669Y283089D01*
X818648Y274110D01*
X816583Y272045D01*
G37*
G36*
X813047Y268510D02*
X804068Y277489D01*
X806133Y279554D01*
X815112Y270575D01*
X813047Y268510D01*
G37*
G36*
X809512Y264974D02*
X800533Y273953D01*
X802598Y276018D01*
X811577Y267039D01*
X809512Y264974D01*
G37*
G36*
X805976Y261439D02*
X796997Y270418D01*
X799062Y272483D01*
X808041Y263504D01*
X805976Y261439D01*
G37*
G36*
X802440Y257903D02*
X793461Y266882D01*
X795526Y268947D01*
X804505Y259968D01*
X802440Y257903D01*
G37*
G36*
X798905Y254368D02*
X789926Y263347D01*
X791991Y265412D01*
X800970Y256433D01*
X798905Y254368D01*
G37*
G36*
X795369Y250832D02*
X786390Y259811D01*
X788455Y261876D01*
X797434Y252897D01*
X795369Y250832D01*
G37*
G36*
X791834Y247296D02*
X782855Y256275D01*
X784920Y258340D01*
X793899Y249361D01*
X791834Y247296D01*
G37*
G36*
X788298Y243761D02*
X779319Y252740D01*
X781384Y254805D01*
X790363Y245826D01*
X788298Y243761D01*
G37*
G36*
X784763Y240225D02*
X775784Y249204D01*
X777849Y251269D01*
X786828Y242290D01*
X784763Y240225D01*
G37*
G36*
X781227Y236690D02*
X772248Y245669D01*
X774313Y247734D01*
X783292Y238755D01*
X781227Y236690D01*
G37*
G36*
X777692Y233154D02*
X768713Y242133D01*
X770778Y244198D01*
X779757Y235219D01*
X777692Y233154D01*
G37*
G36*
X774156Y229619D02*
X765177Y238598D01*
X767242Y240663D01*
X776221Y231684D01*
X774156Y229619D01*
G37*
G36*
X770621Y226083D02*
X761642Y235062D01*
X763707Y237127D01*
X772686Y228148D01*
X770621Y226083D01*
G37*
G36*
X767085Y222548D02*
X758106Y231527D01*
X760171Y233592D01*
X769150Y224613D01*
X767085Y222548D01*
G37*
G36*
X763550Y219012D02*
X754571Y227991D01*
X756636Y230056D01*
X765615Y221077D01*
X763550Y219012D01*
G37*
G36*
X760014Y215477D02*
X751035Y224456D01*
X753100Y226521D01*
X762079Y217542D01*
X760014Y215477D01*
G37*
G36*
X756479Y211941D02*
X747500Y220920D01*
X749565Y222985D01*
X758544Y214006D01*
X756479Y211941D01*
G37*
G36*
X752943Y208406D02*
X743964Y217385D01*
X746029Y219450D01*
X755008Y210471D01*
X752943Y208406D01*
G37*
G36*
X749407Y204870D02*
X740428Y213849D01*
X742493Y215914D01*
X751472Y206935D01*
X749407Y204870D01*
G37*
G36*
X745872Y201335D02*
X736893Y210314D01*
X738958Y212379D01*
X747937Y203400D01*
X745872Y201335D01*
G37*
G36*
X742336Y197799D02*
X733357Y206778D01*
X735422Y208843D01*
X744401Y199864D01*
X742336Y197799D01*
G37*
G36*
X738801Y194263D02*
X729822Y203242D01*
X731887Y205307D01*
X740866Y196328D01*
X738801Y194263D01*
G37*
G36*
X735265Y190728D02*
X726286Y199707D01*
X728351Y201772D01*
X737330Y192793D01*
X735265Y190728D01*
G37*
G36*
X731730Y187192D02*
X722751Y196171D01*
X724816Y198236D01*
X733795Y189257D01*
X731730Y187192D01*
G37*
D25*
X1100450Y158460D03*
X1111450Y158460D03*
X1122450Y158460D03*
X1133450Y158460D03*
X1144450Y158460D03*
X1155450Y158460D03*
X1166450Y158460D03*
X1177450Y158460D03*
X1188450Y158460D03*
D26*
X1088450Y148210D03*
D27*
X1088450Y55210D03*
D28*
X1231700Y150710D03*
D27*
X1243450Y55210D03*
D29*
X163830Y224282D03*
X176530Y224282D03*
X189230Y224282D03*
X201930Y224282D03*
X214630Y224282D03*
X227330Y224282D03*
X240030Y224282D03*
X240030Y273558D03*
X227330Y273558D03*
X214630Y273558D03*
X201930Y273558D03*
X189230Y273558D03*
X176530Y273558D03*
X163830Y273558D03*
D30*
X975452Y314550D03*
X975452Y308050D03*
X975452Y301550D03*
X975452Y295050D03*
X1018448Y295050D03*
X1018448Y301550D03*
X1018448Y308050D03*
X1018448Y314550D03*
D31*
X1016000Y85960D03*
X1008000Y85960D03*
X1032000Y85960D03*
X1024000Y85960D03*
D32*
X1061000Y30960D03*
X971000Y30960D03*
X1061000Y85960D03*
X971000Y85960D03*
D31*
X1000000Y85960D03*
D33*
X299720Y267860D03*
X299720Y285860D03*
X299720Y39260D03*
X299720Y57260D03*
D34*
X285860Y177800D03*
X267860Y177800D03*
X1084690Y172720D03*
X1066690Y172720D03*
D33*
X1104900Y191880D03*
X1104900Y173880D03*
D20*
X907540Y248920D03*
X939040Y248920D03*
D16*
X393400Y292100D03*
X393400Y310900D03*
X393400Y273300D03*
X413700Y310900D03*
X413700Y292100D03*
X413700Y273300D03*
X373100Y310900D03*
X373100Y292100D03*
X373100Y273300D03*
D17*
X338000Y311950D02*
X315800Y311950D01*
X315800Y318050D01*
X338000Y318050D01*
X338000Y311950D01*
X338000Y317745D02*
X315800Y317745D01*
X315800Y266150D02*
X338000Y266150D01*
X315800Y266150D02*
X315800Y272250D01*
X338000Y272250D01*
X338000Y266150D01*
X338000Y271945D02*
X315800Y271945D01*
D35*
X262803Y206248D02*
X262803Y200152D01*
X262803Y206248D02*
X290997Y206248D01*
X290997Y200152D01*
X262803Y200152D01*
X262803Y205943D02*
X290997Y205943D01*
X262803Y155448D02*
X262803Y149352D01*
X262803Y155448D02*
X290997Y155448D01*
X290997Y149352D01*
X262803Y149352D01*
X262803Y155143D02*
X290997Y155143D01*
D36*
X377900Y177800D03*
D22*
X255660Y101600D03*
X272660Y101600D03*
D18*
X142000Y101600D03*
X112000Y101600D03*
D15*
X1258710Y134620D03*
X1276210Y134620D03*
D37*
X1254920Y159512D03*
X1258920Y159512D03*
X1262920Y159512D03*
X1266920Y159512D03*
X1270920Y159512D03*
X1274920Y159512D03*
D38*
X1280668Y165260D03*
X1280668Y169260D03*
X1280668Y173260D03*
X1280668Y177260D03*
X1280668Y181260D03*
X1280668Y185260D03*
D37*
X1274920Y191008D03*
X1270920Y191008D03*
X1266920Y191008D03*
X1262920Y191008D03*
X1258920Y191008D03*
X1254920Y191008D03*
D38*
X1249172Y185260D03*
X1249172Y181260D03*
X1249172Y177260D03*
X1249172Y173260D03*
X1249172Y169260D03*
X1249172Y165260D03*
D15*
X1258710Y114300D03*
X1276210Y114300D03*
D12*
X1277620Y227190D03*
X1277620Y209690D03*
D39*
X752550Y256160D03*
X752550Y272160D03*
X746050Y256160D03*
X746050Y272160D03*
X759050Y272160D03*
X759050Y256160D03*
X739550Y256160D03*
X739550Y272160D03*
D40*
X1105067Y212986D03*
X1116067Y212986D03*
X1127067Y212986D03*
X1138067Y212986D03*
X1149067Y212986D03*
X1179067Y212986D03*
X1190067Y212986D03*
X1201067Y212986D03*
X1212067Y212986D03*
X1223067Y212986D03*
X1234067Y212986D03*
X1245067Y212986D03*
X1105067Y332986D03*
X1116067Y332986D03*
X1127067Y332986D03*
X1138067Y332986D03*
X1149067Y332986D03*
X1179067Y332986D03*
X1190067Y332986D03*
X1201067Y332986D03*
X1212067Y332986D03*
X1223067Y332986D03*
X1234067Y332986D03*
X1245067Y332986D03*
D23*
X1277620Y311540D03*
X1277620Y328540D03*
D19*
X1277620Y284240D03*
X1277620Y254240D03*
M02*
